<?xml version="1.0" encoding="UTF-8"?>
<!-- Generated by Pixelmator Pro 2.4.5 -->
<svg width="88" height="113" viewBox="0 0 88 113" xmlns="http://www.w3.org/2000/svg" xmlns:xlink="http://www.w3.org/1999/xlink">
    <path id="Path-copy-3" fill="#dfa30c" fill-rule="evenodd" stroke="none" d="M 28.212601 58.274963 C 4.292572 75.752655 19.365555 78.500183 38.578323 105.735596 L 74.399429 81.629883 C 63.960754 54.168579 66.782883 30.092682 28.212601 58.274963 Z"/>
    <path id="Path-copy-2" fill="#ffb700" fill-rule="evenodd" stroke="none" d="M 23.159195 94.988098 L 26.974258 113.070679 C 34.251572 111.422302 41.884811 108.370178 49.93248 104.319885 C 57.72641 100.235413 65.785629 95.261719 72.961624 90.018372 C 77.89476 86.413879 82.609985 82.511108 86.619736 78.895081 L 73.898056 65.252533 C 70.484818 68.432709 66.525558 71.792236 62.03981 75.069885 C 55.609436 79.768372 48.400467 84.340393 41.356522 87.886047 C 34.57663 91.467499 27.953064 94.01062 23.159195 94.988098 Z"/>
    <path id="Path-copy" fill="#dfa30c" fill-rule="evenodd" stroke="none" d="M 12.060303 12.123657 C 15.585678 9.547791 21.277557 12.37915 23.709473 15.707642 C 27.136017 20.084442 28.835861 26.180359 30.25061 31.560486 C 32.38942 38.945984 33.688568 46.597321 34.903976 54.209198 L 34.903976 54.209198 C 30.786926 49.513489 26.431747 44.95517 22.292694 40.12915 C 17.365005 34.323914 6.944504 23.830933 9.86203 15.276184 C 10.391647 13.80954 11.15361 12.786163 12.060303 12.123657 Z M 8.257431 6.292603 C -13.574806 22.244812 24.937729 53.467102 34.452118 65.875671 C 35.859833 67.802368 38.023651 67.758484 39.586258 66.753967 L 39.586258 66.753967 C 40.727325 66.963257 41.949432 66.71991 42.838226 66.070496 C 43.768784 65.390564 44.335526 64.262817 44.081253 62.73761 C 42.012161 50.488525 35.346313 -11.368652 9.540604 5.419067 C 9.089325 5.703064 8.663055 5.996216 8.257431 6.292603 Z"/>
</svg>
