<?xml version="1.0" encoding="UTF-8"?>
<!-- Generated by Pixelmator Pro 2.4.5 -->
<svg width="158" height="184" viewBox="0 0 158 184" xmlns="http://www.w3.org/2000/svg" xmlns:xlink="http://www.w3.org/1999/xlink">
    <path id="Path-copy-18" fill="#e7a098" fill-rule="evenodd" stroke="none" d="M 95.708191 59.050232 C 15.975403 27.516632 -27.608765 144.027802 53.319885 176.034332 C 54.037415 176.318115 54.763855 176.593872 55.50415 176.863647 C 147.463867 210.524719 181.904785 93.209351 103.044006 62.020599 C 102.067383 61.634369 101.072937 61.26413 100.062622 60.904877 C 98.597351 60.238953 97.148193 59.61972 95.708191 59.050232 Z"/>
    <path id="Path-copy-17" fill="#f5eace" fill-rule="evenodd" stroke="none" d="M 23.867859 66.391449 C 20.743713 65.155884 16.422974 68.096985 18.313293 71.898499 C 21.878967 78.938171 11.971191 89.027252 20.971375 94.753265 C 21.314514 94.963867 21.676392 95.141571 22.055054 95.291321 C 25.318726 96.582092 29.505859 95.610565 32.817261 95.105164 C 35.052673 94.756165 36.591187 94.828796 37.642578 95.244568 C 40.647095 96.432861 39.728394 100.431366 39.988708 105.455109 C 40.267822 110.693695 42.189697 113.891113 45.443359 115.177917 C 47.780212 116.102112 50.800842 116.040619 54.391907 115.04657 C 58.402466 113.953369 60.912659 113.142609 62.541992 113.786987 C 64.061707 114.388031 64.810303 116.268646 65.281006 120.367218 C 65.645691 123.830383 66.211121 128.243011 68.889893 130.604675 C 69.706787 131.365662 70.592529 131.92337 71.524292 132.29187 C 73.352905 133.015106 75.36084 133.00827 77.426025 132.390289 C 81.174011 131.320007 86.47229 127.203949 89.541626 128.417847 C 90.468384 128.784393 91.190125 129.640259 91.611145 131.212708 C 93.061523 137.000946 93.995544 144.094666 99.038025 146.088898 C 100.423218 146.636749 102.116333 146.799286 104.214417 146.447845 C 106.650574 146.028442 114.714478 140.00415 117.928284 141.275177 C 118.391663 141.458435 118.753174 141.797333 118.982117 142.325775 C 120.972046 147.157715 121.140503 151.84552 124.050842 156.171387 C 124.994629 157.587585 126.048706 158.44812 127.174805 158.893494 C 133.408081 161.358704 141.945313 151.165527 147.374207 151.964264 C 152.367554 152.596558 153.549744 145.469727 149.304504 143.790771 C 148.990601 143.666626 148.642944 143.569489 148.262634 143.511261 C 144.674072 143.100372 141.885803 144.308197 138.726624 146.08963 C 134.890808 148.110474 132.73053 149.099945 131.185913 148.489075 C 129.641296 147.878174 128.71228 145.666931 127.335144 141.296265 C 125.943726 136.845093 123.920166 133.860992 120.945557 132.68454 C 118.743164 131.813538 116.016357 131.933594 112.63916 133.173584 C 109.10437 134.564423 105.535522 137.935455 103.029236 136.944244 C 101.903137 136.498871 100.990479 135.164154 100.393555 132.375519 C 99.655151 128.764526 99.039612 123.750122 95.985168 121.245667 C 95.194458 120.564178 94.348694 120.051086 93.461792 119.700317 C 91.568359 118.951477 89.478821 118.931763 87.275269 119.535339 C 84.042358 120.527008 78.300598 124.715424 75.445496 123.586273 C 74.668213 123.27887 74.104309 122.577606 73.863525 121.306915 C 73.049316 116.882324 73.217102 106.813263 67.611572 104.596344 C 66.904053 104.316498 66.10144 104.160431 65.197021 104.159973 C 61.406372 104.245392 57.9953 105.206909 54.354126 106.371277 C 52.386475 107.004822 51.019531 107.05191 50.07782 106.679474 C 46.983582 105.455719 48.487366 99.671906 48.378418 95.197815 C 48.119385 90.768066 45.999512 88.333618 43.039795 87.163055 C 40.458801 86.142303 37.24469 86.081177 34.055359 86.496582 C 31.313538 86.85849 28.597778 87.518799 25.702332 87.526093 C 25.678467 87.528168 25.651611 87.523285 25.626648 87.513428 C 24.769653 87.1745 26.35321 80.402313 26.469055 79.745178 C 27.229553 76.001007 27.740967 72.158325 26.0271 68.449646 C 25.504578 67.395996 24.734863 66.734314 23.867859 66.391449 Z"/>
    <path id="Path-copy-16" fill="#f5eace" fill-rule="evenodd" stroke="none" d="M 34.680725 54.68396 C 32.647827 53.879944 29.918457 56.672577 31.42865 59.177094 C 50.322083 88.913788 84.478882 105.378418 117.937561 118.611023 C 129.397705 123.143402 140.781799 127.299988 151.436646 131.479279 C 154.804932 132.811432 156.830688 127.68924 153.462402 126.357086 C 142.769592 122.128174 131.311829 117.953979 119.781921 113.394012 C 87.269958 100.535828 54.14801 84.601471 35.827026 55.719269 C 35.506592 55.189178 35.109253 54.853424 34.680725 54.68396 Z"/>
    <path id="Path-copy-15" fill="#f5eace" fill-rule="evenodd" stroke="none" d="M 4.508423 94.828308 C 2.111755 93.880463 -0.860046 96.761597 1.210571 99.072906 C 31.578796 132.241425 73.884155 154.458282 115.743652 171.013336 C 120.731323 172.985901 125.71167 174.874908 130.661926 176.694397 C 134.044617 177.888184 136.110229 172.781738 132.856567 171.494934 C 132.816711 171.479187 132.776794 171.463409 132.736938 171.447662 C 127.573486 169.555359 122.376892 167.586578 117.169983 165.527313 C 76.391785 149.399872 35.215698 127.940796 5.610901 95.610077 C 5.275146 95.23526 4.902039 94.984009 4.508423 94.828308 Z"/>
    <path id="Path-copy-14" fill="#c63b3d" fill-rule="evenodd" stroke="none" d="M 33.605774 99.317902 C 28.483582 97.292145 25.421265 105.035217 30.543457 107.061005 C 35.536072 109.035522 38.598389 101.29245 33.605774 99.317902 Z"/>
    <path id="Path-copy-13" fill="#c63b3d" fill-rule="evenodd" stroke="none" d="M 58.542236 118.422363 C 53.420044 116.396576 50.357727 124.139648 55.479919 126.165436 C 60.477539 128.141968 63.539856 120.398865 58.542236 118.422363 Z"/>
    <path id="Path-copy-12" fill="#c63b3d" fill-rule="evenodd" stroke="none" d="M 87.007935 134.445465 C 82.015259 132.470947 78.952942 140.21402 83.945618 142.188568 C 89.06781 144.214355 92.130127 136.471252 87.007935 134.445465 Z"/>
    <path id="Path-copy-11" fill="#c63b3d" fill-rule="evenodd" stroke="none" d="M 115.143555 148.75351 C 110.021362 146.727722 106.90979 154.595367 112.031982 156.621155 C 117.024597 158.595703 120.136169 150.728058 115.143555 148.75351 Z"/>
    <path id="Path-copy-10" fill="#c63b3d" fill-rule="evenodd" stroke="none" d="M 136.05658 134.206757 C 131.063904 132.232208 128.001587 139.975311 132.994263 141.94986 C 138.116455 143.975616 141.178772 136.232544 136.05658 134.206757 Z"/>
    <path id="Path-copy-9" fill="#c63b3d" fill-rule="evenodd" stroke="none" d="M 109.107727 122.390564 C 104.110107 120.414063 101.047791 128.157135 106.04541 130.133667 C 111.038025 132.108185 114.100342 124.365112 109.107727 122.390564 Z"/>
    <path id="Path-copy-8" fill="#c63b3d" fill-rule="evenodd" stroke="none" d="M 81.997681 108.782013 C 77.000061 106.805511 73.888489 114.673157 78.886108 116.649658 C 83.878723 118.624207 86.990295 110.756561 81.997681 108.782013 Z"/>
    <path id="Path-copy-7" fill="#c63b3d" fill-rule="evenodd" stroke="none" d="M 58.720886 93.50882 C 53.723267 91.532318 50.611633 99.399963 55.609253 101.376465 C 60.601929 103.351013 63.713501 95.483368 58.720886 93.50882 Z"/>
    <path id="Path-copy-6" fill="#c63b3d" fill-rule="evenodd" stroke="none" d="M 58.700439 55.262817 C 56.100464 54.234558 52.765747 57.537781 54.953552 60.390991 C 69.487976 79.170837 90.736023 92.321991 113.184753 101.200256 C 122.117676 104.733154 131.246338 107.589569 140.213074 109.856903 C 144.110901 110.859955 146.493896 105.32251 143.117859 103.987305 C 142.954895 103.922852 142.783386 103.8685 142.598022 103.826599 C 133.715759 101.561249 124.671631 98.729309 115.827942 95.23172 C 94.357117 86.740173 74.0495 74.297516 60.046753 56.329254 C 59.650208 55.799988 59.189392 55.456177 58.700439 55.262817 Z"/>
    <path id="Path-copy-5" fill="#c63b3d" fill-rule="evenodd" stroke="none" d="M 15.736023 117.250244 C 12.88385 116.122192 9.403076 119.597992 11.846252 122.452332 C 36.514038 150.926666 70.18158 166.334045 104.568604 179.933807 C 108.588196 181.523499 111.05365 175.289551 107.034058 173.69986 C 73.854492 160.577637 40.969055 145.832092 17.109802 118.257446 C 16.695374 117.768799 16.225464 117.443787 15.736023 117.250244 Z"/>
    <path id="Path-copy-4" fill="#dfa30c" fill-rule="evenodd" stroke="none" d="M 120.78772 35.163116 C 100.80719 27.260986 104.958679 37.56897 95.695618 59.89801 L 124.34906 72.53244 C 137.148132 55.496948 153.005737 47.905029 120.78772 35.163116 Z"/>
    <path id="Path-copy-3" fill="#ffb700" fill-rule="evenodd" stroke="none" d="M 96.316162 46.279999 L 86.704041 55.621674 C 90.532776 59.446472 95.360229 62.946014 100.960266 66.313202 C 106.483032 69.511505 112.653809 72.528198 118.647949 74.898834 C 122.768677 76.528534 126.987854 77.909088 130.758057 78.968018 L 134.198547 65.883301 C 130.926636 65.021423 127.333252 63.894165 123.586304 62.412262 C 118.214966 60.287933 112.61969 57.637146 107.717834 54.690155 C 102.896179 51.918945 98.771851 48.841522 96.316162 46.279999 Z"/>
    <path id="Path-copy-2" fill="#dfa30c" fill-rule="evenodd" stroke="none" d="M 142.836304 7.386383 C 145.781067 8.551025 146.248657 13.138153 145.149048 15.918488 C 143.791748 19.714722 140.711548 23.117676 137.9599 26.068604 C 134.258789 30.240143 130.06958 33.999634 125.87207 37.692505 L 125.87207 37.692505 C 127.157654 33.349304 128.266724 28.913239 129.623657 24.506073 C 131.275757 19.236084 133.675781 8.782227 140.051758 7.258911 C 141.156311 7.015839 142.078918 7.086853 142.836304 7.386383 Z M 144.939758 2.796234 C 126.703186 -4.416199 122.46814 31.292969 118.542542 41.932892 C 117.906006 43.542297 118.770813 44.852325 119.991882 45.421692 L 119.991882 45.421692 C 120.305359 46.202545 120.927795 46.857819 121.670227 47.151428 C 122.44751 47.458832 123.358582 47.36972 124.195496 46.623199 C 130.90625 40.611145 166.259888 12.570709 145.972351 3.244934 C 145.623413 3.078125 145.278564 2.930237 144.939758 2.796234 Z"/>
    <path id="Path-copy" fill="#c63b3d" fill-rule="evenodd" stroke="none" d="M 35.048584 73.535645 C 30.505554 73.535645 30.505554 80.687561 35.048584 80.687561 C 39.587036 80.687561 39.587036 73.535645 35.048584 73.535645 Z"/>
</svg>
