<?xml version="1.0" encoding="UTF-8"?>
<!-- Generated by Pixelmator Pro 2.4.5 -->
<svg width="165" height="106" viewBox="0 0 165 106" xmlns="http://www.w3.org/2000/svg" xmlns:xlink="http://www.w3.org/1999/xlink">
    <path id="Path-copy-18" fill="#245716" fill-rule="evenodd" stroke="none" d="M 8.847229 1.319153 C 6.39978 1.319153 4.34903 2.194824 3.026794 4.213135 C -3.539612 14.030304 12.906311 25.848328 23.911011 31.850891 C 22.299347 31.681244 20.829895 31.60141 19.495178 31.60141 C -3.444824 31.60141 13.632324 55.309784 34.032562 55.309784 C 34.306976 55.309784 34.578918 55.307312 34.853333 55.297302 L 34.853333 55.297302 C 6.417267 66.930725 32.787628 78.863495 59.599579 78.863495 C 65.212952 78.863495 70.843781 78.3396 75.995605 77.181976 L 79.059265 73.931213 C 79.059265 56.736847 80.374054 21.846619 68.680756 20.344727 C 68.094482 20.205017 67.545624 20.140137 67.029205 20.140137 C 61.513123 20.140137 59.594604 27.562286 56.738007 31.850891 C 57.883148 20.354706 49.712555 7.626068 42.614777 7.626068 C 38.862549 7.626068 35.412201 11.178711 33.790558 20.344727 C 29.324799 10.88681 16.935455 1.319153 8.847229 1.319153 Z"/>
    <path id="Path-copy-17" fill="#73c065" fill-rule="evenodd" stroke="none" d="M 18.72226 17.406067 C 18.72226 17.406067 19.597961 18.344116 21.034973 19.970734 C 21.785919 20.784058 22.661621 21.722107 23.724426 22.84729 C 24.223389 23.471008 24.787201 24.034821 25.348541 24.658539 C 25.912384 25.284729 26.600952 25.91095 27.22467 26.597015 C 29.851715 29.286438 32.977753 32.350098 36.290863 35.665741 C 37.917511 37.289856 39.668884 38.978882 41.355377 40.792603 C 42.168701 41.668274 43.044373 42.541473 43.920074 43.479553 L 45.169983 44.856689 L 45.858551 45.480408 L 45.983307 45.670013 L 46.045685 45.794739 L 46.357513 46.106598 C 49.673157 49.983582 53.048676 53.673431 56.112305 57.173676 C 57.614197 58.925049 59.051239 60.614044 60.363495 62.23819 C 61.678284 63.864807 62.865814 65.426575 63.866241 66.928467 C 64.929047 68.365479 65.804749 69.742615 66.493317 70.930176 C 66.867523 71.556366 67.117004 72.117706 67.431366 72.681549 C 67.680847 73.180511 67.86795 73.619598 68.055084 74.056213 C 68.242188 74.43042 68.369415 74.744781 68.494171 75.118988 C 68.681274 75.495728 68.743652 75.869934 68.868378 76.119415 C 69.055511 76.683258 69.180237 76.995117 69.180237 76.995117 L 76.871796 73.86908 C 76.871796 73.86908 76.74707 73.55722 76.497589 73.055786 C 76.372833 72.806274 76.245605 72.429565 76.058502 72.055359 C 75.871368 71.681122 75.55954 71.117279 75.245178 70.555939 C 75.058075 70.241608 74.870941 69.929749 74.683838 69.617889 C 74.559113 69.303528 74.307129 69.054077 74.119995 68.742188 C 73.745789 68.178375 73.306702 67.489807 72.807739 66.803711 C 71.869659 65.488953 70.744507 64.051941 69.43222 62.552521 C 68.117432 61.113007 66.68042 59.548767 65.178528 57.987 C 63.61676 56.422729 61.927765 54.860962 60.176392 53.234314 C 56.738525 49.983582 52.986298 46.670441 49.421173 43.292419 L 49.046967 42.980591 L 48.797455 42.731079 L 48.672729 42.541473 L 47.921783 41.980164 L 46.484772 40.730225 C 45.546692 39.916931 44.608643 39.103607 43.670593 38.352661 C 41.794464 36.728516 39.918365 35.164276 38.104614 33.727234 C 34.414764 30.78833 31.039246 27.974152 28.100342 25.658966 C 27.411774 25.035248 26.66333 24.471436 26.037109 23.910095 C 25.410919 23.346252 24.787201 22.84729 24.223389 22.345825 C 23.098206 21.28302 22.097778 20.407349 21.284454 19.721252 C 19.660339 18.21936 18.72226 17.406067 18.72226 17.406067 Z"/>
    <path id="Path-copy-16" fill="#73c065" fill-rule="evenodd" stroke="none" d="M 45.170563 20.09552 C 45.170563 20.09552 45.108215 21.532532 44.983459 23.658142 C 44.921082 24.785797 44.858734 26.035706 44.796356 27.41037 C 44.796356 28.725159 44.796356 30.16217 44.733978 31.599182 C 44.796356 33.101074 44.796356 34.538116 44.858734 35.915253 C 44.858734 36.601318 44.858734 37.227539 44.921082 37.853729 C 44.921082 38.477448 44.983459 39.04126 45.045837 39.6026 C 45.170563 41.730713 45.295319 43.167725 45.295319 43.167725 L 48.358978 42.793518 C 48.358978 42.793518 48.047119 41.353973 47.610535 39.228394 C 47.548157 38.729431 47.420929 38.165588 47.296173 37.539398 C 47.10907 36.91568 47.046692 36.28949 46.984314 35.665771 C 46.734833 34.350983 46.547729 32.913971 46.295746 31.536835 C 46.108643 30.099792 45.983887 28.660278 45.796783 27.347992 C 45.60968 26.035706 45.547302 24.785797 45.484924 23.658142 C 45.295319 21.532532 45.170563 20.09552 45.170563 20.09552 Z"/>
    <path id="Path-copy-15" fill="#73c065" fill-rule="evenodd" stroke="none" d="M 66.806152 37.352539 C 66.806152 37.352539 66.556671 38.667297 66.179962 40.668152 C 65.992828 41.668579 65.805725 42.793762 65.556244 44.043671 C 65.366638 45.293579 65.117157 46.608337 64.805298 47.858276 C 64.493439 49.170532 64.241455 50.482819 63.929626 51.672852 C 63.617767 52.922791 63.303406 54.047943 63.053925 54.985992 C 62.554962 56.9245 62.240601 58.236755 62.240601 58.236755 L 66.367065 58.925354 C 66.367065 58.925354 66.431946 57.548187 66.556671 55.547333 C 66.619049 54.546906 66.681427 53.359375 66.743774 52.109467 C 66.806152 50.859558 66.806152 49.482391 66.86853 48.107758 C 66.930908 46.795471 66.930908 45.418335 66.86853 44.168396 C 66.86853 42.918518 66.86853 41.730957 66.86853 40.73053 C 66.806152 38.729675 66.806152 37.352539 66.806152 37.352539 Z"/>
    <path id="Path-copy-14" fill="#73c065" fill-rule="evenodd" stroke="none" d="M 19.533112 39.854889 C 19.535614 39.854889 21.222107 40.229126 23.724426 40.855316 C 24.974335 41.104797 26.473724 41.479004 28.037994 41.855743 C 29.602264 42.167603 31.288757 42.604187 32.977753 42.980896 C 39.668884 44.35556 46.357544 45.795074 46.357544 45.795074 L 46.859009 42.669067 C 46.859009 42.669067 39.980743 42.042847 33.164886 41.416656 C 31.475861 41.229553 29.789368 41.042419 28.16275 40.855316 C 26.600983 40.668213 25.099091 40.478577 23.849182 40.353851 C 21.284485 40.041992 19.535614 39.854889 19.533112 39.854889 Z"/>
    <path id="Path-copy-13" fill="#73c065" fill-rule="evenodd" stroke="none" d="M 62.741455 58.361816 C 62.741455 58.361816 61.05246 58.738525 58.427887 59.299866 C 57.175476 59.614227 55.676086 59.926086 54.049469 60.237946 C 52.487701 60.552277 50.736328 60.864136 49.047333 61.175995 C 47.295959 61.487854 45.609436 61.802185 43.982819 62.051666 C 43.169495 62.176422 42.356201 62.301147 41.607727 62.425903 C 40.856781 62.488281 40.168213 62.615509 39.544525 62.677887 C 36.91745 62.989746 35.166077 63.176849 35.166077 63.176849 C 35.166077 63.176849 36.91745 63.239227 39.544525 63.301575 C 40.230591 63.363953 40.919159 63.363953 41.670105 63.363953 L 44.045197 63.363953 C 45.734192 63.301575 47.485565 63.301575 49.234436 63.301575 C 50.985809 63.176849 52.799561 63.114471 54.426178 63.052094 C 56.112701 62.989746 57.614594 62.927368 58.926849 62.802612 C 61.553925 62.615509 63.302795 62.488281 63.302795 62.488281 L 62.741455 58.361816 Z"/>
    <path id="Path-copy-12" fill="#245716" fill-rule="evenodd" stroke="none" d="M 155.151123 1.319153 C 147.062866 1.319153 134.673523 10.88681 130.210266 20.344727 C 128.588623 11.178711 125.143311 7.626068 121.403564 7.626068 C 114.32074 7.626068 106.177551 20.354706 107.325165 31.850891 C 104.466095 27.562286 102.495178 20.140137 96.971619 20.140137 C 96.452698 20.140137 95.903839 20.205017 95.320038 20.344727 C 83.62677 21.846619 84.939056 56.736847 84.939056 73.931213 L 88.002716 77.181976 C 93.154541 78.3396 98.790344 78.863495 104.406219 78.863495 C 131.230652 78.863495 157.645935 66.930725 129.209839 55.297302 L 129.209839 55.297302 C 129.469299 55.30481 129.728821 55.309784 129.988281 55.309784 C 140.19458 55.309784 149.567688 49.394531 153.531982 43.416931 C 157.453857 37.534119 156.004333 31.60141 144.548096 31.60141 C 143.218323 31.60141 141.756348 31.681244 140.152222 31.850891 C 151.094543 25.848328 167.537964 14.030304 160.971558 4.213135 C 159.651794 2.194824 157.598572 1.319153 155.151123 1.319153 Z"/>
    <path id="Path-copy-11" fill="#73c065" fill-rule="evenodd" stroke="none" d="M 144.902405 17.406067 C 144.902405 17.406067 144.026733 18.21936 142.34021 19.721252 C 141.526917 20.407349 140.588867 21.28302 139.463684 22.345825 C 138.899841 22.84729 138.276184 23.346252 137.649963 23.910095 C 136.961365 24.471436 136.27533 25.035248 135.524353 25.658966 C 132.647827 27.974152 129.272278 30.78833 125.582458 33.727234 C 123.768738 35.164276 121.8302 36.728516 120.016479 38.352661 C 119.07843 39.103607 118.140381 39.916931 117.139954 40.730225 L 115.76532 41.980164 L 115.014343 42.541473 L 114.827209 42.731079 L 114.577759 42.980591 L 114.265869 43.292419 C 110.700775 46.670441 106.948547 49.983582 103.448303 53.234314 C 101.759308 54.860962 100.070313 56.422729 98.508545 57.987 C 96.944275 59.548767 95.507263 61.113007 94.254852 62.552521 C 92.942566 64.051941 91.817413 65.488953 90.816986 66.803711 C 90.317993 67.489807 89.941284 68.178375 89.5047 68.742188 C 89.317566 69.054077 89.12796 69.303528 88.940857 69.617889 C 88.753754 69.929749 88.628998 70.241608 88.441895 70.555939 C 88.127533 71.117279 87.815704 71.681122 87.628571 72.055359 C 87.441467 72.429565 87.251862 72.806274 87.189484 73.055786 C 86.940002 73.55722 86.752899 73.86908 86.752899 73.86908 L 94.506836 76.995117 C 94.506836 76.995117 94.631561 76.683258 94.818695 76.119415 C 94.881042 75.869934 95.005798 75.495728 95.130524 75.118988 C 95.32016 74.744781 95.444885 74.43042 95.631989 74.056213 C 95.756744 73.619598 95.943848 73.180511 96.258209 72.681549 C 96.570068 72.117706 96.81955 71.556366 97.193756 70.930176 C 97.882324 69.742615 98.758026 68.365479 99.758453 66.928467 C 100.821259 65.426575 101.946411 63.864807 103.323578 62.23819 C 104.573486 60.614044 106.072876 58.925049 107.574768 57.173676 C 110.57605 53.673431 114.013916 49.983582 117.267151 46.106598 L 117.579041 45.794739 L 117.703796 45.670013 L 117.828491 45.480408 L 118.454712 44.856689 L 119.767029 43.479553 C 120.6427 42.541473 121.455994 41.668274 122.331665 40.792603 C 124.018188 38.978882 125.707214 37.289856 127.396179 35.665741 C 130.709351 32.350098 133.77301 29.286438 136.462402 26.597015 C 137.088623 25.91095 137.712341 25.284729 138.338501 24.658539 C 138.899841 24.034821 139.463684 23.471008 139.962646 22.84729 C 141.025452 21.722107 141.901123 20.784058 142.6521 19.970734 C 144.089111 18.344116 144.902405 17.406067 144.902405 17.406067 Z"/>
    <path id="Path-copy-10" fill="#73c065" fill-rule="evenodd" stroke="none" d="M 119.580566 20.09552 C 119.580566 20.09552 119.393433 21.532532 119.141418 23.658142 C 119.079102 24.221985 119.016724 24.785797 118.954346 25.409515 C 118.891968 26.035706 118.767212 26.659424 118.642456 27.347992 C 118.393005 28.660278 118.140991 30.099792 117.891541 31.474457 C 117.267822 34.288635 116.641602 37.102783 116.140137 39.228394 C 115.641174 41.291626 115.329346 42.73114 115.329346 42.73114 L 118.393005 43.230103 C 118.393005 43.230103 118.517761 41.793091 118.767212 39.66748 C 118.954346 37.47702 119.206299 34.600464 119.455811 31.66156 C 119.518188 30.224548 119.580566 28.787506 119.642883 27.41037 C 119.642883 26.724304 119.705261 26.098083 119.705261 25.471893 C 119.642883 24.848175 119.642883 24.284363 119.642883 23.723022 C 119.580566 21.532532 119.580566 20.09552 119.580566 20.09552 Z"/>
    <path id="Path-copy-9" fill="#73c065" fill-rule="evenodd" stroke="none" d="M 96.882141 35.289276 C 96.882141 35.289276 96.819763 41.167114 96.819763 47.044922 C 96.882141 48.544312 96.882141 50.046204 96.944519 51.420837 C 96.944519 52.109436 96.944519 52.798004 97.006866 53.421692 C 97.006866 54.047913 97.069244 54.674133 97.069244 55.235443 C 97.25885 57.423431 97.321228 58.925293 97.321228 58.925293 L 101.447693 58.236725 C 101.447693 58.236725 101.070953 56.862091 100.571991 54.674133 C 100.447266 54.172668 100.32251 53.546448 100.132904 52.985107 C 100.008148 52.358917 99.883423 51.735199 99.758667 51.046631 C 99.509186 49.734344 99.194855 48.29483 98.945374 46.857819 C 97.882568 41.104736 96.882141 35.289276 96.882141 35.289276 Z"/>
    <path id="Path-copy-8" fill="#73c065" fill-rule="evenodd" stroke="none" d="M 143.091858 39.854889 C 143.089355 39.854889 141.46521 40.166748 139.025269 40.668213 C 137.775391 40.917694 136.400757 41.167175 134.836487 41.416656 C 134.08551 41.541382 133.274719 41.66864 132.461365 41.793365 C 131.710449 41.918121 130.897156 42.042847 130.083801 42.105225 C 129.27301 42.22998 128.397339 42.292328 127.646362 42.417084 C 126.833069 42.479431 126.019714 42.541809 125.271301 42.604187 C 124.520325 42.604187 123.769409 42.731415 123.080811 42.731415 L 121.142334 42.731415 C 120.795532 42.748901 120.45874 42.756378 120.136902 42.756378 C 119.358521 42.756378 118.672485 42.711456 118.141052 42.669067 L 117.015869 42.669067 L 117.078247 45.795074 C 117.078247 45.795074 117.517334 45.732697 118.205933 45.670349 C 118.954346 45.605469 119.954773 45.605469 121.269592 45.355988 C 121.893311 45.29361 122.581848 45.231262 123.270447 45.106506 C 124.01886 44.98175 124.769836 44.857025 125.520752 44.732269 C 126.334106 44.542664 127.08252 44.417938 127.895874 44.230835 C 128.709167 44.043701 129.522461 43.856598 130.335815 43.669495 C 131.149109 43.479858 131.959961 43.230408 132.773254 43.043274 C 133.52417 42.856171 134.337524 42.604187 135.08844 42.417084 C 136.58783 41.980469 137.962524 41.541382 139.152527 41.167175 C 141.46521 40.353851 143.089355 39.854889 143.091858 39.854889 Z"/>
    <path id="Path-copy-7" fill="#73c065" fill-rule="evenodd" stroke="none" d="M 100.946289 58.361816 L 100.322601 62.488281 C 100.322601 62.488281 102.071472 62.615509 104.698517 62.802612 C 106.010803 62.927368 107.575073 62.989746 109.201691 63.052094 C 110.888214 63.114471 112.639587 63.176849 114.39093 63.301575 C 116.204712 63.301575 117.953552 63.301575 119.5802 63.363953 L 121.955261 63.363953 C 122.768616 63.363953 123.457153 63.363953 124.145752 63.301575 C 126.770325 63.239227 128.521667 63.176849 128.521667 63.176849 C 128.521667 63.176849 126.770325 62.989746 124.145752 62.677887 C 123.519531 62.615509 122.768616 62.488281 122.017639 62.425903 C 121.331543 62.301147 120.51825 62.176422 119.704956 62.051666 C 118.078308 61.802185 116.391785 61.487854 114.640442 61.175995 C 112.951416 60.864136 111.202545 60.552277 109.575928 60.237946 C 108.011658 59.926086 106.512268 59.614227 105.197479 59.299866 C 102.635315 58.738525 100.946289 58.361816 100.946289 58.361816 Z"/>
    <path id="Path-copy-6" fill="#c63b3d" fill-rule="evenodd" stroke="none" d="M 65.056824 73.999664 C 45.340179 73.999664 42.795441 105.19751 67.993256 105.257385 C 68.013214 105.257385 68.033173 105.257385 68.050629 105.257385 C 87.068726 105.257385 89.478729 74.618378 66.556244 74.057037 C 66.0448 74.01712 65.545837 73.999664 65.056824 73.999664 Z"/>
    <path id="Path-copy-5" fill="#e7a098" fill-rule="evenodd" stroke="none" d="M 57.677307 85.249023 C 52.173737 85.249023 51.422791 94.003387 58.490631 94.003387 C 63.867004 94.003387 64.493195 85.436127 58.113922 85.311401 C 57.926788 85.249023 57.802063 85.249023 57.677307 85.249023 Z"/>
    <path id="Path-copy-4" fill="#c63b3d" fill-rule="evenodd" stroke="none" d="M 97.383118 73.999664 C 77.668945 73.999664 75.121735 105.19751 100.322021 105.257385 C 100.339478 105.257385 100.359436 105.257385 100.379395 105.257385 C 119.397522 105.257385 121.745117 74.618378 98.882507 74.057037 C 98.373566 74.01712 97.872101 73.999664 97.383118 73.999664 Z"/>
    <path id="Path-copy-3" fill="#e7a098" fill-rule="evenodd" stroke="none" d="M 104.57373 89.440399 C 99.070129 89.440399 98.321686 98.192261 105.387054 98.192261 C 110.763428 98.192261 111.389618 89.627502 105.010345 89.440399 Z"/>
    <path id="Path-copy-2" fill="#e7a098" fill-rule="evenodd" stroke="none" d="M 79.689362 64.618958 C 59.970215 64.618958 57.365601 95.819305 82.625763 95.879181 C 82.645721 95.879181 82.663208 95.879181 82.683167 95.879181 C 101.701263 95.879181 104.048889 65.240173 81.186249 64.678833 C 80.677307 64.638916 80.178345 64.618958 79.689362 64.618958 Z"/>
    <path id="Path-copy" fill="#d1574a" fill-rule="evenodd" stroke="none" d="M 85.814667 70.681488 C 80.311066 70.681488 79.562622 79.43335 86.627991 79.43335 C 92.004364 79.43335 92.630554 70.868591 86.251282 70.681488 Z"/>
</svg>
