<?xml version="1.0" encoding="UTF-8"?>
<!-- Generated by Pixelmator Pro 2.4.5 -->
<svg width="165" height="105" viewBox="0 0 165 105" xmlns="http://www.w3.org/2000/svg" xmlns:xlink="http://www.w3.org/1999/xlink">
    <path id="Path-copy-18" fill="#245716" fill-rule="evenodd" stroke="none" d="M 8.847229 104.99884 C 6.39978 104.99884 4.34903 104.123169 3.026794 102.104828 C -3.539612 92.287659 12.906311 80.469635 23.911011 74.467072 C 22.299347 74.636719 20.829895 74.716553 19.495178 74.716553 C -3.444824 74.716553 13.632324 51.008179 34.032562 51.008179 C 34.306976 51.008179 34.578918 51.010681 34.853333 51.02066 L 34.853333 51.02066 C 6.417267 39.387268 32.787628 27.454468 59.599579 27.454468 C 65.212952 27.454468 70.843781 27.978394 75.995605 29.135986 L 79.059265 32.386749 C 79.059265 49.581146 80.374054 84.471344 68.680756 85.973236 C 68.094482 86.112946 67.545624 86.177826 67.029205 86.177826 C 61.513123 86.177826 59.594604 78.755707 56.738007 74.467072 C 57.883148 85.963257 49.712555 98.691895 42.614777 98.691895 C 38.862549 98.691895 35.412201 95.139252 33.790558 85.973236 C 29.324799 95.431152 16.935455 104.99884 8.847229 104.99884 Z"/>
    <path id="Path-copy-17" fill="#73c065" fill-rule="evenodd" stroke="none" d="M 18.72226 88.911926 C 18.72226 88.911926 19.597961 87.973877 21.034973 86.347229 C 21.785919 85.533905 22.661621 84.595856 23.724426 83.470703 C 24.223389 82.846985 24.787201 82.283142 25.348541 81.659454 C 25.912384 81.033234 26.600952 80.407043 27.22467 79.720947 C 29.851715 77.031525 32.977753 73.967865 36.290863 70.652252 C 37.917511 69.028107 39.668884 67.339111 41.355377 65.52536 C 42.168701 64.649689 43.044373 63.776489 43.920074 62.83844 L 45.169983 61.461273 L 45.858551 60.837585 L 45.983307 60.64798 L 46.045685 60.523224 L 46.357513 60.211365 C 49.673157 56.334412 53.048676 52.644562 56.112305 49.144318 C 57.614197 47.392944 59.051239 45.703918 60.363495 44.079803 C 61.678284 42.453156 62.865814 40.891388 63.866241 39.389526 C 64.929047 37.952484 65.804749 36.575348 66.493317 35.387787 C 66.867523 34.761597 67.117004 34.200256 67.431366 33.636444 C 67.680847 33.137451 67.86795 32.698364 68.055084 32.26178 C 68.242188 31.887543 68.369415 31.573212 68.494171 31.198975 C 68.681274 30.822266 68.743652 30.448029 68.868378 30.198547 C 69.055511 29.634735 69.180237 29.322876 69.180237 29.322876 L 76.871796 32.448883 C 76.871796 32.448883 76.74707 32.760742 76.497589 33.262207 C 76.372833 33.511688 76.245605 33.888397 76.058502 34.262634 C 75.871368 34.636871 75.55954 35.200684 75.245178 35.762024 C 75.058075 36.076385 74.870941 36.388214 74.683838 36.700073 C 74.559113 37.014435 74.307129 37.263916 74.119995 37.575775 C 73.745789 38.139587 73.306702 38.828186 72.807739 39.514252 C 71.869659 40.829041 70.744507 42.266052 69.43222 43.765442 C 68.117432 45.204956 66.68042 46.769226 65.178528 48.330994 C 63.61676 49.895233 61.927765 51.457001 60.176392 53.083649 C 56.738525 56.334412 52.986298 59.647552 49.421173 63.025543 L 49.046967 63.337402 L 48.797455 63.586884 L 48.672729 63.776489 L 47.921783 64.33783 L 46.484772 65.587738 C 45.546692 66.401062 44.608643 67.214355 43.670593 67.965302 C 41.794464 69.589447 39.918365 71.153717 38.104614 72.590729 C 34.414764 75.529633 31.039246 78.343811 28.100342 80.659027 C 27.411774 81.282715 26.66333 81.846558 26.037109 82.407898 C 25.410919 82.97171 24.787201 83.470703 24.223389 83.972137 C 23.098206 85.034943 22.097778 85.910645 21.284454 86.59671 C 19.660339 88.098602 18.72226 88.911926 18.72226 88.911926 Z"/>
    <path id="Path-copy-16" fill="#73c065" fill-rule="evenodd" stroke="none" d="M 45.170563 86.222443 C 45.170563 86.222443 45.108215 84.785431 44.983459 82.659821 C 44.921082 81.532166 44.858734 80.282257 44.796356 78.907593 C 44.796356 77.592834 44.796356 76.155792 44.733978 74.718781 C 44.796356 73.216888 44.796356 71.779877 44.858734 70.40271 C 44.858734 69.716644 44.858734 69.090454 44.921082 68.464233 C 44.921082 67.840546 44.983459 67.276703 45.045837 66.715363 C 45.170563 64.58728 45.295319 63.150238 45.295319 63.150238 L 48.358978 63.524475 C 48.358978 63.524475 48.047119 64.963989 47.610535 67.0896 C 47.548157 67.588562 47.420929 68.152374 47.296173 68.778595 C 47.10907 69.402283 47.046692 70.028503 46.984314 70.652191 C 46.734833 71.96698 46.547729 73.403992 46.295746 74.781158 C 46.108643 76.21817 45.983887 77.657684 45.796783 78.969971 C 45.60968 80.282257 45.547302 81.532166 45.484924 82.659821 C 45.295319 84.785431 45.170563 86.222443 45.170563 86.222443 Z"/>
    <path id="Path-copy-15" fill="#73c065" fill-rule="evenodd" stroke="none" d="M 66.806152 68.965454 C 66.806152 68.965454 66.556671 67.650665 66.179962 65.649811 C 65.992828 64.649384 65.805725 63.5242 65.556244 62.274292 C 65.366638 61.024384 65.117157 59.709625 64.805298 58.459717 C 64.493439 57.14743 64.241455 55.835144 63.929626 54.645111 C 63.617767 53.395203 63.303406 52.27002 63.053925 51.33197 C 62.554962 49.393494 62.240601 48.081207 62.240601 48.081207 L 66.367065 47.392639 C 66.367065 47.392639 66.431946 48.769775 66.556671 50.77063 C 66.619049 51.771057 66.681427 52.958618 66.743774 54.208527 C 66.806152 55.458435 66.806152 56.835571 66.86853 58.210236 C 66.930908 59.522491 66.930908 60.899658 66.86853 62.149567 C 66.86853 63.399475 66.86853 64.587006 66.86853 65.587433 C 66.806152 67.588287 66.806152 68.965454 66.806152 68.965454 Z"/>
    <path id="Path-copy-14" fill="#73c065" fill-rule="evenodd" stroke="none" d="M 19.533112 66.463104 C 19.535614 66.463104 21.222107 66.088867 23.724426 65.462677 C 24.974335 65.213165 26.473724 64.838959 28.037994 64.46225 C 29.602264 64.150391 31.288757 63.713776 32.977753 63.337067 C 39.668884 61.962402 46.357544 60.522888 46.357544 60.522888 L 46.859009 63.648926 C 46.859009 63.648926 39.980743 64.275116 33.164886 64.901337 C 31.475861 65.08844 29.789368 65.275543 28.16275 65.462677 C 26.600983 65.64978 25.099091 65.839386 23.849182 65.964111 C 21.284485 66.27597 19.535614 66.463104 19.533112 66.463104 Z"/>
    <path id="Path-copy-13" fill="#73c065" fill-rule="evenodd" stroke="none" d="M 62.741455 47.956146 C 62.741455 47.956146 61.05246 47.579437 58.427887 47.018097 C 57.175476 46.703735 55.676086 46.391907 54.049469 46.080048 C 52.487701 45.765686 50.736328 45.453827 49.047333 45.141998 C 47.295959 44.830139 45.609436 44.515778 43.982819 44.266296 C 43.169495 44.141571 42.356201 44.016815 41.607727 43.892059 C 40.856781 43.829712 40.168213 43.702454 39.544525 43.640106 C 36.91745 43.328247 35.166077 43.141113 35.166077 43.141113 C 35.166077 43.141113 36.91745 43.078766 39.544525 43.016388 C 40.230591 42.95401 40.919159 42.95401 41.670105 42.95401 L 44.045197 42.95401 C 45.734192 43.016388 47.485565 43.016388 49.234436 43.016388 C 50.985809 43.141113 52.799561 43.203491 54.426178 43.265869 C 56.112701 43.328247 57.614594 43.390625 58.926849 43.51535 C 61.553925 43.702454 63.302795 43.829712 63.302795 43.829712 L 62.741455 47.956146 Z"/>
    <path id="Path-copy-12" fill="#245716" fill-rule="evenodd" stroke="none" d="M 155.151123 104.99884 C 147.062866 104.99884 134.673523 95.431152 130.210266 85.973236 C 128.588623 95.139252 125.143311 98.691895 121.403564 98.691895 C 114.32074 98.691895 106.177551 85.963257 107.325165 74.467072 C 104.466095 78.755707 102.495178 86.177826 96.971619 86.177826 C 96.452698 86.177826 95.903839 86.112946 95.320038 85.973236 C 83.62677 84.471344 84.939056 49.581146 84.939056 32.386749 L 88.002716 29.135986 C 93.154541 27.978394 98.790344 27.454468 104.406219 27.454468 C 131.230652 27.454468 157.645935 39.387268 129.209839 51.02066 L 129.209839 51.02066 C 129.469299 51.013184 129.728821 51.008179 129.988281 51.008179 C 140.19458 51.008179 149.567688 56.923431 153.531982 62.901031 C 157.453857 68.783844 156.004333 74.716553 144.548096 74.716553 C 143.218323 74.716553 141.756348 74.636719 140.152222 74.467072 C 151.094543 80.469635 167.537964 92.287659 160.971558 102.104828 C 159.651794 104.123169 157.598572 104.99884 155.151123 104.99884 Z"/>
    <path id="Path-copy-11" fill="#73c065" fill-rule="evenodd" stroke="none" d="M 144.902405 88.911926 C 144.902405 88.911926 144.026733 88.098602 142.34021 86.59671 C 141.526917 85.910645 140.588867 85.034943 139.463684 83.972137 C 138.899841 83.470703 138.276184 82.97171 137.649963 82.407898 C 136.961365 81.846558 136.27533 81.282715 135.524353 80.659027 C 132.647827 78.343811 129.272278 75.529633 125.582458 72.590729 C 123.768738 71.153717 121.8302 69.589447 120.016479 67.965302 C 119.07843 67.214355 118.140381 66.401062 117.139954 65.587738 L 115.76532 64.33783 L 115.014343 63.776489 L 114.827209 63.586884 L 114.577759 63.337402 L 114.265869 63.025543 C 110.700775 59.647552 106.948547 56.334412 103.448303 53.083649 C 101.759308 51.457001 100.070313 49.895233 98.508545 48.330994 C 96.944275 46.769226 95.507263 45.204956 94.254852 43.765442 C 92.942566 42.266052 91.817413 40.829041 90.816986 39.514252 C 90.317993 38.828186 89.941284 38.139587 89.5047 37.575775 C 89.317566 37.263916 89.12796 37.014435 88.940857 36.700073 C 88.753754 36.388214 88.628998 36.076385 88.441895 35.762024 C 88.127533 35.200684 87.815704 34.636871 87.628571 34.262634 C 87.441467 33.888397 87.251862 33.511688 87.189484 33.262207 C 86.940002 32.760742 86.752899 32.448883 86.752899 32.448883 L 94.506836 29.322876 C 94.506836 29.322876 94.631561 29.634735 94.818695 30.198547 C 94.881042 30.448029 95.005798 30.822266 95.130524 31.198975 C 95.32016 31.573212 95.444885 31.887543 95.631989 32.26178 C 95.756744 32.698364 95.943848 33.137451 96.258209 33.636444 C 96.570068 34.200256 96.81955 34.761597 97.193756 35.387787 C 97.882324 36.575348 98.758026 37.952484 99.758453 39.389526 C 100.821259 40.891388 101.946411 42.453156 103.323578 44.079803 C 104.573486 45.703918 106.072876 47.392944 107.574768 49.144318 C 110.57605 52.644562 114.013916 56.334412 117.267151 60.211365 L 117.579041 60.523224 L 117.703796 60.64798 L 117.828491 60.837585 L 118.454712 61.461273 L 119.767029 62.83844 C 120.6427 63.776489 121.455994 64.649689 122.331665 65.52536 C 124.018188 67.339111 125.707214 69.028107 127.396179 70.652252 C 130.709351 73.967865 133.77301 77.031525 136.462402 79.720947 C 137.088623 80.407043 137.712341 81.033234 138.338501 81.659454 C 138.899841 82.283142 139.463684 82.846985 139.962646 83.470703 C 141.025452 84.595856 141.901123 85.533905 142.6521 86.347229 C 144.089111 87.973877 144.902405 88.911926 144.902405 88.911926 Z"/>
    <path id="Path-copy-10" fill="#73c065" fill-rule="evenodd" stroke="none" d="M 119.580566 86.222443 C 119.580566 86.222443 119.393433 84.785431 119.141418 82.659821 C 119.079102 82.096008 119.016724 81.532166 118.954346 80.908447 C 118.891968 80.282257 118.767212 79.658539 118.642456 78.969971 C 118.393005 77.657684 118.140991 76.21817 117.891541 74.843536 C 117.267822 72.029358 116.641602 69.215179 116.140137 67.0896 C 115.641174 65.026367 115.329346 63.586853 115.329346 63.586853 L 118.393005 63.087891 C 118.393005 63.087891 118.517761 64.524902 118.767212 66.650482 C 118.954346 68.840973 119.206299 71.717499 119.455811 74.656403 C 119.518188 76.093445 119.580566 77.530457 119.642883 78.907593 C 119.642883 79.593689 119.705261 80.219879 119.705261 80.8461 C 119.642883 81.469788 119.642883 82.03363 119.642883 82.594971 C 119.580566 84.785431 119.580566 86.222443 119.580566 86.222443 Z"/>
    <path id="Path-copy-9" fill="#73c065" fill-rule="evenodd" stroke="none" d="M 96.882141 71.028687 C 96.882141 71.028687 96.819763 65.150879 96.819763 59.273041 C 96.882141 57.773651 96.882141 56.271759 96.944519 54.897125 C 96.944519 54.208557 96.944519 53.519958 97.006866 52.896271 C 97.006866 52.27005 97.069244 51.64386 97.069244 51.08252 C 97.25885 48.894562 97.321228 47.39267 97.321228 47.39267 L 101.447693 48.081238 C 101.447693 48.081238 101.070953 49.455902 100.571991 51.64386 C 100.447266 52.145325 100.32251 52.771515 100.132904 53.332855 C 100.008148 53.959076 99.883423 54.582764 99.758667 55.271332 C 99.509186 56.583618 99.194855 58.023132 98.945374 59.460175 C 97.882568 65.213257 96.882141 71.028687 96.882141 71.028687 Z"/>
    <path id="Path-copy-8" fill="#73c065" fill-rule="evenodd" stroke="none" d="M 143.091858 66.463104 C 143.089355 66.463104 141.46521 66.151245 139.025269 65.64978 C 137.775391 65.400299 136.400757 65.150818 134.836487 64.901337 C 134.08551 64.776581 133.274719 64.649353 132.461365 64.524597 C 131.710449 64.399872 130.897156 64.275116 130.083801 64.212738 C 129.27301 64.088013 128.397339 64.025635 127.646362 63.900909 C 126.833069 63.838531 126.019714 63.776154 125.271301 63.713776 C 124.520325 63.713776 123.769409 63.586548 123.080811 63.586548 L 121.142334 63.586548 C 120.795532 63.569092 120.45874 63.561615 120.136902 63.561615 C 119.358521 63.561615 118.672485 63.606506 118.141052 63.648926 L 117.015869 63.648926 L 117.078247 60.522888 C 117.078247 60.522888 117.517334 60.585266 118.205933 60.647644 C 118.954346 60.712494 119.954773 60.712494 121.269592 60.961975 C 121.893311 61.024353 122.581848 61.086731 123.270447 61.211456 C 124.01886 61.336212 124.769836 61.460938 125.520752 61.585693 C 126.334106 61.775299 127.08252 61.900055 127.895874 62.087158 C 128.709167 62.274261 129.522461 62.461365 130.335815 62.648499 C 131.149109 62.838104 131.959961 63.087585 132.773254 63.274689 C 133.52417 63.461823 134.337524 63.713776 135.08844 63.900909 C 136.58783 64.337494 137.962524 64.776581 139.152527 65.150818 C 141.46521 65.964111 143.089355 66.463104 143.091858 66.463104 Z"/>
    <path id="Path-copy-7" fill="#73c065" fill-rule="evenodd" stroke="none" d="M 100.946289 47.956146 L 100.322601 43.829712 C 100.322601 43.829712 102.071472 43.702454 104.698517 43.51535 C 106.010803 43.390625 107.575073 43.328247 109.201691 43.265869 C 110.888214 43.203491 112.639587 43.141113 114.39093 43.016388 C 116.204712 43.016388 117.953552 43.016388 119.5802 42.95401 L 121.955261 42.95401 C 122.768616 42.95401 123.457153 42.95401 124.145752 43.016388 C 126.770325 43.078766 128.521667 43.141113 128.521667 43.141113 C 128.521667 43.141113 126.770325 43.328247 124.145752 43.640106 C 123.519531 43.702454 122.768616 43.829712 122.017639 43.892059 C 121.331543 44.016815 120.51825 44.141571 119.704956 44.266296 C 118.078308 44.515778 116.391785 44.830139 114.640442 45.141998 C 112.951416 45.453827 111.202545 45.765686 109.575928 46.080048 C 108.011658 46.391907 106.512268 46.703735 105.197479 47.018097 C 102.635315 47.579437 100.946289 47.956146 100.946289 47.956146 Z"/>
    <path id="Path-copy-6" fill="#c63b3d" fill-rule="evenodd" stroke="none" d="M 65.056824 32.318329 C 45.340179 32.318329 42.795441 1.120453 67.993256 1.060577 C 68.013214 1.060577 68.033173 1.060577 68.050629 1.060577 C 87.068726 1.060577 89.478729 31.699585 66.556244 32.260925 C 66.0448 32.300842 65.545837 32.318329 65.056824 32.318329 Z"/>
    <path id="Path-copy-5" fill="#e7a098" fill-rule="evenodd" stroke="none" d="M 57.677307 21.068939 C 52.173737 21.068939 51.422791 12.314575 58.490631 12.314575 C 63.867004 12.314575 64.493195 20.881836 58.113922 21.006592 C 57.926788 21.068939 57.802063 21.068939 57.677307 21.068939 Z"/>
    <path id="Path-copy-4" fill="#c63b3d" fill-rule="evenodd" stroke="none" d="M 97.383118 32.318329 C 77.668945 32.318329 75.121735 1.120453 100.322021 1.060577 C 100.339478 1.060577 100.359436 1.060577 100.379395 1.060577 C 119.397522 1.060577 121.745117 31.699585 98.882507 32.260925 C 98.373566 32.300842 97.872101 32.318329 97.383118 32.318329 Z"/>
    <path id="Path-copy-3" fill="#e7a098" fill-rule="evenodd" stroke="none" d="M 104.57373 16.877563 C 99.070129 16.877563 98.321686 8.125702 105.387054 8.125702 C 110.763428 8.125702 111.389618 16.69046 105.010345 16.877563 Z"/>
    <path id="Path-copy-2" fill="#e7a098" fill-rule="evenodd" stroke="none" d="M 79.689362 41.699036 C 59.970215 41.699036 57.365601 10.498657 82.625763 10.438782 C 82.645721 10.438782 82.663208 10.438782 82.683167 10.438782 C 101.701263 10.438782 104.048889 41.07782 81.186249 41.63916 C 80.677307 41.679077 80.178345 41.699036 79.689362 41.699036 Z"/>
    <path id="Path-copy" fill="#d1574a" fill-rule="evenodd" stroke="none" d="M 85.814667 35.636505 C 80.311066 35.636505 79.562622 26.884613 86.627991 26.884613 C 92.004364 26.884613 92.630554 35.449371 86.251282 35.636505 Z"/>
</svg>
