<?xml version="1.0" encoding="UTF-8"?>
<!-- Generated by Pixelmator Pro 2.4.5 -->
<svg width="176" height="164" viewBox="0 0 176 164" xmlns="http://www.w3.org/2000/svg" xmlns:xlink="http://www.w3.org/1999/xlink">
    <path id="Path-copy-18" fill="#245716" fill-rule="evenodd" stroke="none" d="M 26.860901 2.986572 C 24.443237 1.52243 21.893616 1.160614 19.380005 2.363342 C 7.020447 8.132751 16.196228 29.64563 23.476013 42.15863 C 21.985474 41.026886 20.581665 40.068909 19.263184 39.270416 C -3.397705 25.546753 -0.711731 59.182922 19.440308 71.387207 C 19.711365 71.551392 19.981506 71.711609 20.258545 71.865936 L 20.258545 71.865936 C -14.791138 66.3461 4.11969 93.909546 30.605408 109.949615 C 36.150452 113.30777 42.026245 116.158813 47.807922 118.097351 L 52.778992 116.718964 C 63.06543 99.733795 85.237 66.054657 74.584534 57.575623 C 74.088928 57.086884 73.585571 56.694458 73.075439 56.385498 C 67.626465 53.085541 61.291077 59.269623 55.903564 61.797119 C 63.912292 51.125885 63.455933 33.664154 56.444519 29.417938 C 52.737915 27.173218 47.204224 28.618469 40.118835 36.70282 C 41.36554 24.688385 34.850769 7.825317 26.860901 2.986572 Z"/>
    <path id="Path-copy-17" fill="#73c065" fill-rule="evenodd" stroke="none" d="M 26.991943 24.785431 C 26.991943 24.785431 27.295776 26.235931 27.742188 28.702454 C 27.997437 29.955139 28.30127 31.40564 28.67804 33.152924 C 28.797791 34.067566 29.017456 34.961853 29.198853 35.913757 C 29.381165 36.869659 29.686768 37.900177 29.892456 38.95105 C 30.878601 43.179352 32.133789 48.075867 33.423035 53.333191 C 34.058289 55.910706 34.777893 58.626892 35.358826 61.42749 C 35.638367 62.779083 35.981018 64.165527 36.284851 65.616058 L 36.695679 67.724182 L 37.002747 68.752258 L 37.012573 69.01416 L 36.999573 69.174713 L 37.121033 69.669312 C 38.076965 75.482666 39.203979 81.147003 40.136353 86.437469 C 40.572205 89.06604 40.981323 91.594177 41.30603 93.983582 C 41.631653 96.377014 41.870422 98.630188 41.960205 100.71228 C 42.150391 102.767639 42.191528 104.651917 42.161316 106.236938 C 42.156372 107.079407 42.067017 107.783142 42.040222 108.528198 C 41.988159 109.170349 41.910278 109.716003 41.833923 110.259247 C 41.794922 110.740845 41.732544 111.127502 41.631897 111.571777 C 41.59137 112.055847 41.429077 112.46283 41.403076 112.783936 C 41.25061 113.45282 41.187256 113.83551 41.187256 113.83551 L 50.655334 115.348938 C 50.655334 115.348938 50.718689 114.966248 50.772217 114.321655 C 50.798279 114.00058 50.897949 113.552307 50.937012 113.070709 C 50.976013 112.589111 51.005249 111.845581 51.030579 111.103027 C 51.033813 110.680542 51.035522 110.260559 51.037231 109.840546 C 51.102051 109.455383 51.002441 109.058228 51.00415 108.638214 C 50.971802 107.857361 50.949951 106.91449 50.867493 105.938232 C 50.727417 104.078308 50.475647 101.985626 50.076294 99.719421 C 49.638733 97.510864 49.154968 95.105957 48.605713 92.664673 C 47.998718 90.18515 47.264587 87.631958 46.50769 84.977356 C 45.056335 79.709473 43.331848 74.191895 41.830994 68.722198 L 41.647888 68.190277 L 41.550659 67.794556 L 41.540894 67.532654 L 41.134888 66.5289 L 40.463074 64.434509 C 40.02301 63.069885 39.582947 61.705292 39.10553 60.402283 C 38.223877 57.675537 37.306396 55.007965 36.37439 52.503357 C 34.48761 47.392792 32.836731 42.593475 31.318665 38.548279 C 31.011597 37.520203 30.609558 36.515503 30.326782 35.586365 C 30.045532 34.654785 29.727905 33.788757 29.470947 32.956085 C 28.995239 31.233093 28.530884 29.769562 28.137878 28.605255 C 27.432007 26.150024 26.991943 24.785431 26.991943 24.785431 Z"/>
    <path id="Path-copy-16" fill="#73c065" fill-rule="evenodd" stroke="none" d="M 51.50946 43.264648 C 51.50946 43.264648 50.588196 44.646881 49.193298 46.671997 C 48.457092 47.748627 47.647705 48.946014 46.763733 50.266632 C 45.977173 51.565399 45.117493 52.984955 44.196228 54.367157 C 43.359314 55.888092 42.499634 57.307617 41.737366 58.705322 C 41.326965 59.383057 40.952332 60.001648 40.639282 60.657532 C 40.266174 61.273682 39.990479 61.86795 39.716248 62.459778 C 38.566406 64.636597 37.829895 66.130768 37.829895 66.130768 L 41.0802 67.593903 C 41.0802 67.593903 41.633301 65.985321 42.473633 63.62439 C 42.71051 63.094208 42.922119 62.461121 43.173523 61.767883 C 43.361816 61.039856 43.674866 60.383942 43.986389 59.73053 C 44.526489 58.282471 45.201294 56.751007 45.776306 55.239868 C 46.451111 53.708405 47.189087 52.211761 47.789307 50.803528 C 48.389526 49.395264 49.075684 48.12323 49.68866 46.971985 C 50.77301 44.75882 51.50946 43.264648 51.50946 43.264648 Z"/>
    <path id="Path-copy-15" fill="#73c065" fill-rule="evenodd" stroke="none" d="M 62.557922 73.255005 C 62.557922 73.255005 61.524902 74.404541 59.955811 76.155701 C 59.172424 77.031982 58.314514 78.031555 57.320313 79.117004 C 56.385254 80.238251 55.352234 81.387787 54.296448 82.435913 C 53.203308 83.545685 52.169312 84.691254 51.149353 85.680237 C 50.093567 86.728363 49.109863 87.651794 48.302246 88.429199 C 46.649658 90.045593 45.554077 91.153839 45.554077 91.153839 L 49.218384 94.302643 C 49.218384 94.302643 50.106323 92.981079 51.426575 91.079193 C 52.08667 90.128235 52.858704 88.992462 53.668091 87.795074 C 54.477478 86.597687 55.301331 85.237305 56.185303 83.916687 C 57.031982 82.657684 57.855835 81.297302 58.541992 80.025269 C 59.289734 78.790588 60.000183 77.617493 60.598694 76.629211 C 61.73407 74.615417 62.557922 73.255005 62.557922 73.255005 Z"/>
    <path id="Path-copy-14" fill="#73c065" fill-rule="evenodd" stroke="none" d="M 14.363037 47.446167 C 14.36554 47.447662 15.807617 48.826294 17.904907 50.941864 C 18.990356 51.936066 20.24762 53.202728 21.567444 54.510681 C 22.926147 55.754547 24.330933 57.194763 25.773987 58.577332 C 31.56134 63.938171 37.307434 69.361603 37.307434 69.361603 L 39.672913 66.573608 C 39.672913 66.573608 33.252991 61.840179 26.894653 57.144043 C 25.338135 55.948761 23.784058 54.755005 22.289185 53.597046 C 20.858337 52.477905 19.488159 51.39209 18.328125 50.521118 C 15.981201 48.678772 14.36554 47.447662 14.363037 47.446167 Z"/>
    <path id="Path-copy-13" fill="#73c065" fill-rule="evenodd" stroke="none" d="M 45.97406 91.576996 C 45.97406 91.576996 44.0802 90.93869 41.151794 89.923096 C 39.726563 89.484375 38.058838 88.895416 36.265442 88.230347 C 34.534607 87.606567 32.617981 86.866882 30.762939 86.16452 C 28.846313 85.424835 26.99231 84.72641 25.236206 83.999756 C 24.358154 83.636414 23.480103 83.273071 22.666138 82.948547 C 21.887024 82.560913 21.130737 82.274658 20.477295 81.963135 C 17.695618 80.699585 15.853638 79.83667 15.853638 79.83667 C 15.853638 79.83667 17.546387 80.946045 20.104187 82.579254 C 20.744568 83.051331 21.424744 83.463257 22.166565 83.912506 L 24.512756 85.333374 C 26.218506 86.282196 27.948608 87.329926 29.676208 88.37619 C 31.480896 89.30072 33.309875 90.324158 34.953979 91.235657 C 36.657288 92.182983 38.178223 93.019867 39.549194 93.681702 C 42.256226 95.068481 44.059937 95.989075 44.059937 95.989075 L 45.97406 91.576996 Z"/>
    <path id="Path-copy-12" fill="#245716" fill-rule="evenodd" stroke="none" d="M 171.384644 90.51178 C 163.394836 85.673035 145.432434 87.712494 135.365356 94.385193 C 139.246948 84.360596 137.968872 78.790009 134.274597 76.552734 C 127.277954 72.315491 111.61908 80.01767 105.875244 92.060547 C 105.616577 86.113678 108.109924 77.602783 102.653564 74.29834 C 102.14093 73.987915 101.559937 73.723633 100.899658 73.51239 C 88.450195 68.00061 68.873718 103.251343 58.58728 120.236511 L 59.668945 125.280518 C 64.065552 129.506104 69.319336 133.395203 74.866882 136.754883 C 101.364929 152.802368 134.597473 156.817535 113.46698 128.314026 L 113.46698 128.314026 C 113.718811 128.476624 113.972168 128.63678 114.228455 128.791992 C 124.310608 134.897888 137.108398 134.661987 144.600525 131.128693 C 151.994019 127.663696 154.111328 120.936035 142.794495 114.082397 C 141.480896 113.286865 139.988953 112.49115 138.302856 111.699036 C 152.703003 112.315674 176.016418 110.478607 175.402954 96.8526 C 175.306702 94.069305 173.802307 91.975952 171.384644 90.51178 Z"/>
    <path id="Path-copy-11" fill="#73c065" fill-rule="evenodd" stroke="none" d="M 151.63678 100.271729 C 151.63678 100.271729 150.285156 100.5513 147.720703 101.02597 C 146.506836 101.217133 145.056335 101.520996 143.309021 101.897705 C 142.452087 102.055786 141.537476 102.175537 140.581543 102.35791 C 139.565552 102.500488 138.550537 102.647003 137.435547 102.813873 C 133.208984 103.380035 128.190979 104.140594 122.787842 104.836304 C 120.136475 105.170776 117.285767 105.556335 114.522461 106.075653 C 113.146606 106.256287 111.733398 106.498505 110.258606 106.70343 L 108.152893 107.115753 L 107.075256 107.221008 L 106.777039 107.296387 L 106.381287 107.393555 L 105.886658 107.515076 C 100.344116 108.719177 94.655457 109.747253 89.253052 110.864441 C 86.611511 111.460876 84.008728 111.993195 81.530151 112.604126 C 79.050598 113.21106 76.695251 113.896606 74.596924 114.569366 C 72.403625 115.265442 70.432434 116.011871 68.657654 116.712158 C 67.754272 117.09137 66.970215 117.546204 66.20166 117.84198 C 65.830261 118.038086 65.493652 118.171112 65.120789 118.36969 C 64.74939 118.565826 64.439575 118.799255 64.066711 118.997864 C 63.420349 119.364288 62.775024 119.73468 62.366272 119.992432 C 61.957581 120.250183 61.544922 120.50885 61.334045 120.718018 C 60.787598 121.064117 60.416199 121.260254 60.416199 121.260254 L 66.205688 128.986938 C 66.205688 128.986938 66.515442 128.75354 67.037598 128.308472 C 67.248474 128.099365 67.595581 127.804321 67.944153 127.506805 C 68.355347 127.250549 68.666626 127.014648 69.075317 126.756927 C 69.459717 126.400269 69.907288 126.078461 70.516296 125.773621 C 71.161682 125.403198 71.743896 124.997955 72.48822 124.603271 C 73.878845 123.842102 75.567749 123.005585 77.41571 122.18454 C 79.364075 121.336731 81.409851 120.467102 83.743347 119.684143 C 85.949646 118.827515 88.441284 118.056061 90.972595 117.224487 C 96.031372 115.562317 101.634827 113.97406 107.167908 112.090515 L 107.662537 111.968994 L 107.860352 111.92041 L 108.097046 111.807739 L 109.088745 111.566223 L 111.208923 110.990906 C 112.635132 110.588135 113.960938 110.212128 115.349854 109.870972 C 118.100891 109.088226 120.779785 108.430206 123.419861 107.836273 C 128.676208 106.54303 133.5354 105.349487 137.801025 104.301697 C 138.830078 103.998596 139.820801 103.753113 140.814026 103.509155 C 141.741638 103.228882 142.635925 103.009216 143.501953 102.691589 C 145.224915 102.215942 146.651123 101.813171 147.879517 101.458984 C 150.272156 100.711853 151.63678 100.271729 151.63678 100.271729 Z"/>
    <path id="Path-copy-10" fill="#73c065" fill-rule="evenodd" stroke="none" d="M 125.014038 87.779846 C 125.014038 87.779846 123.969543 89.087463 122.448975 91.036438 C 122.050049 91.556091 121.651123 92.075775 121.21637 92.654572 C 120.780151 93.23584 120.283813 93.777344 119.748657 94.382904 C 118.717163 95.529968 117.607056 96.801208 116.538208 98.009888 C 114.238525 100.416687 111.936401 102.822021 110.169434 104.621765 C 108.4422 106.361359 107.27301 107.596802 107.27301 107.596802 L 110.000854 109.922485 C 110.000854 109.922485 110.983765 108.577576 112.501831 106.627106 C 113.997131 104.575256 115.966858 101.88446 117.971497 99.130554 C 118.892822 97.748322 119.814148 96.366089 120.699585 95.04303 C 121.110046 94.365295 121.546265 93.783997 121.920898 93.165436 C 122.232422 92.511993 122.569702 91.955017 122.905518 91.400513 C 124.154358 89.199402 125.014038 87.779846 125.014038 87.779846 Z"/>
    <path id="Path-copy-9" fill="#73c065" fill-rule="evenodd" stroke="none" d="M 93.502258 89.209595 C 93.502258 89.209595 89.924316 94.978577 86.407959 100.784912 C 85.572571 102.303345 84.674072 103.786987 83.913269 105.18219 C 83.501343 105.862396 83.089417 106.542603 82.777893 107.196045 C 82.403259 107.814606 82.090271 108.47052 81.754456 109.025024 C 80.632813 111.299805 79.795959 112.820709 79.795959 112.820709 L 84.284119 114.609131 C 84.284119 114.609131 84.734375 113.025848 85.550415 110.565979 C 85.727173 109.996033 85.978577 109.302795 86.127075 108.634857 C 86.378479 107.94165 86.628357 107.250916 86.917114 106.496094 C 87.455688 105.050537 88.006348 103.44046 88.619629 101.871674 C 91.011475 95.552795 93.502258 89.209595 93.502258 89.209595 Z"/>
    <path id="Path-copy-8" fill="#73c065" fill-rule="evenodd" stroke="none" d="M 136.418396 121.364258 C 136.415955 121.362793 134.625 120.699219 131.914734 119.734894 C 130.530823 119.233582 129.023621 118.657654 127.329163 117.968323 C 126.512695 117.642273 125.63562 117.282898 124.757568 116.919556 C 123.941162 116.593567 123.06311 116.230225 122.222351 115.805267 C 121.346802 115.44342 120.444458 114.98114 119.628052 114.655151 C 118.787292 114.230194 117.946533 113.805237 117.169922 113.419098 C 116.428101 112.969849 115.610168 112.646301 114.929993 112.234375 L 113.015076 111.074677 C 112.662048 110.88446 112.32489 110.690369 112.006958 110.497833 C 111.238037 110.032166 110.587219 109.577393 110.087646 109.21759 L 108.976135 108.544434 L 107.167664 111.669739 C 107.167664 111.669739 107.638672 111.870819 108.356201 112.22113 C 109.134338 112.604797 110.12262 113.203308 111.570618 113.743408 C 112.22406 114.054932 112.941589 114.405273 113.696411 114.69397 C 114.510376 115.018494 115.326782 115.344543 116.14325 115.670532 C 117.060059 115.969788 117.874084 116.294342 118.789429 116.596069 C 119.704773 116.897766 120.620117 117.199524 121.535461 117.501221 C 122.452332 117.800476 123.402527 118.039124 124.317871 118.34082 C 125.171631 118.605225 126.125793 118.842896 126.979553 119.1073 C 128.721924 119.573029 130.342529 119.96167 131.741943 120.303894 C 134.513062 120.884033 136.415955 121.362793 136.418396 121.364258 Z"/>
    <path id="Path-copy-7" fill="#73c065" fill-rule="evenodd" stroke="none" d="M 83.713989 114.432739 L 80.629272 118.135864 C 80.629272 118.135864 82.280762 119.3078 84.763916 121.06427 C 85.985596 121.972534 87.49353 122.969971 89.063049 124.0047 C 90.691711 125.075256 92.38446 126.184601 94.039917 127.355591 C 95.831543 128.440613 97.559143 129.486877 99.128662 130.521606 L 101.474854 131.942505 C 102.278259 132.429047 102.958496 132.841003 103.675964 133.191284 C 106.305908 134.699829 108.073303 135.685974 108.073303 135.685974 C 108.073303 135.685974 106.4552 134.453369 104.049133 132.575195 C 103.467834 132.138947 102.802185 131.564026 102.097656 131.053162 C 101.494568 130.519501 100.765747 129.909729 100.036987 129.299927 C 98.579407 128.080383 97.10144 126.760895 95.557983 125.40509 C 94.07605 124.086609 92.535034 122.7323 91.116272 121.448669 C 89.757568 120.204773 88.463013 118.999725 87.352295 117.902649 C 85.157104 115.815308 83.713989 114.432739 83.713989 114.432739 Z"/>
    <path id="Path-copy-6" fill="#c63b3d" fill-rule="evenodd" stroke="none" d="M 38.906006 108.409729 C 19.42926 96.61438 -1.748413 125.910278 23.106995 141.043823 C 23.126709 141.055756 23.146423 141.067688 23.163696 141.078125 C 41.950378 152.455566 62.660645 123.631134 40.352844 109.363403 C 39.871521 109.018005 39.389038 108.702271 38.906006 108.409729 Z"/>
    <path id="Path-copy-5" fill="#e7a098" fill-rule="evenodd" stroke="none" d="M 24.886475 115.107483 C 19.449829 111.814972 13.470764 120.01355 20.452637 124.241882 C 25.76355 127.458252 31.507446 119.369843 25.280396 115.430267 C 25.132874 115.256714 25.009644 115.182068 24.886475 115.107483 Z"/>
    <path id="Path-copy-4" fill="#c63b3d" fill-rule="evenodd" stroke="none" d="M 70.838928 127.748657 C 51.364685 115.954834 30.18457 145.249207 55.042419 160.384277 C 55.059631 160.394714 55.079346 160.406647 55.09906 160.418579 C 73.885803 171.796021 94.534424 142.934265 72.285767 128.702332 C 71.806885 128.358459 71.32196 128.041199 70.838928 127.748657 Z"/>
    <path id="Path-copy-3" fill="#e7a098" fill-rule="evenodd" stroke="none" d="M 68.704773 147.303284 C 63.268127 144.010803 57.293091 152.208405 64.272461 156.435211 C 69.583435 159.651581 75.325806 151.565674 69.136047 147.564453 Z"/>
    <path id="Path-copy-2" fill="#e7a098" fill-rule="evenodd" stroke="none" d="M 58.972412 107.896942 C 39.493225 96.100098 18.254944 125.362671 43.171936 140.533508 C 43.19165 140.545471 43.208862 140.555908 43.228577 140.567841 C 62.01532 151.945251 82.66394 123.083496 60.415283 108.851593 C 59.936401 108.50769 59.455444 108.189484 58.972412 107.896942 Z"/>
    <path id="Path-copy" fill="#d1574a" fill-rule="evenodd" stroke="none" d="M 61.396362 117.55014 C 55.959717 114.257629 49.984619 122.455261 56.96405 126.682068 C 62.274963 129.898438 68.017334 121.8125 61.827637 117.81134 Z"/>
</svg>
