<?xml version="1.0" encoding="UTF-8"?>
<!-- Generated by Pixelmator Pro 2.4.5 -->
<svg width="177" height="164" viewBox="0 0 177 164" xmlns="http://www.w3.org/2000/svg" xmlns:xlink="http://www.w3.org/1999/xlink">
    <path id="Path-copy-18" fill="#245716" fill-rule="evenodd" stroke="none" d="M 150.139709 2.986572 C 152.557373 1.52243 155.10704 1.160614 157.620651 2.363342 C 169.980194 8.132751 160.804413 29.64563 153.524597 42.15863 C 155.015167 41.026886 156.418976 40.068909 157.737473 39.270416 C 180.398331 25.546753 177.712357 59.182922 157.560333 71.387207 C 157.289246 71.551392 157.019119 71.711609 156.742065 71.865936 L 156.742065 71.865936 C 191.791748 66.3461 172.880936 93.909546 146.395218 109.949615 C 140.850143 113.30777 134.974396 116.158813 129.192734 118.097351 L 124.221619 116.718964 C 113.935196 99.733795 91.763611 66.054657 102.416115 57.575623 C 102.91169 57.086884 103.41507 56.694458 103.925217 56.385498 C 109.374161 53.085541 115.709579 59.269623 121.097031 61.797119 C 113.088333 51.125885 113.544693 33.664154 120.556122 29.417938 C 124.262695 27.173218 129.796402 28.618469 136.881805 36.70282 C 135.635101 24.688385 142.149887 7.825317 150.139709 2.986572 Z"/>
    <path id="Path-copy-17" fill="#73c065" fill-rule="evenodd" stroke="none" d="M 150.008698 24.785431 C 150.008698 24.785431 149.704849 26.235931 149.258438 28.702454 C 149.003189 29.955139 148.699341 31.40564 148.322601 33.152924 C 148.202835 34.067566 147.98317 34.961853 147.801788 35.913757 C 147.619431 36.869659 147.313858 37.900177 147.108185 38.95105 C 146.122025 43.179352 144.866837 48.075867 143.577576 53.333191 C 142.942368 55.910706 142.222733 58.626892 141.6418 61.42749 C 141.362259 62.779083 141.019608 64.165527 140.715759 65.616058 L 140.304932 67.724182 L 139.997864 68.752258 L 139.988068 69.01416 L 140.001083 69.174713 L 139.879593 69.669312 C 138.92366 75.482666 137.796661 81.147003 136.864273 86.437469 C 136.428406 89.06604 136.019302 91.594177 135.694611 93.983582 C 135.368958 96.377014 135.130188 98.630188 135.040421 100.71228 C 134.850235 102.767639 134.809082 104.651917 134.839325 106.236938 C 134.844269 107.079407 134.93364 107.783142 134.960419 108.528198 C 135.012482 109.170349 135.090332 109.716003 135.166687 110.259247 C 135.205719 110.740845 135.268097 111.127502 135.368744 111.571777 C 135.409271 112.055847 135.571548 112.46283 135.597565 112.783936 C 135.750046 113.45282 135.813385 113.83551 135.813385 113.83551 L 126.345291 115.348938 C 126.345291 115.348938 126.281952 114.966248 126.228394 114.321655 C 126.202362 114.00058 126.102692 113.552307 126.063644 113.070709 C 126.024597 112.589111 125.995361 111.845581 125.970062 111.103027 C 125.966843 110.680542 125.965118 110.260559 125.963379 109.840546 C 125.89856 109.455383 125.998215 109.058228 125.99649 108.638214 C 126.028854 107.857361 126.050659 106.91449 126.133118 105.938232 C 126.273209 104.078308 126.524994 101.985626 126.924301 99.719421 C 127.361908 97.510864 127.845642 95.105957 128.394943 92.664673 C 129.001892 90.18515 129.736023 87.631958 130.492966 84.977356 C 131.944275 79.709473 133.668777 74.191895 135.169647 68.722198 L 135.352768 68.190277 L 135.449951 67.794556 L 135.459747 67.532654 L 135.865738 66.5289 L 136.537537 64.434509 C 136.977615 63.069885 137.417694 61.705292 137.895096 60.402283 C 138.776749 57.675537 139.694229 55.007965 140.626221 52.503357 C 142.512985 47.392792 144.163864 42.593475 145.681976 38.548279 C 145.989044 37.520203 146.391068 36.515503 146.673843 35.586365 C 146.955109 34.654785 147.272736 33.788757 147.529709 32.956085 C 148.005371 31.233093 148.469757 29.769562 148.862732 28.605255 C 149.568619 26.150024 150.008698 24.785431 150.008698 24.785431 Z"/>
    <path id="Path-copy-16" fill="#73c065" fill-rule="evenodd" stroke="none" d="M 125.491165 43.264648 C 125.491165 43.264648 126.41246 44.646881 127.807312 46.671997 C 128.543533 47.748627 129.35289 48.946014 130.236877 50.266632 C 131.023438 51.565399 131.883133 52.984955 132.804428 54.367157 C 133.641312 55.888092 134.500992 57.307617 135.26326 58.705322 C 135.673691 59.383057 136.048309 60.001648 136.361328 60.657532 C 136.734451 61.273682 137.010147 61.86795 137.284348 62.459778 C 138.43425 64.636597 139.170715 66.130768 139.170715 66.130768 L 135.920456 67.593903 C 135.920456 67.593903 135.36734 65.985321 134.526993 63.62439 C 134.2901 63.094208 134.078491 62.461121 133.827087 61.767883 C 133.638794 61.039856 133.32579 60.383942 133.014267 59.73053 C 132.474167 58.282471 131.799316 56.751007 131.22435 55.239868 C 130.5495 53.708405 129.811539 52.211761 129.211319 50.803528 C 128.611084 49.395264 127.924957 48.12323 127.311951 46.971985 C 126.227631 44.75882 125.491165 43.264648 125.491165 43.264648 Z"/>
    <path id="Path-copy-15" fill="#73c065" fill-rule="evenodd" stroke="none" d="M 114.442703 73.255005 C 114.442703 73.255005 115.475708 74.404541 117.044846 76.155701 C 117.828186 77.031982 118.686142 78.031555 119.680328 79.117004 C 120.615387 80.238251 121.648392 81.387787 122.704193 82.435913 C 123.797318 83.545685 124.831299 84.691254 125.851288 85.680237 C 126.907089 86.728363 127.890732 87.651794 128.69838 88.429199 C 130.350952 90.045593 131.446533 91.153839 131.446533 91.153839 L 127.782227 94.302643 C 127.782227 94.302643 126.894287 92.981079 125.574066 91.079193 C 124.913956 90.128235 124.141907 88.992462 123.33255 87.795074 C 122.523178 86.597687 121.69931 85.237305 120.815323 83.916687 C 119.968658 82.657684 119.144791 81.297302 118.458649 80.025269 C 117.710892 78.790588 117.000458 77.617493 116.401962 76.629211 C 115.266571 74.615417 114.442703 73.255005 114.442703 73.255005 Z"/>
    <path id="Path-copy-14" fill="#73c065" fill-rule="evenodd" stroke="none" d="M 162.637573 47.446167 C 162.635101 47.447662 161.192993 48.826294 159.095749 50.941864 C 158.0103 51.936066 156.753021 53.202728 155.433167 54.510681 C 154.074509 55.754547 152.669708 57.194763 151.226624 58.577332 C 145.439285 63.938171 139.693207 69.361603 139.693207 69.361603 L 137.327728 66.573608 C 137.327728 66.573608 143.747665 61.840179 150.105988 57.144043 C 151.662491 55.948761 153.216537 54.755005 154.711441 53.597046 C 156.142273 52.477905 157.512451 51.39209 158.672531 50.521118 C 161.01944 48.678772 162.635101 47.447662 162.637573 47.446167 Z"/>
    <path id="Path-copy-13" fill="#73c065" fill-rule="evenodd" stroke="none" d="M 131.026596 91.576996 C 131.026596 91.576996 132.920425 90.93869 135.848862 89.923096 C 137.274094 89.484375 138.941803 88.895416 140.735199 88.230347 C 142.466019 87.606567 144.382645 86.866882 146.237656 86.16452 C 148.154282 85.424835 150.008331 84.72641 151.76442 83.999756 C 152.642456 83.636414 153.520508 83.273071 154.334473 82.948547 C 155.113602 82.560913 155.869904 82.274658 156.523346 81.963135 C 159.304993 80.699585 161.147003 79.83667 161.147003 79.83667 C 161.147003 79.83667 159.454254 80.946045 156.896469 82.579254 C 156.256058 83.051331 155.575851 83.463257 154.834045 83.912506 L 152.487869 85.333374 C 150.782104 86.282196 149.052048 87.329926 147.324448 88.37619 C 145.51976 89.30072 143.690781 90.324158 142.046616 91.235657 C 140.343323 92.182983 138.822403 93.019867 137.451462 93.681702 C 134.744431 95.068481 132.940704 95.989075 132.940704 95.989075 L 131.026596 91.576996 Z"/>
    <path id="Path-copy-12" fill="#245716" fill-rule="evenodd" stroke="none" d="M 5.615988 90.51178 C 13.605816 85.673035 31.568195 87.712494 41.635262 94.385193 C 37.75367 84.360596 39.031776 78.790009 42.726021 76.552734 C 49.722672 72.315491 65.381516 80.01767 71.125359 92.060547 C 71.384018 86.113678 68.890724 77.602783 74.347076 74.29834 C 74.859688 73.987915 75.440674 73.723633 76.100945 73.51239 C 88.550438 68.00061 108.126938 103.251343 118.413345 120.236511 L 117.331711 125.280518 C 112.935104 129.506104 107.681274 133.395203 102.133736 136.754883 C 75.635696 152.802368 42.403137 156.817535 63.53363 128.314026 L 63.53363 128.314026 C 63.281807 128.476624 63.028481 128.63678 62.772179 128.791992 C 52.69001 134.897888 39.892235 134.661987 32.400112 131.128693 C 25.006611 127.663696 22.889271 120.936035 34.206142 114.082397 C 35.519707 113.286865 37.01165 112.49115 38.6978 111.699036 C 24.297623 112.315674 0.984222 110.478607 1.597679 96.8526 C 1.693943 94.069305 3.198334 91.975952 5.615984 90.51178 Z"/>
    <path id="Path-copy-11" fill="#73c065" fill-rule="evenodd" stroke="none" d="M 25.363857 100.271729 C 25.363857 100.271729 26.715446 100.5513 29.279926 101.02597 C 30.493786 101.217133 31.944302 101.520996 33.691593 101.897705 C 34.548557 102.055786 35.463181 102.175537 36.419071 102.35791 C 37.435081 102.500488 38.450123 102.647003 39.565056 102.813873 C 43.791649 103.380035 48.809639 104.140594 54.212784 104.836304 C 56.864143 105.170776 59.714851 105.556335 62.478149 106.075653 C 63.854034 106.256287 65.267242 106.498505 66.742058 106.70343 L 68.847733 107.115753 L 69.925354 107.221008 L 70.223618 107.296387 L 70.619316 107.393555 L 71.113945 107.515076 C 76.65654 108.719177 82.345169 109.747253 87.747574 110.864441 C 90.389145 111.460876 92.991913 111.993195 95.470474 112.604126 C 97.95002 113.21106 100.305359 113.896606 102.403709 114.569366 C 104.597031 115.265442 106.568192 116.011871 108.343002 116.712158 C 109.246338 117.09137 110.030411 117.546204 110.798996 117.84198 C 111.170395 118.038086 111.506943 118.171112 111.879837 118.36969 C 112.251236 118.565826 112.561035 118.799255 112.933914 118.997864 C 113.580261 119.364288 114.225632 119.73468 114.634338 119.992432 C 115.04306 120.250183 115.455719 120.50885 115.66658 120.718018 C 116.213028 121.064117 116.584427 121.260254 116.584427 121.260254 L 110.794968 128.986938 C 110.794968 128.986938 110.485168 128.75354 109.963028 128.308472 C 109.752167 128.099365 109.40506 127.804321 109.056473 127.506805 C 108.645294 127.250549 108.334015 127.014648 107.925308 126.756927 C 107.540894 126.400269 107.093369 126.078461 106.484344 125.773621 C 105.838974 125.403198 105.256714 124.997955 104.512421 124.603271 C 103.12178 123.842102 101.432892 123.005585 99.584946 122.18454 C 97.636589 121.336731 95.59079 120.467102 93.257286 119.684143 C 91.050957 118.827515 88.559372 118.056061 86.028015 117.224487 C 80.969254 115.562317 75.365776 113.97406 69.832733 112.090515 L 69.338112 111.968994 L 69.140259 111.92041 L 68.903603 111.807739 L 67.911896 111.566223 L 65.79171 110.990906 C 64.365494 110.588135 63.039696 110.212128 61.650795 109.870972 C 58.89975 109.088226 56.220871 108.430206 53.580795 107.836273 C 48.324417 106.54303 43.465233 105.349487 39.1996 104.301697 C 38.170574 103.998596 37.179836 103.753113 36.18663 103.509155 C 35.258995 103.228882 34.364716 103.009216 33.498692 102.691589 C 31.775703 102.215942 30.349487 101.813171 29.12112 101.458984 C 26.728462 100.711853 25.363857 100.271729 25.363857 100.271729 Z"/>
    <path id="Path-copy-10" fill="#73c065" fill-rule="evenodd" stroke="none" d="M 51.986595 87.779846 C 51.986595 87.779846 53.03112 89.087463 54.551651 91.036438 C 54.950569 91.556091 55.349495 92.075775 55.784233 92.654572 C 56.220467 93.23584 56.71682 93.777344 57.251976 94.382904 C 58.283485 95.529968 59.393578 96.801208 60.462402 98.009888 C 62.762077 100.416687 65.064217 102.822021 66.8312 104.621765 C 68.558403 106.361359 69.727638 107.596802 69.727638 107.596802 L 66.999771 109.922485 C 66.999771 109.922485 66.016853 108.577576 64.498787 106.627106 C 63.003525 104.575256 61.033745 101.88446 59.029114 99.130554 C 58.107811 97.748322 57.186516 96.366089 56.301033 95.04303 C 55.890594 94.365295 55.454361 93.783997 55.079735 93.165436 C 54.768219 92.511993 54.430916 91.955017 54.0951 91.400513 C 52.846283 89.199402 51.986595 87.779846 51.986595 87.779846 Z"/>
    <path id="Path-copy-9" fill="#73c065" fill-rule="evenodd" stroke="none" d="M 83.498352 89.209595 C 83.498352 89.209595 87.076332 94.978577 90.59269 100.784912 C 91.428085 102.303345 92.326576 103.786987 93.087341 105.18219 C 93.499275 105.862396 93.911209 106.542603 94.222725 107.196045 C 94.597343 107.814606 94.910355 108.47052 95.24617 109.025024 C 96.367805 111.299805 97.204689 112.820709 97.204689 112.820709 L 92.716507 114.609131 C 92.716507 114.609131 92.266266 113.025848 91.450233 110.565979 C 91.27346 109.996033 91.022064 109.302795 90.873543 108.634857 C 90.622147 107.94165 90.372246 107.250916 90.083534 106.496094 C 89.544922 105.050537 88.994263 103.44046 88.38102 101.871674 C 85.989151 95.552795 83.498352 89.209595 83.498352 89.209595 Z"/>
    <path id="Path-copy-8" fill="#73c065" fill-rule="evenodd" stroke="none" d="M 40.58223 121.364258 C 40.584694 121.362793 42.375633 120.699219 45.085884 119.734894 C 46.469833 119.233582 47.977013 118.657654 49.671494 117.968323 C 50.487923 117.642273 51.364998 117.282898 52.243042 116.919556 C 53.059471 116.593567 53.937515 116.230225 54.778252 115.805267 C 55.653831 115.44342 56.556175 114.98114 57.372604 114.655151 C 58.213341 114.230194 59.05407 113.805237 59.830727 113.419098 C 60.572533 112.969849 61.390457 112.646301 62.070656 112.234375 L 63.98555 111.074677 C 64.338562 110.88446 64.675743 110.690369 64.99366 110.497833 C 65.762573 110.032166 66.413445 109.577393 66.913002 109.21759 L 68.024483 108.544434 L 69.832985 111.669739 C 69.832985 111.669739 69.361931 111.870819 68.644417 112.22113 C 67.866272 112.604797 66.878014 113.203308 65.429985 113.743408 C 64.776558 114.054932 64.059044 114.405273 63.30423 114.69397 C 62.490257 115.018494 61.673828 115.344543 60.857391 115.670532 C 59.940544 115.969788 59.126572 116.294342 58.21122 116.596069 C 57.29586 116.897766 56.380501 117.199524 55.465141 117.501221 C 54.548294 117.800476 53.598091 118.039124 52.682732 118.34082 C 51.828987 118.605225 50.874825 118.842896 50.02108 119.1073 C 48.27874 119.573029 46.658127 119.96167 45.258698 120.303894 C 42.487572 120.884033 40.584694 121.362793 40.58223 121.364258 Z"/>
    <path id="Path-copy-7" fill="#73c065" fill-rule="evenodd" stroke="none" d="M 93.286621 114.432739 L 96.371361 118.135864 C 96.371361 118.135864 94.719879 119.3078 92.236725 121.06427 C 91.015038 121.972534 89.507126 122.969971 87.937599 124.0047 C 86.308929 125.075256 84.61618 126.184601 82.960739 127.355591 C 81.169067 128.440613 79.441467 129.486877 77.871948 130.521606 L 75.525764 131.942505 C 74.722343 132.429047 74.042152 132.841003 73.324646 133.191284 C 70.694702 134.699829 68.92733 135.685974 68.92733 135.685974 C 68.92733 135.685974 70.545448 134.453369 72.951515 132.575195 C 73.532784 132.138947 74.198471 131.564026 74.902969 131.053162 C 75.506073 130.519501 76.234863 129.909729 76.963661 129.299927 C 78.421242 128.080383 79.899178 126.760895 81.442673 125.40509 C 82.924561 124.086609 84.465591 122.7323 85.884369 121.448669 C 87.243034 120.204773 88.537621 118.999725 89.648338 117.902649 C 91.843544 115.815308 93.286621 114.432739 93.286621 114.432739 Z"/>
    <path id="Path-copy-6" fill="#c63b3d" fill-rule="evenodd" stroke="none" d="M 138.09462 108.409729 C 157.571365 96.61438 178.749023 125.910278 153.893631 141.043823 C 153.873917 141.055756 153.854202 141.067688 153.83696 141.078125 C 135.050262 152.455566 114.340012 123.631134 136.647797 109.363403 C 137.129135 109.018005 137.611572 108.702271 138.09462 108.409729 Z"/>
    <path id="Path-copy-5" fill="#e7a098" fill-rule="evenodd" stroke="none" d="M 152.114182 115.107483 C 157.550812 111.814972 163.529861 120.01355 156.548004 124.241882 C 151.237045 127.458252 145.493179 119.369843 151.720215 115.430267 C 151.867737 115.256714 151.990967 115.182068 152.114182 115.107483 Z"/>
    <path id="Path-copy-4" fill="#c63b3d" fill-rule="evenodd" stroke="none" d="M 106.161682 127.748657 C 125.635956 115.954834 146.816086 145.249207 121.958237 160.384277 C 121.940979 160.394714 121.921265 160.406647 121.90155 160.418579 C 103.114853 171.796021 82.466217 142.934265 104.714859 128.702332 C 105.193726 128.358459 105.678635 128.041199 106.161682 127.748657 Z"/>
    <path id="Path-copy-3" fill="#e7a098" fill-rule="evenodd" stroke="none" d="M 108.295837 147.303284 C 113.732483 144.010803 119.707565 152.208405 112.728165 156.435211 C 107.417221 159.651581 101.674835 151.565674 107.864563 147.564453 Z"/>
    <path id="Path-copy-2" fill="#e7a098" fill-rule="evenodd" stroke="none" d="M 118.028198 107.896942 C 137.507416 96.100098 158.745712 125.362671 133.82872 140.533508 C 133.809006 140.545471 133.791748 140.555908 133.772034 140.567841 C 114.985336 151.945251 94.3367 123.083496 116.585342 108.851593 C 117.064209 108.50769 117.545166 108.189484 118.028198 107.896942 Z"/>
    <path id="Path-copy" fill="#d1574a" fill-rule="evenodd" stroke="none" d="M 115.604279 117.55014 C 121.040909 114.257629 127.015991 122.455261 120.036591 126.682068 C 114.725647 129.898438 108.983261 121.8125 115.172989 117.81134 Z"/>
</svg>
