<?xml version="1.0" encoding="UTF-8"?>
<!-- Generated by Pixelmator Pro 2.4.5 -->
<svg width="191" height="206" viewBox="0 0 191 206" xmlns="http://www.w3.org/2000/svg" xmlns:xlink="http://www.w3.org/1999/xlink">
    <path id="Path-copy-15" fill="#c63b3d" fill-rule="evenodd" stroke="none" d="M 69.10601 3.49823 C 88.817741 6.788239 106.403915 20.009338 114.217407 39.829346 L 171.906723 185.601196 C 174.788223 192.95163 171.22551 201.238892 163.87561 204.117126 C 161.361313 205.121521 158.725769 205.350189 156.280106 204.941986 C 151.554626 204.15329 147.234085 200.918365 145.360229 196.082764 L 87.667656 50.310364 C 83.633324 40.113312 74.555435 33.296448 64.401985 31.601776 C 59.279739 30.746826 53.883438 31.193329 48.723129 33.170074 C 41.115738 36.088928 35.122482 41.874542 31.858627 49.37262 C 28.598026 56.871246 28.473595 65.147369 31.555046 72.781891 L 37.545135 87.604248 C 40.504684 94.967712 36.941975 103.254944 29.659813 106.228088 C 27.153103 107.227051 24.51593 107.465485 22.014973 107.048065 C 17.266724 106.255554 13.017723 103.092743 11.13031 98.278259 L 5.062714 83.439636 C -0.859642 68.712158 -0.679716 52.572937 5.69558 37.969208 C 11.976002 23.433197 23.650211 12.231049 38.499588 6.579742 C 48.584946 2.713959 59.118431 1.831238 69.10601 3.49823 Z"/>
    <path id="Path-copy-14" fill="#fdfbf6" fill-rule="evenodd" stroke="none" d="M 156.500305 145.419952 L 164.759308 167.211273 L 149.515839 202.81131 C 147.673447 201.29248 146.162308 199.31131 145.237671 196.820618 L 140.18161 183.435699 L 156.500305 145.419952 Z"/>
    <path id="Path-copy-13" fill="#fdfbf6" fill-rule="evenodd" stroke="none" d="M 139.204575 100.447449 L 147.389877 122.691528 L 130.923691 161.618134 L 122.738968 139.370636 L 139.204575 100.447449 Z"/>
    <path id="Path-copy-12" fill="#fdfbf6" fill-rule="evenodd" stroke="none" d="M 121.686371 56.82782 L 129.928589 78.72641 L 113.60495 116.785156 L 105.348694 94.970612 L 121.686371 56.82782 Z"/>
    <path id="Path-copy-11" fill="#fdfbf6" fill-rule="evenodd" stroke="none" d="M 101.468094 19.332428 C 105.820724 23.877319 109.541733 29.18222 112.308578 35.196808 L 96.098557 73.095062 L 87.862938 51.157227 L 101.468094 19.332428 Z"/>
    <path id="Path-copy-10" fill="#fdfbf6" fill-rule="evenodd" stroke="none" d="M 36.660625 84.778046 L 37.944901 87.67334 C 41.121613 95.07309 37.4459 103.341461 29.811924 106.255829 C 28.784515 106.589081 27.67543 106.905396 26.590065 107.058533 L 36.660625 84.778046 Z"/>
    <path id="Path-copy-9" fill="#fdfbf6" fill-rule="evenodd" stroke="none" d="M 71.835815 3.118805 C 77.172554 4.270935 82.302895 6.159058 87.062546 8.766052 L 75.42942 35.787872 C 72.168518 33.654602 68.491394 32.232605 64.627754 31.587738 C 63.037415 31.322296 61.414986 31.189087 59.776718 31.190796 L 71.835815 3.118805 Z"/>
    <path id="Path-copy-8" fill="#fdfbf6" fill-rule="evenodd" stroke="none" d="M 53.177544 2.463562 L 35.467316 43.298309 C 34.049763 45.28241 32.777721 47.375946 31.80378 49.686127 C 30.751232 51.986603 30.105183 54.354919 29.716862 56.681091 L 11.021561 99.91272 L 10.91428 99.55423 L 4.890112 84.461517 C 4.067289 82.362335 3.42145 80.204132 2.775055 78.049225 L 32.782032 8.705048 C 34.700562 7.744629 36.608513 6.867584 38.580688 6.086395 C 43.424248 4.163269 48.308647 3.016693 53.177544 2.463562 Z"/>
    <path id="Path-copy-7" fill="#ffb700" fill-rule="evenodd" stroke="none" d="M 124.360962 148.106384 C 128.722198 148.83429 131.027496 151.465454 131.027496 151.465454 C 131.027496 151.465454 119.383224 157.481201 115.557816 178.878601 C 110.681717 175.467377 109.433609 167.383392 109.433609 167.383392 L 100.318962 164.772339 C 100.318962 164.772339 107.210938 152.100067 116.624527 148.894348 C 119.667343 147.847809 122.253525 147.754639 124.360962 148.106384 Z"/>
    <path id="Path-copy-6" fill="#ffb700" fill-rule="evenodd" stroke="none" d="M 169.726334 137.792908 C 178.100815 139.190674 186.211349 145.093933 186.211349 145.093933 L 179.052551 151.353607 C 179.052551 151.353607 181.344177 159.193909 178.383316 164.395905 C 167.966782 149.556793 157.12413 146.643951 153.771088 146.08432 C 153.09462 145.971405 152.722778 145.956146 152.722778 145.956146 C 152.722778 145.956146 154.95343 138.619904 164.761673 137.576019 C 166.386261 137.415955 168.061203 137.514984 169.726334 137.792908 Z"/>
    <path id="Path-copy-5" fill="#ffb700" fill-rule="evenodd" stroke="none" d="M 113.089447 128.293976 C 122.33226 129.836639 131.16861 135.737366 139.613892 142.679321 C 140.726501 146.047394 139.517029 151.290985 139.517029 151.290985 C 137.464127 151.854248 99.025055 154.537689 89.632629 152.970032 C 88.578911 152.794159 87.892174 152.562561 87.66024 152.269775 C 85.296997 149.364899 90.990593 140.848297 90.978577 138.91748 C 90.966019 136.989929 89.160561 131.744568 102.418961 128.595581 C 106.0336 127.748077 109.590057 127.7099 113.089447 128.293976 Z"/>
    <path id="Path-copy-4" fill="#dfa30c" fill-rule="evenodd" stroke="none" d="M 116.671677 141.942291 C 129.478943 144.079895 139.517258 151.291077 139.517258 151.291077 C 124.078293 156.208832 105.245773 157.605103 94.926468 155.882751 C 86.441414 154.466553 83.717308 150.939819 93.396484 145.522034 C 101.155441 141.154327 109.363937 140.722595 116.671677 141.942291 Z"/>
    <path id="Path-copy-3" fill="#ffb700" fill-rule="evenodd" stroke="none" d="M 174.246292 108.665741 C 177.866013 109.269897 178.618896 111.768951 179.290817 112.770294 C 180.363708 114.373413 189.873795 118.140228 189.518982 121.768127 C 189.150604 125.477356 147.628906 148.87323 145.250198 149.565948 C 145.250198 149.565948 141.434433 145.830292 140.512115 142.323486 C 145.064392 128.087402 151.370514 114.899506 164.115372 110.320984 C 168.909195 108.61734 172.086807 108.305298 174.246292 108.665741 Z"/>
    <path id="Path-copy-2" fill="#dfa30c" fill-rule="evenodd" stroke="none" d="M 185.994736 119.71225 C 199.946777 122.040924 171.3853 142.451996 145.250473 149.565826 C 145.250473 149.565826 156.356812 121.177032 180.838165 119.563599 C 182.965775 119.434021 184.671082 119.491333 185.994736 119.71225 Z"/>
    <path id="Path-copy" fill="#ffb700" fill-rule="evenodd" stroke="none" d="M 145.144287 130.1138 C 145.511475 138.468628 155.086731 146.351288 155.086731 146.351288 C 155.086731 146.351288 142.027313 156.319427 127.23439 154.602539 C 128.064392 154.156067 129.996384 142.079987 127.498306 133.954498 L 127.498306 133.954498 C 128.059799 134.255463 128.691803 134.454559 129.381271 134.569641 C 134.523041 135.427826 142.616882 131.537201 145.144287 130.1138 Z"/>
</svg>
