<?xml version="1.0" encoding="UTF-8"?>
<!-- Generated by Pixelmator Pro 2.4.5 -->
<svg width="960" height="540" viewBox="0 0 960 540" xmlns="http://www.w3.org/2000/svg" xmlns:xlink="http://www.w3.org/1999/xlink">
    <path id="Path" fill="#fdfbf6" fill-rule="evenodd" stroke="none" d="M 915.597839 461.187927 C 907.491577 461.187927 906.435669 474.035309 916.785706 474.035309 C 916.829712 474.035309 916.873718 474.035309 916.91217 474.035309 C 924.787415 474.035309 925.694824 461.490417 916.235779 461.215424 C 916.015747 461.198914 915.806824 461.187927 915.597839 461.187927 Z"/>
    <path id="path1" fill="#fdfbf6" fill-rule="evenodd" stroke="none" d="M 888.171936 503.370911 C 882.001526 503.370911 881.160095 513.319946 889.216858 513.319946 C 895.282776 513.319946 895.970215 503.530396 888.66687 503.392914 C 888.496399 503.381897 888.331421 503.370911 888.171936 503.370911 Z"/>
    <path id="path2" fill="#fdfbf6" fill-rule="evenodd" stroke="none" d="M 44.29007 79.733643 C 52.305378 80.943024 55.26606 68.397247 45.032127 66.853119 C 44.988628 66.846558 44.945126 66.839966 44.907059 66.834229 C 37.120136 65.659332 34.351402 77.928162 43.663387 79.611267 C 43.878437 79.6604 44.083431 79.702454 44.29007 79.733643 Z"/>
    <path id="path3" fill="#fdfbf6" fill-rule="evenodd" stroke="none" d="M 77.701378 42.115417 C 83.802582 43.036011 86.118805 33.324097 78.152435 32.122101 C 72.154541 31.217102 70.014381 40.794312 77.215256 42.019836 C 77.382187 42.056152 77.543678 42.091644 77.701378 42.115417 Z"/>
    <path id="path4" fill="#fdfbf6" fill-rule="evenodd" stroke="none" d="M 58.101711 459.536621 C 59.005707 468.565765 59.365864 480.929993 50.340317 484.542358 C 60.269859 484.542358 65.956749 492.393799 70.469521 501.329315 C 70.469521 492.393799 69.565521 483.368256 77.690674 477.951477 L 77.690674 477.951477 C 77.481781 477.958679 77.276497 477.96228 77.074806 477.96228 C 67.970024 477.96228 62.517242 470.132477 58.101711 459.536621 Z"/>
    <path id="path5" fill="#fdfbf6" fill-rule="evenodd" stroke="none" d="M 43.136669 501.33606 C 37.794983 501.33606 37.113899 509.665955 43.914028 509.751526 C 49.006107 509.751526 49.633701 501.528625 43.553875 501.350311 C 43.41124 501.33963 43.272171 501.33606 43.136669 501.33606 Z"/>
    <path id="path6" fill="#fdfbf6" fill-rule="evenodd" stroke="none" d="M 874.313477 35.287262 C 879.490234 42.73999 887.246582 52.375458 896.455566 49.260468 C 888.905273 55.709381 889.680359 65.372925 892.052185 75.098267 C 886.248901 68.303833 881.074463 60.853821 871.378235 62.012024 L 871.378235 62.012024 C 871.541748 61.881836 871.700134 61.751251 871.853516 61.62027 C 878.776672 55.707001 877.837646 46.211914 874.313477 35.287262 Z"/>
    <path id="path7" fill="#fdfbf6" fill-rule="evenodd" stroke="none" d="M 912.840942 57.351044 C 916.902405 53.881653 922.830505 59.772888 917.715637 64.254578 C 913.843933 67.561829 908.026001 61.717224 912.532959 57.632874 C 912.63446 57.532104 912.737915 57.439056 912.840942 57.351044 Z"/>
    <path id="path8" fill="#fdfbf6" fill-rule="evenodd" stroke="none" d="M 723.006836 184.858459 C 721.839233 196.520721 721.374023 212.490662 733.031677 217.156494 C 720.206421 217.156494 712.861084 227.297607 707.032288 238.838928 C 707.032288 227.297607 708.19989 215.639954 697.705261 208.643555 L 697.705261 208.643555 C 697.975037 208.652832 698.240234 208.657471 698.500732 208.657471 C 710.260681 208.657471 717.30365 198.544281 723.006836 184.858459 Z"/>
    <path id="path9" fill="#fdfbf6" fill-rule="evenodd" stroke="none" d="M 677.832397 173.177551 C 687.038452 173.177551 688.22467 187.775177 676.487976 187.775177 C 667.62616 187.775177 666.458496 173.549683 677.185791 173.200806 C 677.404419 173.186859 677.618408 173.177551 677.832397 173.177551 Z"/>
    <path id="path10" fill="#fdfbf6" fill-rule="evenodd" stroke="none" d="M 751.64856 244.067657 C 758.617065 244.067657 759.505554 254.934448 750.634399 255.046112 C 743.991516 255.046112 743.172791 244.318848 751.104248 244.086243 C 751.290344 244.072327 751.471741 244.067657 751.64856 244.067657 Z"/>
    <path id="path11" fill="#fdfbf6" fill-rule="evenodd" stroke="none" d="M 665.272278 238.364441 C 670.687073 238.364441 671.338379 246.770386 664.59314 246.770386 C 664.555908 246.770386 664.523315 246.770386 664.486145 246.770386 C 659.452759 246.770386 658.806152 238.606323 664.942017 238.373749 C 665.05365 238.36908 665.165283 238.364441 665.272278 238.364441 Z"/>
    <path id="path12" fill="#fdfbf6" fill-rule="evenodd" stroke="none" d="M 714.517395 146.072601 C 710.468872 146.072601 705.984924 149.29187 705.062866 152.983398 C 705.062866 152.983398 702.984985 146.586487 696.259888 146.586487 C 695.566711 146.586487 694.823914 146.655304 694.029907 146.804199 C 685.56311 148.409821 695.955688 164.658325 705.383057 173.165161 C 721.391418 159.722931 722.43512 149.973846 717.981628 147.045898 C 716.942688 146.371948 715.750061 146.072601 714.517395 146.072601 Z"/>
    <path id="path13" fill="#fdfbf6" fill-rule="evenodd" stroke="none" d="M 240.699219 155.082581 C 241.985352 167.928558 242.497757 185.519409 229.656906 190.658813 C 243.783905 190.658813 251.874771 201.829224 258.295197 214.541992 C 258.295197 201.829224 257.009064 188.988403 268.568909 181.281799 L 268.568909 181.281799 C 268.271698 181.292053 267.979645 181.29718 267.692688 181.29718 C 254.739105 181.29718 246.981308 170.157532 240.699219 155.082581 Z"/>
    <path id="path14" fill="#fdfbf6" fill-rule="evenodd" stroke="none" d="M 290.458832 142.216125 C 280.318329 142.216125 279.011719 158.295349 291.939667 158.295349 C 301.700989 158.295349 302.987122 142.626038 291.171051 142.24173 C 290.930237 142.226349 290.694519 142.216125 290.458832 142.216125 Z"/>
    <path id="path15" fill="#fdfbf6" fill-rule="evenodd" stroke="none" d="M 209.150482 220.301422 C 201.47467 220.301422 200.495972 232.271179 210.267517 232.394165 C 217.584656 232.394165 218.486496 220.578125 209.75 220.321899 C 209.545029 220.306549 209.3452 220.301422 209.150482 220.301422 Z"/>
    <path id="path16" fill="#fdfbf6" fill-rule="evenodd" stroke="none" d="M 304.293732 214.019348 C 298.329346 214.019348 297.612 223.278503 305.04184 223.278503 C 305.082855 223.278503 305.118713 223.278503 305.159698 223.278503 C 310.703918 223.278503 311.416168 214.285797 304.657562 214.029602 C 304.534576 214.024475 304.411591 214.019348 304.293732 214.019348 Z"/>
    <path id="path17" fill="#fdfbf6" fill-rule="evenodd" stroke="none" d="M 259.065338 232.398468 C 255.680344 232.398468 251.93129 235.090149 251.160324 238.176636 C 251.160324 238.176636 249.422989 232.828125 243.800064 232.828125 C 243.220505 232.828125 242.599457 232.885681 241.935577 233.010132 C 234.8564 234.352631 243.545761 247.93811 251.428024 255.050781 C 264.812744 243.811615 265.685425 235.660339 261.961792 233.21225 C 261.09314 232.648743 260.095978 232.398468 259.065338 232.398468 Z"/>
</svg>
