<?xml version="1.0" encoding="UTF-8"?>
<!-- Generated by Pixelmator Pro 2.4.5 -->
<svg width="529" height="136" viewBox="0 0 529 136" xmlns="http://www.w3.org/2000/svg" xmlns:xlink="http://www.w3.org/1999/xlink">
    <path id="Path-copy-52" fill="#245716" fill-rule="evenodd" stroke="none" d="M 408.507874 65.382202 C 396.75885 61.09491 384.757813 57.526489 372.56781 54.758301 C 336.234558 46.492126 297.088654 46.160034 262.620239 61.566406 C 260.796631 62.364563 261.377411 64.765076 262.872192 65.310547 C 263.308807 65.469849 263.827484 65.470154 264.384796 65.22345 C 299.166626 49.673767 338.441467 50.829407 374.994934 59.433594 C 385.854919 62.005066 396.5755 65.250549 407.099609 69.090881 C 431.758911 78.089264 455.336975 90.352142 477.077148 104.864746 C 477.239441 104.975494 477.404541 105.059784 477.568237 105.119537 C 479.539063 105.838715 481.365845 102.932129 479.396606 101.577942 C 457.308472 86.842133 433.476563 74.493469 408.507935 65.382202 Z"/>
    <path id="Path-copy-51" fill="#73c065" fill-rule="evenodd" stroke="none" d="M 497.911133 103.252808 C 496.085876 102.586761 494.387573 102.052948 492.555115 101.641937 C 490.801453 101.259705 489.09491 100.983978 487.434509 100.807556 C 486.669373 100.786011 485.852966 100.659912 485.191284 100.59024 C 484.394287 100.646423 483.732544 100.576752 483.012512 100.657562 C 481.706482 100.69635 480.47522 100.765839 479.475403 100.916382 C 478.500305 100.98999 477.64801 101.197784 477.082581 101.335022 C 476.5448 101.396484 476.231384 101.539795 476.231384 101.539795 C 476.231384 101.539795 476.30188 101.82666 476.542603 102.343933 C 476.783325 102.861237 477.170349 103.693054 477.658936 104.472595 C 478.169922 105.435547 478.757813 106.423126 479.465515 107.543732 C 480.280823 108.614288 481.067322 109.763672 481.950134 111.119965 C 482.889343 112.321655 483.87561 113.629822 484.993042 114.814026 C 486.086914 116.072144 487.328247 117.387482 488.625977 118.548187 C 491.194641 120.952576 494.121033 123.308838 497.263428 125.317902 C 498.846924 126.411102 500.405823 127.326965 502.069275 128.19165 C 503.70813 129.13324 505.323425 129.89447 507.045227 130.608673 C 507.894958 130.963409 508.7453 131.297729 509.594238 131.607544 C 512.028931 132.495972 514.436279 133.195801 516.6828 133.696045 C 519.735229 134.294525 522.465088 134.600098 524.484009 134.735535 C 525.505371 134.76123 526.377014 134.735748 526.962952 134.777771 C 527.503784 134.717438 527.862305 134.676483 527.862305 134.676483 C 527.862305 134.676483 527.79364 134.393738 527.657532 133.825287 C 527.489624 133.334534 527.3125 132.407532 526.952026 131.50293 C 526.623291 130.52063 526.243469 129.433746 525.665771 128.19223 C 525.113831 126.870758 524.458435 125.597443 523.651428 124.268799 C 522.796265 122.8367 521.940002 121.407623 520.829773 119.968323 C 519.7677 118.632507 518.552979 117.244385 517.260437 115.824493 C 516.019104 114.509155 514.625061 113.14151 513.070374 111.969482 C 511.545166 110.7258 509.990417 109.553772 508.334167 108.434021 C 506.647217 107.388947 504.936707 106.417786 503.194397 105.524323 C 501.455139 104.631958 499.657532 103.890106 497.911133 103.252808 Z"/>
    <path id="Path-copy-50" fill="#73c065" fill-rule="evenodd" stroke="none" d="M 506.121277 73.64209 C 505.511841 73.419708 504.875671 73.204742 504.211609 73.000214 C 502.713074 72.625183 501.138733 72.222473 499.40448 72.022522 C 497.695923 71.742615 495.887024 71.512024 494.069763 71.53949 C 492.174866 71.535156 490.357605 71.562622 488.458496 71.814453 C 486.582947 71.992432 484.758545 72.274902 482.878784 72.709045 C 481.072937 73.166687 479.344849 73.656158 477.616699 74.145599 C 475.936707 74.738495 474.304871 75.434875 472.776489 76.083099 C 471.248108 76.731323 469.767883 77.483002 468.443359 78.288086 C 467.066589 78.991638 465.813721 79.826294 464.664368 80.612823 C 464.090637 81.008179 463.518005 81.400452 462.945374 81.792786 C 462.368652 82.187012 461.747864 82.47583 461.249939 82.898834 C 460.128235 83.609558 459.186829 84.296783 458.426697 84.967651 C 457.694153 85.562714 457.063232 86.10553 456.668762 86.480377 C 456.275391 86.852173 456.013123 87.100067 456.013123 87.100067 C 456.013123 87.100067 456.288696 87.286499 456.766968 87.632843 C 457.165344 87.95343 457.843445 88.458527 458.697693 88.942078 C 459.527344 89.502502 460.536255 90.04245 461.696777 90.637695 C 462.275513 90.934784 462.8573 91.232971 463.542542 91.483032 C 464.224731 91.731964 465.013428 91.933868 465.771423 92.21048 C 467.348816 92.614288 469.026611 92.968872 470.883728 93.302948 C 472.620972 93.503998 474.381775 93.631165 476.273682 93.634399 C 478.14209 93.711487 479.985901 93.611267 481.810303 93.328735 C 483.685852 93.150757 485.537903 92.79245 487.31311 92.409485 C 489.089355 92.023499 490.817505 91.534058 492.472839 91.018066 C 494.199829 90.531647 495.804016 89.911072 497.360107 89.187042 C 498.916138 88.463013 500.444519 87.814789 501.845947 87.034332 C 503.250366 86.255005 504.578979 85.447998 505.831848 84.613312 C 507.054016 83.853333 508.203369 83.066803 509.169373 82.302704 C 510.215271 81.564301 511.106567 80.769501 511.869751 80.099731 C 512.601196 79.50769 513.182068 78.8573 513.578491 78.486572 C 513.972961 78.111725 514.159363 77.836182 514.159363 77.836182 C 514.159363 77.836182 513.88385 77.64975 513.481323 77.331085 C 512.978394 77.061646 512.300354 76.556549 511.444153 76.068878 C 510.108398 75.313477 508.289185 74.433167 506.121277 73.64209 Z"/>
    <path id="Path-copy-49" fill="#73c065" fill-rule="evenodd" stroke="none" d="M 435.638672 79.924377 C 435.638672 79.924377 435.602722 80.25827 435.484924 80.816528 C 435.441772 81.405487 435.292114 82.295715 435.262329 83.31897 C 435.127991 85.334839 435.248413 88.309509 435.79718 91.522888 C 436.273132 94.709717 437.117859 98.288788 438.398865 101.858704 C 439.708618 105.349792 441.349182 108.875732 443.224426 112.229584 C 444.175842 113.868591 445.206116 115.536377 446.288635 117.051483 C 447.26886 118.611664 448.379028 120.050964 449.489258 121.490234 C 450.627136 122.853729 451.693298 124.187622 452.858826 125.475281 C 453.976257 126.659515 455.094727 127.840698 456.164001 128.921478 C 456.766235 129.398926 457.186218 129.895752 457.760803 130.449005 C 458.283081 130.900696 458.781921 131.4263 459.229492 131.847321 C 460.127808 132.69046 461.128418 133.488525 461.826965 134.172882 C 462.522461 134.85614 463.2005 135.361267 463.647034 135.785309 C 464.097656 136.207428 464.37323 136.39386 464.37323 136.39386 C 464.37323 136.39386 464.559692 136.118347 464.754395 135.584686 C 465.023804 135.081757 465.404968 134.272583 465.765686 133.284149 C 466.153992 132.21991 466.418396 131.024536 466.690002 129.574127 C 466.989258 128.047913 467.106201 126.541077 467.157593 124.752625 C 467.182373 123.036926 467.079163 121.192047 466.82428 119.29184 C 466.5448 117.468536 466.167053 115.434204 465.58136 113.499146 C 464.514465 109.577881 462.805237 105.769226 460.83075 102.207336 C 458.707642 98.591248 456.367432 95.325409 453.68396 92.538971 C 452.391418 91.11908 451.07428 89.776062 449.700745 88.587677 C 448.401062 87.422852 446.972168 86.386078 445.694885 85.404602 C 443.113831 83.514496 440.665771 82.191711 438.747314 81.319855 C 437.815247 80.804535 437.05426 80.526825 436.475525 80.229736 Z"/>
    <path id="Path-copy-48" fill="#73c065" fill-rule="evenodd" stroke="none" d="M 466.495361 43.737915 C 466.495361 43.737915 466.192139 43.627258 465.60321 43.584106 C 465.06543 43.645569 464.249084 43.51947 463.304626 43.518372 C 462.356018 43.519287 461.229309 43.537598 459.999084 43.604004 C 458.843628 43.701172 457.537598 43.73999 456.127014 43.829956 C 454.689941 43.992676 453.251709 44.158447 451.759277 44.472778 C 450.293396 44.714355 448.649353 44.973328 447.100464 45.442322 C 445.579285 45.835449 444.002747 46.380249 442.426208 46.924988 C 440.823181 47.542542 439.218994 48.163086 437.738708 48.914795 C 434.523193 50.411011 431.606689 52.273987 428.858154 54.373474 C 427.449524 55.408997 426.189514 56.498718 425.00531 57.61615 C 423.796448 58.810425 422.763794 59.983154 421.761902 61.081177 C 420.808105 62.282654 419.953613 63.437866 419.31134 64.491943 C 418.667908 65.54895 418.127991 66.557861 417.643311 67.415222 C 417.234497 68.300171 416.957886 69.058167 416.715027 69.488342 C 416.521423 70.018921 416.410767 70.322144 416.410767 70.322144 C 416.410767 70.322144 416.713989 70.4328 417.272217 70.550598 C 417.757751 70.641907 418.619202 70.870361 419.511353 71.024109 C 421.447266 71.386963 424.07782 71.484497 426.968384 71.594482 C 428.454712 71.532166 429.912354 71.548706 431.454041 71.334778 C 433.042725 71.227356 434.687866 70.965332 436.360657 70.627441 C 439.7052 69.954834 443.171631 68.721985 446.387207 67.225769 C 448.074341 66.377808 449.68573 65.502197 451.245911 64.521973 C 452.781494 63.618713 454.248413 62.432678 455.613037 61.291809 C 457.001099 60.077026 458.288818 58.911499 459.349121 57.662964 C 460.509827 56.365234 461.52002 55.009094 462.401062 53.781067 C 462.829224 53.078369 463.203247 52.524292 463.604858 51.894348 C 463.929626 51.239807 464.227783 50.658081 464.476746 49.97583 C 465.072021 48.815308 465.488037 47.675293 465.745239 46.734985 C 466.078308 45.822388 466.203308 45.009033 466.370361 44.551208 C 466.488159 43.992981 466.495361 43.737915 466.495361 43.737915 Z"/>
    <path id="Path-copy-47" fill="#73c065" fill-rule="evenodd" stroke="none" d="M 394.37439 64.866699 C 394.37439 64.866699 394.33844 65.200562 394.144836 65.731201 C 394.054626 66.213623 393.852722 67.002319 393.747131 67.997986 C 393.596375 68.891235 393.436523 70.0354 393.399536 71.313721 C 393.328735 71.978516 393.286743 72.564392 393.291748 73.256836 C 393.225098 73.919678 393.230103 74.612061 393.132751 75.349609 C 393.068115 76.703735 393.054626 78.162445 393.113892 79.647705 C 393.077942 79.981598 393.118896 80.340118 393.159851 80.698639 C 393.175049 81.137085 393.216003 81.495605 393.229309 81.929932 C 393.282471 82.7258 393.336731 83.518646 393.392944 84.315643 C 393.576172 85.932007 393.969299 87.453217 394.304138 89.124908 C 394.641968 90.797729 395.083252 92.422363 395.628052 93.998901 C 396.631592 97.378235 398.003845 100.462677 399.658813 103.478485 C 400.562073 105.014038 401.444885 106.370361 402.432251 107.675476 C 403.342712 108.955994 404.432434 110.216003 405.399353 111.341858 C 405.897034 111.870483 406.392822 112.394958 406.91925 112.844757 C 407.442688 113.293457 407.865662 113.791382 408.415649 114.167297 C 409.389709 115.038086 410.267517 115.701996 411.097168 116.262421 C 411.849915 116.798218 412.580261 117.150635 413.058594 117.496948 C 413.485718 117.738708 413.78894 117.849365 413.78894 117.849365 C 413.78894 117.849365 413.975342 117.573792 414.142395 117.115967 C 414.33606 116.585388 414.61377 115.824341 414.946777 114.911713 C 415.53595 113.061798 416.092407 110.595276 416.532104 107.742615 C 416.724854 106.263428 416.921753 104.782318 416.993591 103.173096 C 417.03479 101.638611 416.982666 99.898285 416.899902 98.232666 C 416.662659 94.871826 415.893738 91.320404 414.83905 87.836487 C 414.246155 86.156525 413.606201 84.370056 412.834045 82.710541 C 412.137634 81.078674 411.157471 79.518494 410.178345 77.955261 C 409.739014 77.276154 409.247437 76.495514 408.728149 75.790649 C 408.213013 75.083893 407.666077 74.454834 407.075134 73.720398 C 405.905457 72.434631 404.71228 71.222778 403.614258 70.220825 C 403.015076 69.744507 402.517334 69.215881 401.890503 68.815308 C 401.336365 68.441345 400.785278 68.068481 400.231201 67.694458 C 399.174133 67.051086 398.165222 66.511108 397.280212 66.102295 C 396.502869 65.643372 395.714172 65.441467 395.211243 65.172058 Z"/>
    <path id="Path-copy-46" fill="#73c065" fill-rule="evenodd" stroke="none" d="M 426.104126 26.758606 C 426.104126 26.758606 425.773254 26.723755 425.260071 26.708252 C 424.721191 26.772766 423.877197 26.722473 422.90509 26.79718 C 421.854126 26.84314 420.774475 26.967957 419.516602 27.110229 C 418.336487 27.284241 416.975159 27.47467 415.433472 27.688599 C 414.044495 27.954773 412.475159 28.244446 411.029724 28.665283 C 409.509644 29.05542 407.909607 29.4198 406.333069 29.9646 C 404.756531 30.509338 403.153503 31.126892 401.521606 31.823242 C 399.889771 32.519653 398.309143 33.320557 396.801208 34.148071 C 393.60614 35.823486 390.630188 37.840027 387.830444 40.089233 C 386.46698 41.227112 385.255066 42.420288 384.045166 43.617615 C 382.805603 44.886597 381.748352 46.13623 380.791504 47.336548 C 379.837708 48.538025 378.987427 49.691406 378.316345 50.824219 C 377.642212 51.955994 377.102295 52.964905 376.693481 53.849854 C 376.208801 54.707214 375.980347 55.568665 375.737488 55.99884 C 375.543884 56.529419 375.432129 56.835693 375.432129 56.835693 C 375.432129 56.835693 375.735352 56.946289 376.297729 57.062195 C 376.807861 57.076538 377.672363 57.306152 378.667969 57.411743 C 380.552673 57.670044 383.317383 57.644775 386.364807 57.550842 C 387.850098 57.491577 389.43988 57.381104 391.011169 57.09552 C 392.628662 56.909302 394.329102 56.495667 396.057251 56.006226 C 397.756592 55.595581 399.51239 55.030334 401.247681 54.285828 C 402.955322 53.617126 404.718323 52.796814 406.329651 51.921204 C 408.044495 50.997437 409.71228 49.967163 411.227356 48.884644 C 412.818237 47.829712 414.312866 46.567932 415.626282 45.322449 C 417.045044 44.032959 418.284607 42.763977 419.397156 41.362793 C 420.510864 39.958557 421.447205 38.578918 422.277039 37.246338 C 422.70636 36.540588 423.106873 35.913696 423.432739 35.256165 C 423.758606 34.598572 424.083313 33.944031 424.333374 33.258789 C 424.804688 31.967163 425.193054 30.902893 425.476868 29.889832 C 425.73407 28.949585 425.860168 28.133179 426.053772 27.6026 C 426.069275 27.089478 426.104126 26.758606 426.104126 26.758606 Z"/>
    <path id="Path-copy-45" fill="#73c065" fill-rule="evenodd" stroke="none" d="M 349.846497 55.682312 C 348.630676 55.238647 347.566406 54.850281 346.59845 54.668884 C 345.737 54.44043 344.920654 54.314331 344.390076 54.120667 C 343.801086 54.077576 343.546021 54.070374 343.546021 54.070374 C 343.546021 54.070374 343.538879 54.325439 343.495728 54.914368 C 343.481384 55.4245 343.434082 56.269653 343.50885 57.24176 C 343.506653 58.189209 343.63147 59.268921 343.849548 60.554443 C 343.883301 61.16803 344.070618 61.841064 344.152527 62.558105 C 344.18634 63.171692 344.267151 63.891724 344.350952 64.612915 C 344.618286 65.998901 344.811707 67.361328 345.153687 68.777954 C 345.498718 70.195679 345.940002 71.820374 346.405945 73.368103 C 346.874939 74.916962 347.550842 76.369537 348.095581 77.946075 C 348.743835 79.474457 349.467834 81.030518 350.295349 82.538391 C 351.046997 84.018646 351.902161 85.450745 352.83313 86.910522 C 353.792847 88.291443 354.751404 89.675415 355.813477 91.01123 C 357.890625 93.576385 360.126465 95.941803 362.300903 97.76944 C 364.52655 99.70163 366.630432 101.242401 368.343994 102.214691 C 369.125488 102.671661 369.931641 103.051727 370.361816 103.294586 C 370.864746 103.564026 371.167969 103.674652 371.167969 103.674652 C 371.167969 103.674652 371.278564 103.37146 371.445618 102.913635 C 371.563477 102.355347 371.841187 101.59433 372.098389 100.654022 C 372.354553 99.716766 372.515503 98.56955 372.73175 97.270721 C 372.920349 96.047729 373.009644 94.616669 373.026184 93.159088 C 373.070374 91.625671 373.036804 90.060486 372.881287 88.368317 C 372.695007 86.750824 372.384827 85.002228 372.050049 83.330505 C 371.664063 81.55426 371.099915 79.795441 370.431213 78.087799 C 369.762451 76.380157 368.990295 74.720642 368.142334 73.033478 C 367.266724 71.422119 366.239502 69.755432 365.231628 68.271057 C 364.149109 66.755981 362.932373 65.363708 361.69104 64.04834 C 360.372803 62.708374 359.176575 61.495422 357.775391 60.382813 C 356.375305 59.267212 354.994568 58.333923 353.658936 57.502991 C 352.956238 57.074768 352.298645 56.748901 351.71991 56.451843 C 351.062317 56.125977 350.455933 55.904724 349.846497 55.682312 Z"/>
    <path id="Path-copy-44" fill="#73c065" fill-rule="evenodd" stroke="none" d="M 376.418152 15.430847 C 376.418152 15.430847 376.08728 15.395996 375.574158 15.380554 C 374.98822 15.338562 374.143127 15.29126 373.167969 15.364868 C 372.223511 15.363831 371.068054 15.460999 369.706726 15.651367 C 368.448853 15.79364 367.058777 16.062866 365.592896 16.304443 C 364.148621 16.722229 362.62738 17.115356 361.078552 17.584351 C 359.502014 18.129089 357.926575 18.670837 356.294739 19.367188 C 353.106873 20.787598 350.035706 22.594177 347.110962 24.715271 C 344.108459 26.804565 341.328064 29.236023 339.003601 31.830444 C 336.602234 34.400208 334.580994 37.105286 333.02478 39.722351 C 331.464417 42.341309 330.397766 44.793457 329.732849 46.615723 C 329.399841 47.52832 329.170227 48.392822 329.004272 48.847595 C 328.885376 49.408936 328.774719 49.712097 328.774719 49.712097 C 328.774719 49.712097 329.105591 49.746948 329.66687 49.865906 C 330.177002 49.880249 331.0979 49.9552 332.04541 49.957336 C 334.013123 49.98822 336.729675 49.859497 339.687988 49.303589 C 342.6474 48.744629 345.971436 47.8927 349.235107 46.5 C 352.47113 45.183044 355.721558 43.356018 358.751709 41.190918 C 361.779968 39.021667 364.589905 36.518555 366.943115 33.845276 C 368.103821 32.547546 369.267578 31.250916 370.229675 29.791321 C 371.162964 28.410583 372.023499 27.003296 372.674072 25.691162 C 373.42926 24.327881 374.079834 23.015747 374.523499 21.799927 C 375.042969 20.611755 375.431335 19.547546 375.715088 18.534485 C 375.972351 17.594177 376.174255 16.805481 376.292053 16.247192 C 376.383301 15.761719 376.418152 15.430847 376.418152 15.430847 Z"/>
    <path id="Path-copy-43" fill="#245716" fill-rule="evenodd" stroke="none" d="M 460.91626 70.055054 C 460.640381 69.954407 460.31665 69.956543 459.968994 70.118286 C 453.358643 73.131134 446.508667 75.623657 439.809204 78.174561 C 438.485107 78.639648 438.922791 80.2836 439.950684 80.658691 C 440.226563 80.759369 440.549988 80.767456 440.890747 80.634094 C 447.692505 78.038086 454.443176 75.591766 461.053528 72.578918 C 462.261902 72.016602 461.877441 70.405823 460.91626 70.055054 Z"/>
    <path id="Path-copy-42" fill="#245716" fill-rule="evenodd" stroke="none" d="M 374.311523 57.043945 C 373.40802 56.714233 372.122742 57.684814 372.535278 58.879822 C 375.09729 66.96106 377.969727 74.897919 381.852112 82.430267 C 382.031799 82.756958 382.290466 82.961304 382.5755 83.065308 C 383.59729 83.438171 384.967163 82.508759 384.340393 81.269958 C 380.381104 73.712982 377.556824 65.879578 374.995911 57.795288 C 374.852173 57.388977 374.6026 57.150146 374.311523 57.043945 Z"/>
    <path id="Path-copy-41" fill="#245716" fill-rule="evenodd" stroke="none" d="M 377.02179 37.761108 C 376.515442 37.576355 375.902893 37.644897 375.445435 38.154785 C 370.588501 43.442932 364.909058 47.915527 359.257324 52.312378 C 358.314209 53.098572 358.868225 54.310852 359.738403 54.628418 C 360.126465 54.77002 360.578735 54.735779 360.990234 54.408386 C 366.876587 49.839478 372.611328 45.21521 377.627014 39.727356 C 378.334412 38.937561 377.807068 38.047668 377.02179 37.761108 Z"/>
    <path id="Path-copy-40" fill="#245716" fill-rule="evenodd" stroke="none" d="M 421.059265 72.422424 C 420.037476 72.049561 418.666504 72.981995 419.293274 74.220825 C 422.57666 80.325195 423.920837 87.017242 426.016968 93.55072 C 426.166687 94.034851 426.504395 94.333313 426.892517 94.474915 C 427.826355 94.815704 429.056885 94.23056 428.692566 93.063446 C 426.501282 86.320007 425.132446 79.450623 421.781555 73.060486 C 421.601868 72.733826 421.344238 72.526428 421.059265 72.422424 Z"/>
    <path id="Path-copy-39" fill="#c63b3d" fill-rule="evenodd" stroke="none" d="M 428.239197 89.693115 C 422.23584 87.502441 417.990784 96.734772 425.643555 99.527344 C 431.419556 101.63504 435.559814 92.642761 428.655151 89.862091 C 428.51593 89.800995 428.375671 89.74292 428.239197 89.693115 Z"/>
    <path id="Path-copy-38" fill="#c63b3d" fill-rule="evenodd" stroke="none" d="M 381.872253 76.820923 C 375.865845 74.62915 371.551025 83.835999 379.276611 86.655121 C 385.052612 88.762848 389.144714 79.667114 382.285156 76.98877 C 382.145935 76.927673 382.008667 76.870728 381.872253 76.820923 Z"/>
    <path id="Path-copy-37" fill="#c63b3d" fill-rule="evenodd" stroke="none" d="M 378.120667 33.516785 C 372.047546 31.300659 367.80249 40.532959 375.455261 43.325562 C 381.304016 45.459778 385.40033 36.362183 378.539612 33.686829 C 378.40155 33.622742 378.260132 33.567688 378.120667 33.516785 Z"/>
    <path id="Path-copy-36" fill="#c63b3d" fill-rule="evenodd" stroke="none" d="M 421.821533 81.067017 C 417.352356 79.436157 414.185608 86.306519 419.864197 88.464569 C 424.193909 90.044495 427.278931 83.247437 422.167725 81.21051 C 422.049744 81.157166 421.936768 81.109039 421.821533 81.067017 Z"/>
    <path id="Path-copy-35" fill="#c63b3d" fill-rule="evenodd" stroke="none" d="M 384.053284 67.285034 C 379.581055 65.653137 376.417419 72.524597 382.171753 74.710297 C 386.501465 76.290222 389.586487 69.493164 384.396423 67.42749 C 384.281494 67.375244 384.168518 67.327087 384.053284 67.285034 Z"/>
    <path id="Path-copy-34" fill="#c63b3d" fill-rule="evenodd" stroke="none" d="M 366.860962 40.777405 C 362.388733 39.145508 359.223145 46.012817 364.929382 48.095032 C 364.953674 48.103882 364.974854 48.111633 364.999146 48.120483 C 369.268188 49.678284 372.392639 42.89563 367.2052 40.916809 C 367.090271 40.864563 366.973145 40.818359 366.860962 40.777405 Z"/>
    <path id="Path-copy-33" fill="#c63b3d" fill-rule="evenodd" stroke="none" d="M 462.369995 64.85791 C 456.430298 62.690491 452.244019 71.865234 459.839966 74.719482 C 465.615906 76.827179 469.788025 67.757202 462.851501 65.05426 C 462.689209 64.981262 462.530701 64.916565 462.369995 64.85791 Z"/>
    <path id="Path-copy-32" fill="#c63b3d" fill-rule="evenodd" stroke="none" d="M 451.299377 67.542236 C 446.827148 65.910278 443.666504 72.782837 449.418945 74.964386 C 453.748657 76.544342 456.833679 69.747253 451.646667 67.682678 C 451.528687 67.629333 451.414551 67.584229 451.299377 67.542236 Z"/>
    <path id="Path-copy-31" fill="#c63b3d" fill-rule="evenodd" stroke="none" d="M 326.007935 3.048584 C 324.288757 2.421265 322.300476 2.03241 320.105591 2.200378 C 318.591614 2.33844 317.146179 2.759277 315.873962 3.411682 C 314.555542 3.964722 313.454285 4.854675 312.562988 5.649536 C 310.722076 7.389648 309.592102 9.299866 308.698639 11.042175 C 307.882111 12.809082 307.243713 14.558533 306.709869 16.256836 C 305.744568 19.608337 305.273041 22.792969 305.035004 25.808594 C 304.795013 28.820068 304.744537 31.557129 304.749329 34.142578 C 304.859406 39.26416 305.458252 43.52655 305.938324 46.457214 C 306.148102 48.000854 306.425629 49.132813 306.582214 49.880554 C 306.71228 50.70105 306.830963 51.09137 306.830963 51.09137 C 306.830963 51.09137 306.970367 50.709351 307.168152 49.922607 C 307.445862 49.16156 307.786072 47.993835 308.133453 46.571106 C 308.480835 45.148376 308.939972 43.419373 309.480988 41.466003 C 309.947296 39.481934 310.495483 37.27356 311.124756 34.833557 C 311.72937 32.47052 312.389282 29.955872 313.104553 27.289612 C 313.896729 24.64801 314.791199 21.961243 315.885498 19.433289 C 316.432617 18.169312 316.979736 16.905334 317.698975 15.875977 C 318.342346 14.818909 319.009277 13.9422 319.609558 13.474121 C 320.286743 13.03064 320.569458 12.962036 320.93103 12.92218 C 321.225037 12.888611 321.822205 12.965637 322.552917 13.2323 C 322.716675 13.292053 322.890259 13.362244 323.06366 13.442688 C 323.266418 13.6026 323.493835 13.685547 323.769348 13.872009 L 324.072571 13.982666 L 324.348083 14.169067 L 324.475098 14.301331 L 324.626648 14.356628 L 324.826416 14.515442 C 324.950378 14.646545 325.07428 14.777649 325.122437 14.881104 C 325.496155 15.278625 325.640625 15.588989 325.79834 16.333679 C 325.87915 17.053772 325.748901 18.126282 325.485596 19.318604 C 325.145386 20.486328 324.701721 21.702148 324.153442 22.969177 C 322.983398 25.469482 321.555237 27.961487 320.10968 30.27533 C 318.661011 32.588074 317.243103 34.826111 315.801636 36.883789 C 313.101013 40.979797 310.70163 44.495117 309.094238 47.007568 C 308.292053 48.264404 307.752106 49.273315 307.39859 50.006653 C 306.970367 50.709351 306.830963 51.09137 306.830963 51.09137 C 306.830963 51.09137 308.211914 50.131653 310.641785 48.434692 C 313.068665 46.736572 316.541443 44.30011 320.373779 40.878174 C 322.338623 39.269226 324.338379 37.329346 326.421082 35.162048 C 328.452576 32.890259 330.543579 30.464905 332.42041 27.449463 C 333.306641 25.962219 334.247131 24.326416 334.913208 22.50116 C 335.605835 20.603149 336.230896 18.419312 336.125671 15.883118 C 336.093201 13.373535 335.20343 10.379211 333.425354 8.180908 C 333.030029 7.607178 332.582397 7.186157 332.055969 6.736328 L 331.358521 6.04895 L 330.483765 5.386169 L 330.129395 5.170959 L 329.853821 4.984497 L 329.426697 4.742737 L 329.072327 4.527527 C 328.645203 4.285767 328.142212 4.016357 327.636292 3.74585 C 327.126709 3.494629 326.580994 3.25769 326.007935 3.048584 Z"/>
    <path id="Path-copy-30" fill="#c63b3d" fill-rule="evenodd" stroke="none" d="M 311.582458 52.223022 C 310.139252 51.69635 308.868103 51.404297 308.051727 51.278198 C 307.237305 51.156189 306.830658 51.093689 306.830658 51.093689 C 306.830658 51.093689 306.830658 51.093689 306.830658 51.093689 L 306.830658 51.093689 C 306.830658 51.093689 307.154327 51.383606 307.857025 51.811829 C 308.459259 52.289246 309.385193 53.056641 310.482117 54.061584 C 312.573547 56.116638 315.507996 59.166382 318.57135 63.039734 C 320.104553 64.976929 321.761719 67.045227 323.228271 69.391052 C 324.726624 71.659119 326.169678 74.078796 327.298218 76.644806 C 327.802002 77.862823 328.279236 79.153595 328.600769 80.390961 C 328.849487 81.601807 328.971313 82.680389 328.865662 83.675995 C 328.867615 84.621552 328.589905 85.382599 328.158691 86.084167 C 327.757019 86.714081 327.148499 87.440277 326.237793 88.052795 L 326.102539 88.17865 L 326.102539 88.17865 L 326.102539 88.17865 L 325.999084 88.226807 C 326.011475 88.221008 326.019775 88.217163 326.022827 88.218262 C 326.022827 88.218262 326.02063 88.224335 326.014221 88.23233 L 326.014221 88.23233 L 325.557617 88.495148 C 325.350647 88.591431 325.322998 88.667236 325.116089 88.763519 C 324.805725 88.907928 324.521851 88.979584 324.3396 88.998962 C 324.160339 89.01944 324.160339 89.01944 324.008728 88.964111 C 323.919617 88.972839 323.819031 88.956726 323.694702 88.911377 C 323.570374 88.866028 323.425415 88.792511 323.250732 88.687531 C 322.725403 88.234711 321.902893 87.41922 321.163391 86.376312 C 320.42804 85.331512 319.696838 84.030518 319.041443 82.757202 C 317.805298 80.241241 316.656311 77.495972 315.627136 74.883728 C 314.705505 72.221436 313.756226 69.634949 312.974915 67.284912 C 311.295532 62.453003 309.84964 58.393433 308.75293 55.495483 C 308.228638 54.098206 307.699097 52.960144 307.360199 52.23175 C 307.023224 51.507568 306.830658 51.093689 306.830658 51.093689 L 306.830658 51.093689 C 306.830658 51.093689 306.703491 52.854492 306.618134 55.922424 C 306.557434 58.913391 306.43396 63.262695 306.851379 68.493042 C 307.007782 71.133789 307.363953 73.933319 307.816376 76.939789 C 308.344635 79.973907 309.075653 83.167908 310.257324 86.529816 C 310.85022 88.209778 311.594727 89.945099 312.597351 91.68869 C 313.596924 93.431152 314.823853 95.256622 316.799683 96.922455 C 317.763123 97.662262 318.810486 98.360535 320.132446 98.842926 C 320.287048 98.899353 320.44281 98.952759 320.603821 99.00119 C 320.725891 99.052612 320.849121 99.101013 320.970398 99.145264 C 322.301453 99.630981 323.807678 99.768341 325.193787 99.641937 C 326.706665 99.506866 328.124451 99.161865 329.342407 98.658051 C 329.935547 98.445007 330.611633 98.004578 331.160706 97.686127 L 331.705688 97.369629 L 331.912598 97.273346 L 332.25177 97.05011 L 332.279419 96.974304 L 332.620483 96.755188 C 334.501282 95.376617 336.291016 93.531921 337.560364 91.239655 C 338.826721 88.946289 339.362732 86.300537 339.350708 83.970154 C 339.366394 81.563965 338.863647 79.40152 338.203247 77.435791 C 337.541687 75.473083 336.693726 73.785919 335.714661 72.222717 C 333.858826 69.051147 331.707031 66.455261 329.519287 64.193359 C 327.300842 62.006104 325.078247 60.074951 322.895508 58.505432 C 318.558838 55.287537 314.547791 53.305054 311.582458 52.223022 Z"/>
    <path id="Path-copy-29" fill="#c63b3d" fill-rule="evenodd" stroke="none" d="M 272.008484 28.051636 L 267.517242 33.043762 C 271.488251 36.557678 276.936188 40.270447 282.902557 43.739441 C 288.917084 47.311951 295.35675 50.434875 301.132721 52.542542 C 303.030762 53.235168 304.807892 53.797791 306.533844 54.255798 L 308.152985 47.700256 C 306.727203 47.351807 305.104706 46.845642 303.434052 46.235962 C 298.18869 44.321899 291.98056 41.280029 286.317383 37.921631 C 280.625427 34.64209 275.404877 31.012329 272.008484 28.051636 Z"/>
    <path id="Path-copy-28" fill="#c63b3d" fill-rule="evenodd" stroke="none" d="M 305.48465 48.877747 C 297.152771 57.549866 290.297729 69.255188 286.144806 80.400482 C 285.369232 82.525909 284.744141 84.709717 284.149719 86.818817 L 290.67868 88.510681 C 291.192047 86.633148 291.809967 84.704407 292.530243 82.73056 C 296.274292 72.470215 302.829254 61.342529 310.316864 53.571777 L 305.48465 48.877747 Z"/>
    <path id="Path-copy-27" fill="#d1574a" fill-rule="evenodd" stroke="none" d="M 309.792419 45.800903 C 301.587799 42.807007 296.985168 55.420166 305.189789 58.414063 C 313.321655 61.38147 317.924255 48.768311 309.792419 45.800903 Z"/>
    <path id="Path-copy-26" fill="#245716" fill-rule="evenodd" stroke="none" d="M 118.938629 64.720154 C 130.687714 60.433228 142.688782 56.865234 154.878784 54.097473 C 191.211975 45.832581 230.357635 45.501709 264.825287 60.908997 C 266.648865 61.707275 266.067993 64.107727 264.573212 64.653137 C 264.136597 64.812439 263.61792 64.812744 263.060638 64.565979 C 228.279572 49.01532 189.004944 50.169739 152.451538 58.772644 C 141.591522 61.34375 130.870941 64.588867 120.346802 68.428833 C 95.687378 77.426331 72.109131 89.688385 50.368713 104.200165 C 50.206421 104.310913 50.041336 104.395203 49.877609 104.454956 C 47.906799 105.174042 46.080109 102.267426 48.049393 100.9133 C 70.137817 86.178314 93.96994 73.830536 118.938629 64.720154 Z"/>
    <path id="Path-copy-25" fill="#73c065" fill-rule="evenodd" stroke="none" d="M 30.483337 103.311188 C 32.308609 102.645203 34.006912 102.11142 35.839371 101.7005 C 37.592972 101.318329 39.299561 101.042633 40.959915 100.866272 C 41.725098 100.844757 42.541443 100.718689 43.203171 100.649017 C 44.000137 100.705231 44.661865 100.63559 45.381927 100.716431 C 46.687912 100.755249 47.919205 100.824768 48.918961 100.975342 C 49.894073 101.049011 50.746368 101.256836 51.311798 101.394073 C 51.849579 101.455536 52.162979 101.598877 52.162979 101.598877 C 52.162979 101.598877 52.092422 101.885712 51.851715 102.403015 C 51.610992 102.920288 51.223923 103.752106 50.735321 104.531616 C 50.224304 105.494537 49.636383 106.482086 48.928665 107.602661 C 48.113342 108.673187 47.326782 109.82251 46.443939 111.178802 C 45.504669 112.380432 44.518372 113.688538 43.400955 114.872711 C 42.307053 116.130768 41.065689 117.446075 39.767914 118.60672 C 37.199188 121.011017 34.272766 123.367188 31.130325 125.376099 C 29.546783 126.469238 27.987885 127.385071 26.324417 128.249695 C 24.685562 129.191223 23.070236 129.952393 21.348419 130.666534 C 20.498672 131.02124 19.648361 131.35553 18.799393 131.665314 C 16.36467 132.55365 13.957336 133.253387 11.7108 133.753571 C 8.658371 134.351959 5.928528 134.65741 3.909653 134.792816 C 2.888306 134.818481 2.016647 134.792969 1.430725 134.834961 C 0.889923 134.774597 0.531403 134.733643 0.531403 134.733643 C 0.531403 134.733643 0.600021 134.450928 0.736176 133.882446 C 0.904129 133.391724 1.081253 132.464722 1.441772 131.56015 C 1.770493 130.57785 2.150391 129.490997 2.728104 128.249512 C 3.28009 126.92807 3.935532 125.654785 4.742569 124.326172 C 5.597763 122.894104 6.454056 121.465088 7.564301 120.025818 C 8.626404 118.690063 9.841217 117.302002 11.133743 115.882141 C 12.375107 114.566833 13.76918 113.19928 15.323944 112.027283 C 16.849136 110.783661 18.4039 109.611694 20.060196 108.492004 C 21.747192 107.447021 23.457703 106.475891 25.199997 105.582489 C 26.93927 104.690216 28.736893 103.948425 30.483337 103.311188 Z"/>
    <path id="Path-copy-24" fill="#73c065" fill-rule="evenodd" stroke="none" d="M 21.325577 72.983215 C 21.935013 72.760864 22.571198 72.545898 23.23526 72.341431 C 24.73381 71.966431 26.308167 71.563721 28.042404 71.363892 C 29.750916 71.084045 31.559845 70.853516 33.377045 70.880981 C 35.271988 70.876709 37.089203 70.904236 38.988266 71.156128 C 40.863831 71.334167 42.688202 71.61676 44.567902 72.050903 C 46.373734 72.508606 48.101822 72.998108 49.82991 73.48764 C 51.509872 74.080597 53.141678 74.777008 54.670029 75.425262 C 56.198395 76.073547 57.678589 76.825256 59.003052 77.630402 C 60.379791 78.333984 61.632599 79.168671 62.781952 79.955231 C 63.355682 80.350586 63.928284 80.742889 64.500885 81.135223 C 65.077637 81.529449 65.698364 81.818298 66.196289 82.241333 C 67.317963 82.952087 68.259308 83.639313 69.01944 84.310211 C 69.751923 84.905304 70.382874 85.44812 70.777344 85.822968 C 71.170685 86.194824 71.432922 86.442688 71.432922 86.442688 C 71.432922 86.442688 71.157379 86.62912 70.679047 86.975433 C 70.28067 87.296021 69.6026 87.801086 68.748291 88.284576 C 67.91864 88.844971 66.909729 89.384888 65.749176 89.980133 C 65.170441 90.277191 64.588654 90.575348 63.903442 90.825378 C 63.221222 91.07428 62.432526 91.276184 61.67453 91.552734 C 60.097137 91.956512 58.419312 92.311035 56.562256 92.64505 C 54.824982 92.846039 53.064194 92.973145 51.172287 92.976318 C 49.303894 93.053345 47.460144 92.953064 45.635757 92.670471 C 43.760208 92.492462 41.908157 92.134094 40.133026 91.751068 C 38.356796 91.365021 36.628693 90.875519 34.973373 90.359497 C 33.246384 89.873016 31.642227 89.252411 30.086227 88.52832 C 28.530212 87.80426 27.001862 87.156006 25.600494 86.375488 C 24.196075 85.5961 22.867477 84.789063 21.61467 83.954376 C 20.392548 83.194366 19.24321 82.407806 18.277252 81.643646 C 17.231354 80.905243 16.340103 80.110413 15.576935 79.440613 C 14.845551 78.848541 14.264664 78.198151 13.868286 77.827423 C 13.473831 77.452576 13.287415 77.177002 13.287415 77.177002 C 13.287415 77.177002 13.562958 76.990601 13.965469 76.671936 C 14.468414 76.402527 15.146484 75.897461 16.002701 75.409821 C 17.338425 74.65448 19.157684 73.774231 21.325577 72.983215 Z"/>
    <path id="Path-copy-23" fill="#73c065" fill-rule="evenodd" stroke="none" d="M 91.80835 79.266907 C 91.80835 79.266907 91.844299 79.600769 91.962097 80.159058 C 92.005188 80.747986 92.154816 81.638214 92.184601 82.661499 C 92.318878 84.677338 92.198303 87.651978 91.649506 90.865295 C 91.173431 94.052094 90.328583 97.631104 89.047516 101.200958 C 87.73764 104.691986 86.096924 108.217834 84.221649 111.571594 C 83.270172 113.210571 82.239868 114.878326 81.157288 116.393372 C 80.177032 117.953491 79.066803 119.392761 77.956543 120.83197 C 76.818634 122.195435 75.752411 123.529266 74.586853 124.816895 C 73.469421 126.001099 72.350891 127.18222 71.281616 128.262939 C 70.679352 128.740387 70.259399 129.237183 69.684784 129.790405 C 69.162445 130.242096 68.663666 130.76767 68.216034 131.18866 C 67.317719 132.031799 66.317078 132.829773 65.61853 133.51413 C 64.923004 134.197357 64.244934 134.702454 63.798431 135.126495 C 63.347748 135.548584 63.072205 135.735016 63.072205 135.735016 C 63.072205 135.735016 62.885773 135.459473 62.691071 134.925842 C 62.421661 134.422913 62.040527 133.613708 61.679871 132.625275 C 61.291565 131.561035 61.027191 130.365692 60.755646 128.915283 C 60.456451 127.389038 60.339569 125.882233 60.288239 124.093781 C 60.263489 122.378113 60.366821 120.533234 60.621735 118.633057 C 60.901276 116.809784 61.279053 114.775452 61.864838 112.840454 C 62.931824 108.91925 64.641174 105.110657 66.615784 101.548889 C 68.738953 97.932892 71.079254 94.667145 73.762817 91.880798 C 75.055359 90.460968 76.372528 89.118011 77.746124 87.929688 C 79.045807 86.764893 80.474731 85.72818 81.752014 84.746765 C 84.33316 82.85675 86.781189 81.534058 88.699707 80.662262 C 89.631744 80.146973 90.392761 79.869293 90.971527 79.572235 Z"/>
    <path id="Path-copy-22" fill="#73c065" fill-rule="evenodd" stroke="none" d="M 60.951538 43.079163 C 60.951538 43.079163 61.25473 42.968506 61.843689 42.925415 C 62.38147 42.986877 63.197815 42.860779 64.142242 42.859802 C 65.09082 42.860657 66.21756 42.879028 67.447723 42.945496 C 68.60321 43.042664 69.90921 43.081543 71.319763 43.171509 C 72.756866 43.33429 74.195068 43.500122 75.687469 43.814514 C 77.153351 44.056091 78.797363 44.315186 80.346191 44.78418 C 81.867371 45.177429 83.443878 45.722229 85.020355 46.267029 C 86.623413 46.884583 88.22757 47.505249 89.707764 48.256958 C 92.923248 49.753235 95.839661 51.616333 98.588135 53.715881 C 99.996674 54.751465 101.256653 55.841187 102.440826 56.958618 C 103.649628 58.152954 104.68219 59.325684 105.684082 60.423706 C 106.637848 61.625244 107.492249 62.780518 108.134521 63.834534 C 108.777893 64.891602 109.31781 65.900513 109.802399 66.757874 C 110.211212 67.642822 110.487762 68.400818 110.730621 68.830994 C 110.924225 69.361633 111.034851 69.664795 111.034851 69.664795 C 111.034851 69.664795 110.731659 69.775452 110.173401 69.89325 C 109.687897 69.984497 108.826447 70.212952 107.934296 70.366699 C 105.998383 70.729492 103.367859 70.826904 100.477295 70.936768 C 98.990967 70.874451 97.533356 70.89093 95.991699 70.676941 C 94.403015 70.569519 92.757874 70.307373 91.085114 69.969482 C 87.740631 69.296753 84.274261 68.063782 81.058777 66.567505 C 79.371643 65.719482 77.760315 64.843811 76.200195 63.863586 C 74.664673 62.960266 73.197754 61.774231 71.833221 60.633301 C 70.44516 59.418457 69.157532 58.252869 68.09729 57.004395 C 66.936615 55.706604 65.926453 54.350464 65.045502 53.122375 C 64.61731 52.419739 64.243347 51.865601 63.841736 51.235657 C 63.516998 50.581116 63.218842 49.999329 62.96991 49.317139 C 62.374695 48.156616 61.95871 47.016602 61.701538 46.076294 C 61.36853 45.163635 61.243561 44.350342 61.076508 43.892456 C 60.95871 43.334229 60.951538 43.079163 60.951538 43.079163 Z"/>
    <path id="Path-copy-21" fill="#73c065" fill-rule="evenodd" stroke="none" d="M 133.072632 64.209229 C 133.072632 64.209229 133.108582 64.543091 133.302185 65.07373 C 133.392334 65.556152 133.594208 66.344849 133.699799 67.340454 C 133.850494 68.233765 134.010315 69.37793 134.047272 70.65625 C 134.118042 71.320984 134.160034 71.906921 134.154999 72.599304 C 134.221619 73.262146 134.216583 73.954559 134.313904 74.692078 C 134.37854 76.046204 134.391998 77.504883 134.332672 78.990143 C 134.368591 79.324036 134.327637 79.682556 134.286652 80.041077 C 134.271423 80.479523 134.230438 80.838043 134.217133 81.272339 C 134.16394 82.068237 134.10968 82.861053 134.053467 83.65802 C 133.870209 85.274384 133.47699 86.795563 133.14212 88.467224 C 132.80423 90.140015 132.362854 91.764648 131.818054 93.341156 C 130.814423 96.720428 129.442078 99.80481 127.787018 102.820526 C 126.883698 104.356049 126.000854 105.712311 125.013458 107.017395 C 124.102936 108.297852 123.013184 109.557861 122.046265 110.683685 C 121.548553 111.21228 121.052795 111.736755 120.526337 112.186493 C 120.002899 112.635162 119.579895 113.133087 119.029907 113.508972 C 118.055817 114.37973 117.178009 115.043579 116.348328 115.604004 C 115.595581 116.139771 114.865234 116.492126 114.386902 116.83844 C 113.959747 117.0802 113.656555 117.190826 113.656555 117.190826 C 113.656555 117.190826 113.470123 116.915283 113.30307 116.457458 C 113.109467 115.926849 112.831787 115.165802 112.49881 114.253174 C 111.909698 112.403259 111.353333 109.936768 110.913696 107.084076 C 110.721008 105.604889 110.524139 104.123779 110.452362 102.514587 C 110.411255 100.980103 110.463409 99.239807 110.546234 97.574188 C 110.783569 94.213409 111.552612 90.662018 112.607422 87.178192 C 113.200378 85.49823 113.840363 83.711792 114.612579 82.052307 C 115.30899 80.420502 116.289215 78.860352 117.268372 77.29718 C 117.707703 76.618103 118.199341 75.837463 118.718628 75.132629 C 119.233795 74.425873 119.780731 73.796844 120.371704 73.062439 C 121.541382 71.776733 122.734619 70.56488 123.832642 69.562988 C 124.431885 69.08667 124.929596 68.558105 125.556488 68.157593 C 126.110596 67.78363 126.661682 67.410767 127.21582 67.036804 C 128.272888 66.393433 129.281799 65.853516 130.166779 65.444702 C 130.944153 64.98584 131.732849 64.783936 132.235809 64.514526 Z"/>
    <path id="Path-copy-20" fill="#73c065" fill-rule="evenodd" stroke="none" d="M 101.342773 26.099854 C 101.342773 26.099854 101.673645 26.065063 102.186798 26.049622 C 102.725677 26.114075 103.569672 26.063843 104.541779 26.138611 C 105.592712 26.18457 106.672394 26.309448 107.930237 26.451721 C 109.110352 26.625793 110.471649 26.816223 112.013306 27.030212 C 113.402283 27.296448 114.971588 27.586182 116.416962 28.00708 C 117.937042 28.397217 119.537048 28.761658 121.113556 29.306519 C 122.690033 29.851318 124.293091 30.468872 125.924896 31.165283 C 127.556702 31.861694 129.137329 32.66272 130.645203 33.490234 C 133.840179 35.165771 136.816071 37.182373 139.615692 39.431641 C 140.979126 40.569519 142.190979 41.762756 143.400879 42.960144 C 144.640381 44.229126 145.697571 45.47876 146.654358 46.679138 C 147.608093 47.880676 148.458374 49.033997 149.129395 50.16687 C 149.803467 51.298645 150.343384 52.307556 150.752167 53.192566 C 151.236786 54.049866 151.46521 54.911316 151.708069 55.341492 C 151.901672 55.872131 152.013397 56.178345 152.013397 56.178345 C 152.013397 56.178345 151.710205 56.289001 151.147797 56.404846 C 150.637665 56.419189 149.773193 56.648743 148.777557 56.754333 C 146.892853 57.012573 144.128174 56.987183 141.08078 56.893127 C 139.59552 56.833862 138.005707 56.723328 136.434479 56.437744 C 134.817017 56.251404 133.116577 55.837708 131.388458 55.348206 C 129.689148 54.937561 127.93338 54.372253 126.19812 53.627686 C 124.490509 52.958984 122.7276 52.138611 121.116272 51.262939 C 119.401489 50.339111 117.733734 49.308838 116.218689 48.226196 C 114.627869 47.171265 113.133301 45.909424 111.819946 44.66394 C 110.401184 43.374451 109.161713 42.105408 108.049194 40.704163 C 106.935547 39.299927 105.999268 37.920227 105.169464 36.587646 C 104.740173 35.881897 104.339661 35.255005 104.013855 34.597473 C 103.688019 33.93988 103.363312 33.285339 103.113281 32.600098 C 102.641998 31.308472 102.253693 30.244202 101.96994 29.23114 C 101.712738 28.290833 101.58667 27.474487 101.393066 26.943909 C 101.377625 26.430725 101.342773 26.099854 101.342773 26.099854 Z"/>
    <path id="Path-copy-19" fill="#73c065" fill-rule="evenodd" stroke="none" d="M 177.600494 55.024597 C 178.816345 54.580994 179.880585 54.192688 180.848541 54.011292 C 181.709991 53.782837 182.526337 53.656799 183.056946 53.463196 C 183.645905 53.420044 183.90097 53.412903 183.90097 53.412903 C 183.90097 53.412903 183.908142 53.667969 183.951233 54.256897 C 183.965576 54.767029 184.012817 55.612122 183.938049 56.584229 C 183.940186 57.531677 183.815369 58.611389 183.59726 59.896912 C 183.563477 60.510498 183.376129 61.183472 183.294189 61.900513 C 183.260406 62.514099 183.179565 63.234192 183.095703 63.955322 C 182.828339 65.341248 182.634888 66.703674 182.292847 68.1203 C 181.947784 69.538025 181.506409 71.162659 181.040436 72.710388 C 180.571442 74.259216 179.895508 75.711761 179.350677 77.288269 C 178.702423 78.81662 177.978333 80.37262 177.150818 81.880493 C 176.399078 83.360687 175.543884 84.792755 174.612915 86.252472 C 173.653168 87.633362 172.694519 89.017303 171.632416 90.353058 C 169.555237 92.918152 167.319305 95.283447 165.144806 97.111023 C 162.919159 99.043121 160.815216 100.583801 159.101685 101.55603 C 158.32016 102.01297 157.514008 102.393005 157.083832 102.635864 C 156.580902 102.905273 156.277679 103.0159 156.277679 103.0159 C 156.277679 103.0159 156.167053 102.712708 156 102.254852 C 155.882202 101.696594 155.604523 100.935547 155.347321 99.99527 C 155.091248 99.058014 154.930328 97.910797 154.714111 96.611969 C 154.525543 95.388977 154.436279 93.957947 154.4198 92.500336 C 154.375671 90.966949 154.409271 89.401764 154.56485 87.709625 C 154.75116 86.092163 155.061401 84.343567 155.396271 82.671906 C 155.782318 80.89566 156.346497 79.136871 157.015259 77.42926 C 157.684021 75.721649 158.456238 74.062195 159.30423 72.375061 C 160.179901 70.763733 161.207184 69.097107 162.215088 67.612732 C 163.297668 66.097717 164.514404 64.705505 165.755768 63.390198 C 167.074036 62.050293 168.270294 60.837341 169.671539 59.724854 C 171.071655 58.609314 172.452423 57.676025 173.788055 56.845154 C 174.490753 56.416931 175.148315 56.091125 175.727081 55.794067 C 176.384644 55.468262 176.991058 55.247009 177.600494 55.024597 Z"/>
    <path id="Path-copy-18" fill="#73c065" fill-rule="evenodd" stroke="none" d="M 151.028748 14.772278 C 151.028748 14.772278 151.359589 14.737488 151.872742 14.721985 C 152.458649 14.679993 153.303772 14.632751 154.2789 14.706421 C 155.223328 14.705383 156.378815 14.802551 157.740143 14.993042 C 158.997986 15.135315 160.388031 15.404602 161.853912 15.646179 C 163.298157 16.064026 164.819336 16.457214 166.368195 16.92627 C 167.944672 17.471069 169.520081 18.012817 171.151886 18.709229 C 174.339691 20.129761 177.410736 21.936401 180.335419 24.057556 C 183.33786 26.146973 186.118103 28.578491 188.442474 31.172974 C 190.843719 33.742798 192.864868 36.447876 194.421021 39.064941 C 195.981293 41.68396 197.047791 44.136108 197.712677 45.958374 C 198.045685 46.871033 198.275238 47.735535 198.441162 48.190308 C 198.560089 48.751587 198.670715 49.05481 198.670715 49.05481 C 198.670715 49.05481 198.339844 49.089661 197.778564 49.208557 C 197.268433 49.2229 196.347534 49.297791 195.400055 49.299927 C 193.432343 49.33075 190.71582 49.201904 187.757538 48.645935 C 184.798157 48.086914 181.474182 47.234863 178.210571 45.842041 C 174.974609 44.525024 171.724304 42.697876 168.694214 40.532715 C 165.666077 38.363403 162.856232 35.860168 160.503113 33.18689 C 159.342468 31.889099 158.178772 30.592407 157.216736 29.132813 C 156.283478 27.752075 155.423004 26.344788 154.772461 25.032654 C 154.017334 23.669373 153.366791 22.357239 152.923187 21.141357 C 152.403748 19.953186 152.015442 18.888977 151.731689 17.875916 C 151.474487 16.935608 151.272614 16.146912 151.154816 15.588623 C 151.063568 15.103149 151.028748 14.772278 151.028748 14.772278 Z"/>
    <path id="Path-copy-17" fill="#245716" fill-rule="evenodd" stroke="none" d="M 66.530701 69.397034 C 66.80661 69.296326 67.130341 69.298462 67.477966 69.460205 C 74.088165 72.473267 80.937988 74.966003 87.637299 77.51709 C 88.961395 77.982208 88.523651 79.62616 87.495789 80.00119 C 87.219879 80.101868 86.896423 80.109924 86.555756 79.976563 C 79.754059 77.380371 73.003571 74.933868 66.393372 71.920776 C 65.184967 71.358521 65.56955 69.747681 66.530701 69.397034 Z"/>
    <path id="Path-copy-16" fill="#245716" fill-rule="evenodd" stroke="none" d="M 153.135498 56.386414 C 154.039032 56.056763 155.324249 57.027344 154.911652 58.222351 C 152.349396 66.303467 149.476746 74.240112 145.594177 81.772278 C 145.414459 82.098969 145.155762 82.303284 144.870758 82.407288 C 143.848969 82.780121 142.479126 81.850677 143.105927 80.611877 C 147.06543 73.055115 149.889923 65.221863 152.45108 57.137756 C 152.594849 56.731445 152.844421 56.492615 153.135498 56.386414 Z"/>
    <path id="Path-copy-15" fill="#245716" fill-rule="evenodd" stroke="none" d="M 150.425201 37.103271 C 150.931549 36.918518 151.544067 36.987061 152.001556 37.496948 C 156.858276 42.785217 162.537476 47.257996 168.189056 51.654968 C 169.132141 52.441162 168.578094 53.653442 167.707916 53.970947 C 167.319824 54.112549 166.867554 54.078308 166.456055 53.750854 C 160.569916 49.181824 154.835388 44.557434 149.819885 39.069458 C 149.112549 38.279663 149.639923 37.389771 150.425201 37.103271 Z"/>
    <path id="Path-copy-14" fill="#245716" fill-rule="evenodd" stroke="none" d="M 106.387787 71.764893 C 107.409576 71.392029 108.780487 72.324524 108.153687 73.563293 C 104.870117 79.667542 103.525726 86.359467 101.429443 92.892853 C 101.279694 93.376953 100.941925 93.675415 100.553833 93.817017 C 99.619965 94.157745 98.389496 93.572571 98.753876 92.405487 C 100.945343 85.66217 102.314362 78.792908 105.665466 72.402893 C 105.845154 72.076233 106.102753 71.868896 106.387787 71.764893 Z"/>
    <path id="Path-copy-13" fill="#c63b3d" fill-rule="evenodd" stroke="none" d="M 99.207794 89.0354 C 105.211182 86.84494 109.455933 96.077332 101.803101 98.869629 C 96.0271 100.977112 91.887146 91.984802 98.79187 89.204346 C 98.931061 89.14325 99.07135 89.085205 99.207794 89.0354 Z"/>
    <path id="Path-copy-12" fill="#c63b3d" fill-rule="evenodd" stroke="none" d="M 145.574738 76.163208 C 151.581177 73.971649 155.89563 83.178558 148.170044 85.997437 C 142.394043 88.104919 138.302246 79.009155 145.161865 76.331055 C 145.301025 76.269958 145.438293 76.213013 145.574738 76.163208 Z"/>
    <path id="Path-copy-11" fill="#c63b3d" fill-rule="evenodd" stroke="none" d="M 149.326324 32.85907 C 155.399475 30.643188 159.644196 39.875549 151.991364 42.667847 C 146.142609 44.80188 142.046661 35.704163 148.907379 33.029114 C 149.045441 32.964966 149.186859 32.909973 149.326324 32.85907 Z"/>
    <path id="Path-copy-10" fill="#c63b3d" fill-rule="evenodd" stroke="none" d="M 105.625488 80.409363 C 110.094666 78.778656 113.261139 85.649048 107.58252 87.806915 C 103.252808 89.386719 100.16803 82.589569 105.279297 80.552856 C 105.397247 80.499481 105.510254 80.451385 105.625488 80.409363 Z"/>
    <path id="Path-copy-9" fill="#c63b3d" fill-rule="evenodd" stroke="none" d="M 143.393707 66.62738 C 147.865936 64.995605 151.029388 71.867126 145.274963 74.052612 C 140.945251 75.632416 137.860474 68.835266 143.050568 66.769775 C 143.165497 66.717529 143.278503 66.669434 143.393707 66.62738 Z"/>
    <path id="Path-copy-8" fill="#c63b3d" fill-rule="evenodd" stroke="none" d="M 160.586029 40.119751 C 165.058258 38.487976 168.223633 45.355347 162.517365 47.437378 C 162.493103 47.446228 162.471893 47.453979 162.447632 47.46283 C 158.178528 49.020508 155.054352 42.237732 160.241791 40.259094 C 160.35672 40.206909 160.473846 40.160706 160.586029 40.119751 Z"/>
    <path id="Path-copy-7" fill="#c63b3d" fill-rule="evenodd" stroke="none" d="M 65.076996 64.200195 C 71.016724 62.032959 75.202667 71.207764 67.60672 74.061768 C 61.830719 76.169281 57.658966 67.099243 64.59549 64.396484 C 64.757813 64.323547 64.91629 64.25885 65.076996 64.200195 Z"/>
    <path id="Path-copy-6" fill="#c63b3d" fill-rule="evenodd" stroke="none" d="M 76.147644 66.884521 C 80.619873 65.252747 83.780273 72.125366 78.027802 74.306732 C 73.698059 75.886536 70.613312 69.089417 75.800354 67.025024 C 75.918304 66.97168 76.03241 66.926575 76.147644 66.884521 Z"/>
    <path id="Path-copy-5" fill="#c63b3d" fill-rule="evenodd" stroke="none" d="M 201.439056 2.390625 C 203.158203 1.763367 205.146484 1.374573 207.341339 1.542603 C 208.855347 1.680786 210.30072 2.101624 211.572906 2.754028 C 212.891327 3.307129 213.992523 4.197144 214.883789 4.992004 C 216.72464 6.732178 217.854523 8.642395 218.747925 10.384705 C 219.564423 12.151672 220.202759 13.901123 220.736511 15.599426 C 221.701721 18.950928 222.173126 22.135559 222.411072 25.151184 C 222.65094 28.162598 222.701355 30.899658 222.696472 33.485046 C 222.586243 38.606628 221.987274 42.868958 221.50708 45.799622 C 221.297272 47.343201 221.019714 48.475159 220.863098 49.2229 C 220.733002 50.043396 220.614319 50.433716 220.614319 50.433716 C 220.614319 50.433716 220.474915 50.051636 220.277161 49.264893 C 219.999481 48.503845 219.659332 47.336182 219.311981 45.913391 C 218.96463 44.490662 218.505554 42.761658 217.96463 40.808289 C 217.498383 38.824219 216.950256 36.615845 216.321106 34.175842 C 215.716553 31.812805 215.056702 29.298157 214.341553 26.631897 C 213.549469 23.990295 212.65506 21.303528 211.560883 18.775574 C 211.013794 17.511597 210.466705 16.24762 209.747559 15.218201 C 209.104187 14.161133 208.437286 13.284424 207.837036 12.816284 C 207.159851 12.372803 206.877136 12.304199 206.515594 12.264343 C 206.221619 12.230713 205.62442 12.307739 204.893707 12.574402 C 204.72998 12.634094 204.556335 12.704346 204.382965 12.78479 C 204.180206 12.944641 203.952789 13.027649 203.677246 13.21405 L 203.374054 13.324707 L 203.098511 13.511108 L 202.971527 13.643372 L 202.819916 13.698669 L 202.620178 13.857422 C 202.496246 13.988525 202.372284 14.11969 202.324158 14.223145 C 201.950409 14.620605 201.805969 14.930969 201.648224 15.675659 C 201.567383 16.395752 201.697601 17.468262 201.960876 18.660583 C 202.301025 19.828247 202.744659 21.044128 203.292847 22.311157 C 204.46283 24.811462 205.890869 27.303467 207.336395 29.617371 C 208.784943 31.930115 210.202789 34.168213 211.644165 36.225891 C 214.344635 40.32196 216.743866 43.837341 218.351196 46.349854 C 219.153351 47.606689 219.693268 48.615601 220.046722 49.348999 C 220.474915 50.051636 220.614319 50.433716 220.614319 50.433716 C 220.614319 50.433716 219.233429 49.473938 216.803589 47.776917 C 214.376831 46.078735 210.904144 43.642151 207.07193 40.220154 C 205.107117 38.611084 203.107483 36.671204 201.024902 34.503845 C 198.993469 32.231995 196.902588 29.80658 195.025848 26.791138 C 194.139618 25.303894 193.199188 23.668091 192.533203 21.842773 C 191.840668 19.944763 191.215637 17.760925 191.320984 15.224792 C 191.353516 12.715149 192.243408 9.720947 194.021515 7.522705 C 194.41687 6.948975 194.864502 6.527954 195.390961 6.078186 L 196.088409 5.390808 L 196.963196 4.728088 L 197.317566 4.512878 L 197.593109 4.326477 L 198.020233 4.084717 L 198.374634 3.869507 C 198.801758 3.627747 199.304718 3.358337 199.810699 3.08783 C 200.320282 2.83667 200.865997 2.599731 201.439056 2.390625 Z"/>
    <path id="Path-copy-4" fill="#c63b3d" fill-rule="evenodd" stroke="none" d="M 215.864532 51.565369 C 217.30777 51.038757 218.578918 50.746765 219.395264 50.620667 C 220.209686 50.498718 220.616364 50.436218 220.616364 50.436218 C 220.616364 50.436218 220.616364 50.436218 220.616364 50.436218 L 220.616364 50.436218 C 220.616364 50.436218 220.292664 50.726135 219.589966 51.154297 C 218.987701 51.631714 218.061768 52.399048 216.964813 53.403931 C 214.873322 55.458923 211.938812 58.508545 208.875336 62.381775 C 207.342102 64.318909 205.684906 66.387146 204.218292 68.73291 C 202.719849 71.000916 201.276733 73.420532 200.148163 75.986481 C 199.644318 77.204468 199.167023 78.495209 198.845459 79.732574 C 198.59668 80.943359 198.474884 82.021942 198.580475 83.017548 C 198.578461 83.963104 198.85614 84.724152 199.287354 85.42572 C 199.688995 86.055634 200.297516 86.78186 201.20816 87.394409 L 201.343414 87.520264 L 201.343414 87.520264 L 201.343414 87.520264 L 201.446869 87.56842 C 201.434448 87.562622 201.426178 87.558777 201.423157 87.559875 C 201.423157 87.559875 201.425354 87.565948 201.431702 87.573944 L 201.431702 87.573944 L 201.888367 87.836792 C 202.095276 87.933075 202.122925 88.008881 202.329865 88.105164 C 202.640228 88.249573 202.924042 88.321259 203.106354 88.340637 C 203.285614 88.361115 203.285614 88.361115 203.437195 88.305786 C 203.526276 88.314514 203.626892 88.298431 203.751221 88.253052 C 203.875519 88.207703 204.020508 88.134186 204.195221 88.029236 C 204.720551 87.576416 205.54306 86.760956 206.282593 85.718109 C 207.017975 84.67334 207.749207 83.372375 208.404663 82.099091 C 209.640839 79.583191 210.789917 76.837952 211.819183 74.2258 C 212.740875 71.563538 213.690216 68.977112 214.471588 66.627136 C 216.151154 61.795288 217.597168 57.73584 218.693939 54.837891 C 219.218292 53.440674 219.747864 52.302612 220.086792 51.57428 C 220.423767 50.850098 220.616364 50.436218 220.616364 50.436218 L 220.616364 50.436218 C 220.616364 50.436218 220.743469 52.197021 220.828705 55.264893 C 220.889313 58.255859 221.012634 62.605103 220.595062 67.835388 C 220.438568 70.476135 220.082336 73.275635 219.629791 76.282074 C 219.101471 79.316162 218.370361 82.510101 217.188568 85.871948 C 216.595612 87.55188 215.851074 89.28717 214.848419 91.030701 C 213.848816 92.773132 212.621796 94.598541 210.645935 96.264282 C 209.682465 97.004089 208.635101 97.702301 207.313141 98.184662 C 207.158508 98.241089 207.002777 98.294464 206.841766 98.342896 C 206.719666 98.394318 206.596466 98.442719 206.475189 98.486969 C 205.144135 98.972626 203.637878 99.109924 202.251831 98.98349 C 200.738922 98.848389 199.321198 98.503296 198.103241 97.999481 C 197.510132 97.786407 196.834076 97.345947 196.284973 97.027527 L 195.740051 96.710999 L 195.533112 96.614716 L 195.194 96.391449 L 195.166321 96.315643 L 194.825256 96.096527 C 192.94455 94.717896 191.154846 92.873169 189.885559 90.580872 C 188.619324 88.287476 188.083405 85.641724 188.09549 83.311371 C 188.079895 80.905212 188.582703 78.742798 189.243195 76.7771 C 189.904755 74.814423 190.752777 73.127289 191.731903 71.564087 C 193.58783 68.392639 195.739685 65.796875 197.92749 63.535034 C 200.145966 61.347839 202.368591 59.41687 204.551361 57.847412 C 208.888123 54.629639 212.8992 52.647339 215.864532 51.565369 Z"/>
    <path id="Path-copy-3" fill="#c63b3d" fill-rule="evenodd" stroke="none" d="M 255.438538 27.394104 L 259.929565 32.386292 C 255.958496 35.900085 250.510468 39.61261 244.544037 43.081421 C 238.529449 46.653687 232.089722 49.776367 226.313721 51.883911 C 224.41568 52.576416 222.63855 53.138977 220.912598 53.596924 L 219.293701 47.041382 C 220.719482 46.692932 222.34198 46.186829 224.012634 45.577271 C 229.258026 43.663391 235.466187 40.621704 241.129425 37.26355 C 246.821442 33.984192 252.042084 30.354614 255.438538 27.394104 Z"/>
    <path id="Path-copy-2" fill="#c63b3d" fill-rule="evenodd" stroke="none" d="M 221.962341 48.220032 C 230.293884 56.892334 237.148499 68.597778 241.301025 79.743134 C 242.076538 81.868591 242.701538 84.052368 243.295868 86.161469 L 236.766907 87.853149 C 236.253632 85.975586 235.635773 84.046844 234.915588 82.072998 C 231.171875 71.812622 224.61734 60.684814 217.130005 52.913818 L 221.962341 48.220032 Z"/>
    <path id="Path-copy" fill="#d1574a" fill-rule="evenodd" stroke="none" d="M 217.654572 45.143127 C 225.859222 42.149536 230.461426 54.762695 222.256775 57.756348 C 214.124878 60.72345 209.522675 48.110229 217.654572 45.143127 Z"/>
</svg>
