<?xml version="1.0" encoding="UTF-8"?>
<!-- Generated by Pixelmator Pro 2.4.5 -->
<svg width="226" height="115" viewBox="0 0 226 115" xmlns="http://www.w3.org/2000/svg" xmlns:xlink="http://www.w3.org/1999/xlink">
    <path id="Path-copy-11" fill="#245716" fill-rule="evenodd" stroke="none" d="M 131.822144 84.185791 L 131.822144 84.185791 C 126.362854 78.868958 121.714081 71.987732 121.95282 64.730713 C 122.084412 59.622223 125.767334 53.360199 131.560394 53.431824 C 133.119568 53.443939 134.470398 53.844818 135.622101 54.522186 C 139.7948 56.976288 141.386292 63.073883 140.791809 67.658569 C 139.9646 74.094696 136.467834 79.69519 131.822144 84.185791 Z M 2.920074 113.758789 C 3.76123 114.253479 4.821045 114.300598 5.900818 113.547913 C 29.402008 96.895691 58.935211 104.636169 85.558441 105.195251 C 101.048676 105.496216 119.130219 102.488281 131.93927 93.031738 L 131.93927 93.031738 C 134.313293 94.845947 136.796906 96.501465 139.293274 97.969666 C 144.068909 100.778442 148.883484 102.899963 153.052734 104.138794 C 179.73761 112.147766 208.286804 99.669678 222.074341 75.916687 C 223.130432 74.038208 222.234192 72.257233 220.805115 71.416748 C 219.379089 70.578003 217.420166 70.679749 216.361023 72.556458 C 206.353271 89.731079 187.555664 100.904175 167.47345 99.931396 C 158.716675 99.545044 150.140442 96.8302 142.612183 92.402527 C 141.213257 91.579773 139.855835 90.700256 138.535095 89.765198 C 138.034058 89.409668 137.526306 89.038025 137.01358 88.647156 L 137.01358 88.647156 C 140.713745 84.894897 143.714417 80.386353 145.731445 75.011139 C 149.219482 65.810272 147.988098 54.194824 138.822754 48.804291 C 138.70813 48.736908 138.591797 48.672546 138.475464 48.608185 C 129.958344 43.874817 120.404236 49.094116 116.795929 57.437012 C 111.911499 68.839691 117.603851 79.873108 126.594604 88.472168 L 126.594604 88.472168 C 124.959778 89.616638 123.265686 90.641113 121.557953 91.543884 C 103.145447 101.275696 81.786804 98.533691 61.854431 96.995789 C 41.627655 95.475403 19.939331 95.501709 2.644775 107.741455 C 0.267639 109.402954 1.065887 112.668274 2.920074 113.758789 Z"/>
    <path id="Path-copy-10" fill="#245716" fill-rule="evenodd" stroke="none" d="M 35.151367 100.187988 L 46.293579 97.939758 L 42.988586 81.82605 L 31.848145 84.071228 L 35.151367 100.187988 Z"/>
    <path id="Path-copy-9" fill="#e7a098" fill-rule="evenodd" stroke="none" d="M 31.848145 84.071289 L 42.988556 81.826111 C 42.988556 81.826111 66.391205 35.108337 23.771698 7.725006 C 23.735504 7.703705 23.69632 7.680664 23.660126 7.659393 C 21.371796 6.313507 18.314667 7.254517 17.192291 9.783844 C 11.836182 22.195465 -0.410339 57.506561 31.848145 84.071289 Z"/>
    <path id="Path-copy-8" fill="#d1574a" fill-rule="evenodd" stroke="none" d="M 30.896942 87.516907 C 34.002319 89.343323 37.917023 85.157288 35.037689 82.429077 C 14.025085 62.567749 10.234222 31.535767 25.737854 7.217651 C 26.901245 5.398224 26.054504 3.650391 24.625427 2.809906 C 23.199371 1.971191 21.190979 2.039764 20.027588 3.859192 C 2.967224 30.499878 7.217865 65.324463 30.21698 87.003418 C 30.436554 87.209656 30.664795 87.380371 30.896942 87.516907 Z"/>
    <path id="Path-copy-7" fill="#fffdfe" fill-rule="evenodd" stroke="none" d="M 39.332825 74.084381 C 40.725708 74.903625 42.877899 74.611206 43.509277 72.592468 C 46.743073 61.898926 46.990051 50.92981 44.253113 40.149414 C 44.053192 39.37854 43.623291 38.853821 43.08963 38.539948 C 41.274658 37.472473 38.250916 38.86731 38.896973 41.535889 C 41.407928 51.444855 41.194733 61.411255 38.240021 71.161163 C 37.819275 72.504395 38.407227 73.540009 39.332825 74.084381 Z"/>
    <path id="Path-copy-6" fill="#fffdfe" fill-rule="evenodd" stroke="none" d="M 37.817474 36.920441 C 40.844452 38.700745 43.596466 34.021576 40.569489 32.241272 C 37.53949 30.459198 34.787476 35.138367 37.817474 36.920441 Z"/>
    <path id="Path-copy-5" fill="#245716" fill-rule="evenodd" stroke="none" d="M 172.591248 100.364624 L 183.558044 103.29248 L 187.718079 87.401855 L 176.753052 84.471008 L 172.591248 100.364624 Z"/>
    <path id="Path-copy-4" fill="#dfa30c" fill-rule="evenodd" stroke="none" d="M 174.89801 87.625061 L 185.863037 90.555908 C 185.863037 90.555908 227.621765 59.081512 201.594238 15.616425 C 201.197998 14.965424 200.653015 14.450104 200.031921 14.084839 C 198.440063 13.14856 196.340332 13.199982 194.835327 14.510101 C 184.437195 23.213654 157.883362 49.464874 174.89801 87.625061 Z"/>
    <path id="Path-copy-3" fill="#ffb700" fill-rule="evenodd" stroke="none" d="M 173.831177 92.585205 C 176.255127 94.010864 180.088989 92.370178 178.7995 89.181152 C 168.102905 62.329041 177.915405 32.253387 202.911499 17.316315 C 205.461548 15.809265 204.695923 12.571259 202.763367 11.434631 C 201.898071 10.92572 200.79718 10.838196 199.655457 11.509857 C 172.277954 27.825928 160.561523 61.131775 172.351624 90.850708 C 172.676575 91.650513 173.207031 92.21814 173.831177 92.585205 Z"/>
    <path id="Path-copy-2" fill="#fffdfe" fill-rule="evenodd" stroke="none" d="M 187.25238 83.095154 C 188.177917 83.639526 189.368774 83.650085 190.338257 82.629578 C 197.948303 74.416534 203.039246 64.815277 205.462036 53.920685 C 205.754761 52.546814 205.100647 51.492554 204.156982 50.937531 C 202.727905 50.097046 200.635803 50.40451 200.19281 52.48938 C 198.008789 62.501862 193.512024 71.251495 186.52655 78.720001 C 185.069092 80.252869 185.859436 82.27594 187.25238 83.095154 Z"/>
    <path id="Path-copy" fill="#fffdfe" fill-rule="evenodd" stroke="none" d="M 202.118042 48.89859 C 205.14801 50.680634 207.940857 45.932129 204.910828 44.150055 C 201.814514 42.328979 199.021729 47.077484 202.118042 48.89859 Z"/>
</svg>
