<?xml version="1.0" encoding="UTF-8"?>
<!-- Generated by Pixelmator Pro 2.4.5 -->
<svg width="272" height="330" viewBox="0 0 272 330" xmlns="http://www.w3.org/2000/svg" xmlns:xlink="http://www.w3.org/1999/xlink">
    <path id="Path-copy-16" fill="#245716" fill-rule="evenodd" stroke="none" d="M 57.80481 221.29303 C 57.750122 221.270294 57.695007 221.250153 57.64032 221.227386 C 53.258423 219.499786 49.14856 216.178375 47.569336 211.588593 C 45.932251 206.623932 48.518677 200.443054 53.630066 198.650116 C 54.815491 198.247192 55.934021 198.171021 56.966064 198.348938 C 60.37262 198.936249 62.818726 202.298431 63.518372 205.825684 C 64.621094 211.06308 62.467712 215.79776 59.177063 219.729095 C 58.731384 220.259552 58.271545 220.779541 57.80481 221.29303 Z M 194.322449 181.400238 C 193.476624 181.254425 192.618225 180.965271 191.781433 180.52002 C 186.979431 177.984863 185.420837 173.089691 185.245361 167.727112 L 185.245361 167.727112 C 186.771545 167.201843 188.361023 166.849945 190.02655 166.721558 C 191.17749 166.627014 192.343628 166.676239 193.471375 166.870667 C 197.302124 167.531067 200.686462 169.869781 201.469238 174.042603 C 202.460266 179.186188 198.577454 182.13382 194.322449 181.400238 Z M 3.115967 328.014282 C 4.556702 328.262695 6.39032 327.31366 6.424683 325.415161 C 6.726257 306.377869 11.65625 287.653809 20.50647 270.878723 C 25.017578 262.35553 30.518311 254.426453 36.871277 247.192932 C 43.146851 240.068604 50.42511 234.512878 57.512329 228.319519 C 58.032227 227.868469 58.550903 227.40921 59.060547 226.940399 L 59.060547 226.940399 C 59.507019 227.038666 59.957886 227.127075 60.410583 227.205109 C 70.454407 228.936646 82.159119 225.715454 91.267822 222.952301 C 109.233887 217.478516 126.404968 209.555786 142.241028 199.519775 C 150.425415 194.36261 158.286926 188.606415 165.689514 182.34494 C 170.334839 178.388794 175.025024 173.276428 180.493408 169.984222 L 180.493408 169.984222 C 180.758789 172.616211 181.369385 175.177216 182.499512 177.582764 C 184.551819 181.993073 188.93634 185.652161 193.781067 186.487396 C 195.325256 186.753632 196.918945 186.732727 198.496521 186.357483 C 204.826355 184.897095 207.70929 178.402466 206.188293 172.424377 C 204.695618 166.544403 199.94165 162.89621 194.302856 161.924072 C 193.234558 161.739899 192.136414 161.651794 191.018311 161.664124 C 189.073792 161.68045 187.222351 161.960571 185.44696 162.448212 L 185.44696 162.448212 C 185.838562 158.384644 186.661621 154.398132 187.158081 151.271545 C 190.559753 129.423401 196.597778 106.389038 211.838623 89.562408 C 224.382263 75.805206 243.256592 67.009521 261.768982 70.20105 C 263.615845 70.51944 265.460754 70.957367 267.294556 71.52121 C 267.418152 71.561157 267.538391 71.589874 267.654785 71.609955 C 270.414734 72.085754 271.073975 67.535645 268.13916 66.622162 C 266.207092 66.025391 264.259644 65.564484 262.304199 65.227356 C 247.480286 62.671722 232.177917 67.310242 219.844177 75.925781 C 204.142334 86.959747 194.403748 103.943909 188.680542 121.985229 C 185.683777 131.256927 183.739868 140.771393 182.256409 150.426483 C 181.558167 154.847382 180.611755 159.672913 180.382324 164.448975 L 180.382324 164.448975 C 175.770386 166.82077 171.674011 170.389465 167.75531 173.884918 C 152.650452 187.450897 135.783875 198.891327 117.394592 207.514984 C 108.388733 211.798065 99.020996 215.352905 89.519958 218.274841 C 81.449829 220.729645 71.914124 223.837372 63.179504 222.653778 L 63.179504 222.653778 C 66.219238 218.988159 68.457764 214.76358 68.725647 209.826355 C 69.094482 203.809204 66.609436 197.057648 60.872742 194.366669 C 59.918579 193.922516 58.950195 193.622375 57.982788 193.455597 C 53.073425 192.609222 48.178345 195.155945 45.136169 199.252625 C 41.017456 204.804443 41.243835 211.957672 45.073181 217.601227 C 47.496521 221.172577 50.503967 223.61145 53.872192 225.193604 L 53.872192 225.193604 C 47.986084 230.584534 41.216492 235.213257 35.742615 241.040161 C 28.679321 248.516052 22.544067 256.943054 17.529846 265.928162 C 7.254578 284.279419 1.820129 304.863525 1.417725 325.891663 C 1.392029 327.168396 2.166687 327.850647 3.115967 328.014282 Z"/>
    <path id="Path-copy-15" fill="#245716" fill-rule="evenodd" stroke="none" d="M 230.986511 71.949738 L 238.670227 68.291016 L 233.411987 57.170013 L 225.670959 60.821503 L 230.986511 71.949738 Z"/>
    <path id="Path-copy-14" fill="#e7a098" fill-rule="evenodd" stroke="none" d="M 225.670959 60.821503 L 233.411987 57.170013 C 233.411987 57.170013 241.959717 18.883026 206.007385 6.665344 C 205.845825 6.613525 205.682556 6.572052 205.519592 6.543945 C 203.714111 6.232697 201.927979 7.416321 201.601074 9.312317 C 199.87085 19.348358 197.429565 47.259064 225.670959 60.821503 Z"/>
    <path id="Path-copy-13" fill="#d1574a" fill-rule="evenodd" stroke="none" d="M 227.314331 63.587189 C 229.670715 63.993439 231.118103 60.186462 228.636108 58.778412 C 210.051514 48.095337 200.525818 27.182739 204.276123 6.124512 C 204.581848 4.536499 203.493164 3.528442 202.261902 3.316193 C 201.028137 3.103485 199.651794 3.686554 199.377075 5.279907 C 195.167847 28.629547 205.993774 51.532196 226.463867 63.267456 C 226.756775 63.437805 227.042725 63.540375 227.314331 63.587189 Z"/>
    <path id="Path-copy-12" fill="#fdfbf6" fill-rule="evenodd" stroke="none" d="M 229.971375 52.238007 C 230.9776 52.411499 232.005554 51.933502 232.052185 50.612457 C 232.504089 41.996704 230.667053 33.958557 226.620605 26.391785 C 226.319092 25.82309 225.894836 25.53421 225.442139 25.456177 C 224.032471 25.213135 222.35376 27.009247 223.2995 28.738434 C 226.787598 35.295349 228.402283 42.506775 228.035156 49.919922 C 227.964905 51.223572 228.957458 52.063202 229.971375 52.238007 Z"/>
    <path id="Path-copy-11" fill="#fdfbf6" fill-rule="evenodd" stroke="none" d="M 221.742065 25.428223 C 224.338989 25.875916 225.031128 21.861511 222.434143 21.413788 C 219.834595 20.965607 219.142517 24.980042 221.742065 25.428223 Z"/>
    <path id="Path-copy-10" fill="#245716" fill-rule="evenodd" stroke="none" d="M 187.601379 128.244843 L 191.013306 120.443024 L 179.714172 115.456024 L 176.242798 123.247559 L 187.601379 128.244843 Z"/>
    <path id="Path-copy-9" fill="#ffb700" fill-rule="evenodd" stroke="none" d="M 156.697449 124.456482 C 162.431946 125.445129 168.934265 125.255676 176.242798 123.247559 L 179.714172 115.456024 C 179.714172 115.456024 169.116516 95.802246 148.803833 92.300323 C 142.197632 91.161438 134.561768 91.730774 125.929138 95.239197 C 124.023254 96.066589 123.264343 98.367523 124.35791 100.135498 C 128.336487 106.721039 138.748901 121.362183 156.697449 124.456482 Z"/>
    <path id="Path-copy-8" fill="#dfa30c" fill-rule="evenodd" stroke="none" d="M 158.850403 124.281647 C 165.485046 125.425446 172.468811 125.255096 179.462891 123.618927 C 182.179443 122.971252 181.183594 119.307739 178.809082 118.898376 C 178.470276 118.839966 178.103882 118.848694 177.714966 118.941467 C 171.678406 120.353851 165.601929 120.483521 159.797546 119.482849 C 145.6203 117.038696 133.058716 107.849457 126.665344 94.151581 C 126.251221 93.278473 125.541321 92.823151 124.786011 92.692932 C 123.021973 92.388794 121.01886 93.8573 121.985718 95.896454 C 129.244629 111.402893 143.059082 121.559235 158.850403 124.281647 Z"/>
    <path id="Path-copy-7" fill="#fdfbf6" fill-rule="evenodd" stroke="none" d="M 172.216858 114.403198 C 173.833496 114.681915 175.599304 112.890167 174.358765 111.248688 C 169.164856 104.698639 162.60498 99.73761 154.791382 96.749847 C 154.65094 96.699005 154.513489 96.661987 154.379028 96.638794 C 152.149353 96.254395 150.738159 99.604187 153.056213 100.4646 C 160.24115 103.221466 166.232971 107.599792 170.967957 113.644531 C 171.327942 114.090149 171.766785 114.325623 172.216858 114.403198 Z"/>
    <path id="Path-copy-6" fill="#fdfbf6" fill-rule="evenodd" stroke="none" d="M 148.678772 99.406281 C 151.335266 99.864258 152.027771 95.847229 149.371338 95.389282 C 146.774353 94.941559 146.081848 98.958557 148.678772 99.406281 Z"/>
    <path id="Path-copy-5" fill="#245716" fill-rule="evenodd" stroke="none" d="M 107.435303 214.856537 L 115.030762 210.99881 L 109.519287 199.956665 L 101.864319 203.804108 L 107.435303 214.856537 Z"/>
    <path id="Path-copy-4" fill="#73c065" fill-rule="evenodd" stroke="none" d="M 101.864319 203.804108 L 109.519287 199.956665 C 109.519287 199.956665 117.239258 161.526947 80.955505 150.165741 C 80.799133 150.114807 80.640991 150.074219 80.483215 150.047028 C 78.672546 149.734863 76.871887 150.971924 76.598877 152.879852 C 75.163513 162.966766 73.322266 190.919617 101.864319 203.804108 Z"/>
    <path id="Path-copy-3" fill="#52963e" fill-rule="evenodd" stroke="none" d="M 104.397217 205.982727 C 106.947632 206.422394 108.521606 202.51474 105.828125 201.267303 C 85.942139 192.123108 75.769226 170.731384 80.950989 149.496429 C 81.337219 147.951599 80.307861 146.969757 79.081848 146.758392 C 77.855774 146.547028 76.438171 147.106995 76.049377 148.651367 C 70.325195 171.982208 81.903748 195.80304 103.715332 205.766602 C 103.947327 205.873199 104.177368 205.944824 104.397217 205.982727 Z"/>
    <path id="Path-copy-2" fill="#fffdfe" fill-rule="evenodd" stroke="none" d="M 105.324585 195.134369 C 106.49115 195.33551 107.994629 194.555939 108.049683 192.95401 C 108.274475 184.605408 106.171692 176.702545 102.084656 169.371185 C 101.773987 168.82489 101.3479 168.546326 100.895264 168.468292 C 99.449341 168.219025 97.741699 170.028778 98.693848 171.767059 C 102.469116 178.434753 104.190369 185.723145 103.960754 193.405029 C 103.926025 194.440491 104.553772 195.001495 105.324585 195.134369 Z"/>
    <path id="Path-copy" fill="#fffdfe" fill-rule="evenodd" stroke="none" d="M 97.056396 168.565582 C 99.65332 169.013275 100.355713 164.939362 97.758728 164.491669 C 95.161743 164.043945 94.459412 168.117859 97.056396 168.565582 Z"/>
</svg>
