<?xml version="1.0" encoding="UTF-8"?>
<!-- Generated by Pixelmator Pro 2.4.5 -->
<svg width="226" height="114" viewBox="0 0 226 114" xmlns="http://www.w3.org/2000/svg" xmlns:xlink="http://www.w3.org/1999/xlink">
    <path id="Path-copy-11" fill="#245716" fill-rule="evenodd" stroke="none" d="M 131.747345 31.746155 L 131.747345 31.746155 C 126.288055 37.062988 121.639282 43.944244 121.878021 51.201233 C 122.009613 56.309753 125.692535 62.571747 131.485596 62.500153 C 133.044769 62.488007 134.395599 62.087158 135.547302 61.40979 C 139.719971 58.955658 141.311493 52.858063 140.71701 48.273407 C 139.889801 41.83728 136.393005 36.236755 131.747345 31.746155 Z M 2.845276 2.173157 C 3.686432 1.678467 4.746246 1.631348 5.826019 2.384094 C 29.327209 19.036255 58.860382 11.295776 85.483643 10.736694 C 100.973877 10.43573 119.055389 13.443665 131.864471 22.900208 L 131.864471 22.900208 C 134.238495 21.085999 136.722076 19.430481 139.218445 17.96228 C 143.99408 15.153503 148.808685 13.031982 152.977905 11.793152 C 179.662842 3.78418 208.211975 16.262268 221.999512 40.015259 C 223.055603 41.893738 222.159424 43.674713 220.730347 44.515228 C 219.30426 45.353943 217.345337 45.252197 216.286255 43.375488 C 206.278442 26.200867 187.480835 15.027771 167.398682 16.000549 C 158.641846 16.386902 150.065643 19.101746 142.537354 23.529419 C 141.138428 24.352234 139.781006 25.23175 138.460266 26.166748 C 137.959259 26.522278 137.451508 26.893982 136.938782 27.28479 L 136.938782 27.28479 C 140.638947 31.037048 143.639587 35.545654 145.656647 40.920807 C 149.144684 50.121704 147.9133 61.737122 138.747925 67.127655 C 138.633362 67.195038 138.517029 67.259399 138.400665 67.323792 C 129.883514 72.057129 120.329437 66.83786 116.72113 58.494934 C 111.8367 47.092255 117.529053 36.058838 126.519806 27.459778 L 126.519806 27.459778 C 124.884949 26.315308 123.190887 25.290894 121.483154 24.388062 C 103.070648 14.65625 81.712006 17.398254 61.779602 18.936218 C 41.552826 20.456543 19.864532 20.430237 2.569977 8.190552 C 0.192841 6.529053 0.991089 3.263672 2.845276 2.173157 Z"/>
    <path id="Path-copy-10" fill="#245716" fill-rule="evenodd" stroke="none" d="M 35.076569 15.743958 L 46.21875 17.992188 L 42.913788 34.105896 L 31.773346 31.860718 L 35.076569 15.743958 Z"/>
    <path id="Path-copy-9" fill="#d1574a" fill-rule="evenodd" stroke="none" d="M 31.773346 31.860657 L 42.913757 34.105835 C 42.913757 34.105835 66.316376 80.823608 23.696869 108.20697 C 23.660706 108.228241 23.621521 108.251282 23.585327 108.272583 C 21.296997 109.618439 18.239868 108.677429 17.117493 106.148102 C 11.761383 93.736511 -0.485138 58.425385 31.773346 31.860657 Z"/>
    <path id="Path-copy-8" fill="#e7a098" fill-rule="evenodd" stroke="none" d="M 30.822144 28.415039 C 33.927521 26.588623 37.842224 30.774658 34.962891 33.502869 C 13.950287 53.364197 10.159424 84.396179 25.663025 108.714294 C 26.826447 110.533752 25.979706 112.281555 24.550629 113.12207 C 23.124573 113.960785 21.11618 113.892181 19.952759 112.072754 C 2.892426 85.432068 7.143066 50.607483 30.142181 28.928589 C 30.361755 28.722351 30.589996 28.551575 30.822144 28.415039 Z"/>
    <path id="Path-copy-7" fill="#fffdfe" fill-rule="evenodd" stroke="none" d="M 39.258026 41.847565 C 40.650909 41.028351 42.803101 41.32074 43.434479 43.339478 C 46.668274 54.03302 46.915253 65.002136 44.178314 75.782532 C 43.978394 76.553406 43.548492 77.078156 43.014832 77.391998 C 41.19986 78.459473 38.176086 77.064636 38.822174 74.396057 C 41.33313 64.487122 41.119934 54.520691 38.165222 44.770782 C 37.744476 43.427582 38.332428 42.391937 39.258026 41.847565 Z"/>
    <path id="Path-copy-6" fill="#fffdfe" fill-rule="evenodd" stroke="none" d="M 37.742676 79.011536 C 40.769653 77.231232 43.521667 81.9104 40.49469 83.690674 C 37.464691 85.472778 34.712677 80.793579 37.742676 79.011536 Z"/>
    <path id="Path-copy-5" fill="#245716" fill-rule="evenodd" stroke="none" d="M 172.516418 15.567322 L 183.483276 12.639465 L 187.643311 28.53009 L 176.678284 31.460938 L 172.516418 15.567322 Z"/>
    <path id="Path-copy-4" fill="#ffb700" fill-rule="evenodd" stroke="none" d="M 174.823181 28.306885 L 185.788269 25.376038 C 185.788269 25.376038 227.546936 56.850433 201.51947 100.315552 C 201.12323 100.966553 200.578186 101.481842 199.957153 101.847137 C 198.365234 102.783386 196.265564 102.731995 194.760559 101.421875 C 184.362366 92.718292 157.808533 66.467102 174.823181 28.306885 Z"/>
    <path id="Path-copy-3" fill="#dfa30c" fill-rule="evenodd" stroke="none" d="M 173.756348 23.346741 C 176.180359 21.921082 180.01416 23.561768 178.72467 26.750793 C 168.028076 53.602936 177.840576 83.678589 202.836731 98.615631 C 205.38678 100.122681 204.621155 103.360718 202.688599 104.497314 C 201.823303 105.006226 200.722351 105.093781 199.580688 104.422089 C 172.203125 88.106049 160.486755 54.800171 172.276855 25.081238 C 172.601807 24.281433 173.132263 23.713806 173.756348 23.346741 Z"/>
    <path id="Path-copy-2" fill="#fffdfe" fill-rule="evenodd" stroke="none" d="M 187.177551 32.836792 C 188.103149 32.292419 189.294006 32.28186 190.263428 33.302368 C 197.873474 41.515411 202.964478 51.116669 205.387268 62.011261 C 205.679932 63.385162 205.025818 64.439392 204.082153 64.994415 C 202.653076 65.8349 200.561035 65.527435 200.117981 63.442566 C 197.934021 53.430084 193.437256 44.680481 186.451721 37.211975 C 184.994263 35.679077 185.784668 33.656067 187.177551 32.836792 Z"/>
    <path id="Path-copy" fill="#fffdfe" fill-rule="evenodd" stroke="none" d="M 202.043213 67.033386 C 205.073242 65.251312 207.866028 69.999817 204.835999 71.781891 C 201.739685 73.602966 198.946899 68.854462 202.043213 67.033386 Z"/>
</svg>
