<?xml version="1.0" encoding="UTF-8"?>
<!-- Generated by Pixelmator Pro 2.4.5 -->
<svg width="384" height="126" viewBox="0 0 384 126" xmlns="http://www.w3.org/2000/svg" xmlns:xlink="http://www.w3.org/1999/xlink">
    <path id="Path-copy-16" fill="#245716" fill-rule="evenodd" stroke="none" d="M 118.957619 96.160126 C 118.94326 96.21756 118.926552 96.273834 118.912193 96.331299 C 117.684906 100.878723 117.899101 106.158447 120.640793 110.163788 C 123.648827 114.439178 130.152359 116.050293 134.64035 113.017456 C 135.670853 112.306335 136.399185 111.454102 136.872025 110.519653 C 138.432724 107.435242 137.193359 103.466461 134.7798 100.800873 C 131.234055 96.791687 126.149567 95.695648 121.03141 95.991638 C 120.339828 96.032898 119.648155 96.091827 118.957619 96.160126 Z M 232.409302 10.388733 C 232.02179 11.154541 231.741821 12.015991 231.599991 12.953186 C 230.770233 18.319519 233.769379 22.490417 237.968628 25.830139 L 237.968628 25.830139 C 239.300598 24.918579 240.531189 23.852722 241.627701 22.59259 C 242.390152 21.72522 243.046249 20.759949 243.562927 19.738892 C 245.317963 16.270386 245.459717 12.159119 242.577621 9.041687 C 239.040558 5.178162 234.358688 6.536133 232.409302 10.388733 Z M 0.681747 76.392609 C 1.341812 75.088104 3.197281 74.182556 4.741455 75.287506 C 20.20047 86.401367 38.169029 93.613678 56.911812 96.517059 C 66.443375 97.980652 76.088425 98.295593 85.683563 97.511627 C 95.144897 96.72464 103.945473 94.197235 113.143776 92.203491 C 113.815918 92.055267 114.493904 91.912964 115.174171 91.783569 L 115.174171 91.783569 C 115.361633 91.366577 115.559647 90.951996 115.767029 90.542145 C 120.36853 81.448181 129.935806 73.975555 137.586945 68.313232 C 152.697083 57.158997 169.298492 48.103638 186.799637 41.380371 C 195.820816 37.887939 205.130173 35.011963 214.571289 32.805725 C 220.517441 31.437317 227.418289 30.722656 233.32254 28.297546 L 233.32254 28.297546 C 231.368423 26.514587 229.6772 24.496887 228.42067 22.154907 C 226.105209 17.876953 225.783859 12.175293 228.003433 7.788757 C 228.710907 6.390564 229.678345 5.123962 230.920547 4.081665 C 235.868439 -0.127502 242.800659 1.4328 246.691315 6.219543 C 250.520142 10.924988 250.612381 16.916687 248.028992 22.022217 C 247.539566 22.989441 246.955231 23.923401 246.278366 24.813416 C 245.105331 26.364319 243.776108 27.683228 242.325699 28.817261 L 242.325699 28.817261 C 245.820663 30.92688 249.5112 32.644287 252.316681 34.110901 C 271.880951 44.41333 293.969849 53.307526 316.56604 51.11261 C 335.089813 49.251465 353.407898 39.349854 361.889221 22.588196 C 362.735352 20.916016 363.484375 19.174072 364.125732 17.365906 C 364.167389 17.242859 364.216064 17.129272 364.269379 17.023865 C 365.533813 14.524963 369.578949 16.710022 368.561462 19.610413 C 367.887939 21.516968 367.096191 23.35498 366.200317 25.125488 C 359.408844 38.547485 346.557983 48.062134 332.286072 52.821777 C 314.064026 58.842041 294.623505 56.526947 276.729797 50.358521 C 267.500793 47.233032 258.705017 43.117798 250.07103 38.549011 C 246.106369 36.47229 241.668854 34.353394 237.698792 31.688599 L 237.698792 31.688599 C 233.044174 33.97522 227.73642 35.134277 222.593491 36.194275 C 202.695343 40.225098 183.452271 46.937683 165.561661 56.552643 C 156.751999 61.225769 148.310959 66.623749 140.298401 72.506226 C 133.514313 77.51889 125.33194 83.31839 121.071564 91.034729 L 121.071564 91.034729 C 125.826797 90.781616 130.552704 91.505005 134.675064 94.235107 C 139.724396 97.528412 143.660782 103.550232 142.398544 109.759644 C 142.185852 110.790405 141.849075 111.746643 141.405869 112.622559 C 139.156662 117.067657 134.192734 119.477264 129.090088 119.475159 C 122.177422 119.469055 116.57135 115.020416 114.326111 108.580597 C 112.905312 104.50528 112.741882 100.636719 113.481239 96.989655 L 113.481239 96.989655 C 105.643387 98.498077 97.890343 101.170197 89.948502 102.087677 C 79.735062 103.29715 69.31192 103.194458 59.109486 101.859131 C 38.251663 99.159271 18.489334 91.242279 1.372292 79.02179 C 0.332298 78.280823 0.246841 77.252136 0.681747 76.392609 Z"/>
    <path id="Path-copy-15" fill="#245716" fill-rule="evenodd" stroke="none" d="M 342.123688 46.250793 L 349.643555 42.266418 L 355.432617 53.120361 L 347.884338 57.15509 L 342.123688 46.250793 Z"/>
    <path id="Path-copy-14" fill="#e7a098" fill-rule="evenodd" stroke="none" d="M 347.884338 57.15509 L 355.432617 53.120361 C 355.432617 53.120361 391.260162 69.098633 379.620056 105.241577 C 379.565277 105.40213 379.50116 105.557953 379.426483 105.705505 C 378.599335 107.34021 376.583893 108.067719 374.867218 107.199097 C 365.780273 102.601135 341.923187 87.911499 347.884338 57.15509 Z"/>
    <path id="Path-copy-13" fill="#d1574a" fill-rule="evenodd" stroke="none" d="M 346.644867 54.186401 C 347.724457 52.052856 351.64325 53.162079 351.292816 55.994049 C 348.781067 77.28241 359.883179 97.402191 379.021423 106.953674 C 380.478302 107.655579 380.637939 109.130676 380.073853 110.245453 C 379.508575 111.362579 378.219604 112.119415 376.776947 111.389404 C 355.525879 100.839447 343.602234 78.488953 346.394196 55.059723 C 346.43219 54.722992 346.520447 54.432312 346.644867 54.186401 Z"/>
    <path id="Path-copy-12" fill="#fdfbf6" fill-rule="evenodd" stroke="none" d="M 357.338593 58.82373 C 357.799591 57.91272 358.796417 57.372803 359.884491 58.123413 C 367.06897 62.900085 372.4245 69.169312 376.083771 76.930603 C 376.360352 77.51178 376.339111 78.024658 376.131744 78.434509 C 375.485901 79.710876 373.042999 79.986786 372.21933 78.196289 C 369.037476 71.485504 364.21283 65.887878 358.044098 61.760529 C 356.955902 61.039276 356.874084 59.741791 357.338593 58.82373 Z"/>
    <path id="Path-copy-11" fill="#fdfbf6" fill-rule="evenodd" stroke="none" d="M 373.947021 81.420837 C 375.13681 79.069489 378.771576 80.908661 377.581818 83.26001 C 376.390839 85.613739 372.756073 83.774536 373.947021 81.420837 Z"/>
    <path id="Path-copy-10" fill="#245716" fill-rule="evenodd" stroke="none" d="M 271.062164 47.490723 L 279.359039 49.406189 L 276.621552 61.449554 L 268.297424 59.587921 L 271.062164 47.490723 Z"/>
    <path id="Path-copy-9" fill="#ffb700" fill-rule="evenodd" stroke="none" d="M 255.668121 74.553741 C 258.295349 69.361542 262.32608 64.255859 268.297394 59.587921 L 276.621521 61.449554 C 276.621521 61.449554 286.073853 81.678833 276.767731 100.070526 C 273.74115 106.051971 268.72937 111.84082 260.764069 116.676453 C 258.963135 117.712555 256.663727 116.949097 255.897095 115.016846 C 252.984848 107.895355 247.445145 90.80484 255.668121 74.553741 Z"/>
    <path id="Path-copy-8" fill="#dfa30c" fill-rule="evenodd" stroke="none" d="M 257.092712 72.930084 C 260.132355 66.922882 264.434967 61.419403 269.920166 56.782013 C 272.060425 54.988098 274.406708 57.972626 273.318848 60.122589 C 273.163605 60.429382 272.938019 60.718231 272.631592 60.975006 C 267.897156 64.977417 264.168427 69.777008 261.509186 75.03244 C 255.013977 87.868896 254.896072 103.43219 262.076141 116.734375 C 262.529846 117.587585 262.471832 118.428955 262.125793 119.112793 C 261.317596 120.710052 258.944153 121.441711 257.884308 119.449341 C 249.768967 104.373718 249.858047 87.227966 257.092712 72.930084 Z"/>
    <path id="Path-copy-7" fill="#fdfbf6" fill-rule="evenodd" stroke="none" d="M 272.994293 68.094879 C 273.734955 66.631134 276.226318 66.282684 276.803772 68.257477 C 278.962555 76.333221 279.031189 84.557404 276.76825 92.610809 C 276.725281 92.753815 276.673004 92.88623 276.611389 93.007996 C 275.589874 95.026794 272.059631 94.161224 272.751801 91.787537 C 274.825043 84.376465 274.885193 76.95578 272.858215 69.549774 C 272.715302 68.995056 272.788086 68.50238 272.994293 68.094879 Z"/>
    <path id="Path-copy-6" fill="#fdfbf6" fill-rule="evenodd" stroke="none" d="M 270.98999 95.932129 C 272.207031 93.526886 275.844147 95.367249 274.627106 97.772461 C 273.437317 100.12384 269.800201 98.283478 270.98999 95.932129 Z"/>
    <path id="Path-copy-5" fill="#245716" fill-rule="evenodd" stroke="none" d="M 153.728561 60.166595 L 161.355515 56.371704 L 166.930176 67.381927 L 159.275986 71.230682 L 153.728561 60.166595 Z"/>
    <path id="Path-copy-4" fill="#73c065" fill-rule="evenodd" stroke="none" d="M 159.275986 71.230682 L 166.930176 67.381927 C 166.930176 67.381927 202.378525 84.109619 189.853333 120.007721 C 189.800934 120.163574 189.739182 120.314697 189.666885 120.457581 C 188.837357 122.096985 186.77037 122.804291 185.076233 121.885284 C 176.12439 117.020355 152.591339 101.823975 159.27597 71.230682 Z"/>
    <path id="Path-copy-3" fill="#52963e" fill-rule="evenodd" stroke="none" d="M 159.038376 67.898193 C 160.206833 65.588989 164.281967 66.656738 163.676453 69.562592 C 159.15332 90.977478 170.253906 111.902527 190.387848 120.410553 C 191.858093 121.022095 192.032104 122.433899 191.470398 123.544006 C 190.908691 124.654114 189.613617 125.457825 188.142197 124.848633 C 166.002548 115.525757 153.790939 92.023529 158.805069 68.574402 C 158.85791 68.324615 158.937653 68.09729 159.038376 67.898224 Z"/>
    <path id="Path-copy-2" fill="#fffdfe" fill-rule="evenodd" stroke="none" d="M 168.29834 73.625031 C 168.832794 72.568787 170.355286 71.827179 171.673828 72.738525 C 178.508392 77.538147 183.596848 83.939941 187.042984 91.593384 C 187.296127 92.168579 187.265518 92.676727 187.058136 93.086578 C 186.395706 94.395752 183.924576 94.686768 183.097412 92.885681 C 179.997986 85.878326 175.175125 80.149231 168.872742 75.751251 C 168.021011 75.161438 167.945206 74.322968 168.29834 73.625031 Z"/>
    <path id="Path-copy" fill="#fffdfe" fill-rule="evenodd" stroke="none" d="M 184.69014 96.109589 C 185.879913 93.75824 189.568558 95.624664 188.378784 97.976044 C 187.188995 100.327393 183.500351 98.460968 184.69014 96.109589 Z"/>
</svg>
