<?xml version="1.0" encoding="UTF-8"?>
<!-- Generated by Pixelmator Pro 2.4.5 -->
<svg width="383" height="126" viewBox="0 0 383 126" xmlns="http://www.w3.org/2000/svg" xmlns:xlink="http://www.w3.org/1999/xlink">
    <path id="Path-copy-16" fill="#245716" fill-rule="evenodd" stroke="none" d="M 263.043091 96.160126 C 263.057434 96.21756 263.074158 96.273834 263.088501 96.331299 C 264.315796 100.878723 264.101563 106.158447 261.359924 110.163788 C 258.351868 114.439178 251.848328 116.050293 247.360352 113.017456 C 246.329834 112.306335 245.601501 111.454102 245.128662 110.519653 C 243.567993 107.435242 244.807312 103.466461 247.220886 100.800873 C 250.766663 96.791687 255.851135 95.695648 260.969299 95.991638 C 261.660889 96.032898 262.352539 96.091827 263.043091 96.160126 Z M 149.59137 10.388733 C 149.978882 11.154541 150.25885 12.015991 150.400696 12.953186 C 151.230469 18.319519 148.231323 22.490417 144.032043 25.830139 L 144.032043 25.830139 C 142.700073 24.918579 141.469482 23.852722 140.372986 22.59259 C 139.610535 21.72522 138.954468 20.759949 138.437744 19.738892 C 136.682739 16.270386 136.540955 12.159119 139.423096 9.041687 C 142.960144 5.178162 147.642029 6.536133 149.59137 10.388733 Z M 381.31897 76.392609 C 380.658936 75.088104 378.803467 74.182556 377.259277 75.287506 C 361.800171 86.401367 343.831665 93.613678 325.088867 96.517059 C 315.557312 97.980652 305.912292 98.295593 296.317139 97.511627 C 286.855774 96.72464 278.055237 94.197235 268.856934 92.203491 C 268.184753 92.055267 267.506775 91.912964 266.826538 91.783569 L 266.826538 91.783569 C 266.639038 91.366577 266.44104 90.951996 266.233643 90.542145 C 261.632141 81.448181 252.06488 73.975555 244.413757 68.313232 C 229.30365 57.158997 212.702209 48.103638 195.20105 41.380371 C 186.179871 37.887939 176.870544 35.011963 167.429382 32.805725 C 161.483276 31.437317 154.582397 30.722656 148.678162 28.297546 L 148.678162 28.297546 C 150.632263 26.514587 152.323486 24.496887 153.580017 22.154907 C 155.895508 17.876953 156.216858 12.175293 153.997253 7.788757 C 153.289795 6.390564 152.322388 5.123962 151.080139 4.081665 C 146.132263 -0.127502 139.200012 1.4328 135.309387 6.219543 C 131.48053 10.924988 131.388306 16.916687 133.97168 22.022217 C 134.461121 22.989441 135.045471 23.923401 135.722351 24.813416 C 136.895386 26.364319 138.224609 27.683228 139.674988 28.817261 L 139.674988 28.817261 C 136.180054 30.92688 132.489502 32.644287 129.684021 34.110901 C 110.119751 44.41333 88.030884 53.307526 65.434631 51.11261 C 46.910889 49.251465 28.592773 39.349854 20.11145 22.588196 C 19.26532 20.916016 18.516296 19.174072 17.875 17.365906 C 17.833313 17.242859 17.784607 17.129272 17.731323 17.023865 C 16.466858 14.524963 12.421753 16.710022 13.439209 19.610413 C 14.112732 21.516968 14.90448 23.35498 15.800354 25.125488 C 22.591858 38.547485 35.442688 48.062134 49.714661 52.821777 C 67.936707 58.842041 87.377197 56.526947 105.270935 50.358521 C 114.499878 47.233032 123.295715 43.117798 131.929688 38.549011 C 135.894348 36.47229 140.331848 34.353394 144.30188 31.688599 L 144.30188 31.688599 C 148.956543 33.97522 154.264282 35.134277 159.407227 36.194275 C 179.305359 40.225098 198.548401 46.937683 216.439026 56.552643 C 225.248718 61.225769 233.689758 66.623749 241.702271 72.506226 C 248.486389 77.51889 256.668762 83.31839 260.929138 91.034729 L 260.929138 91.034729 C 256.173889 90.781616 251.447998 91.505005 247.325623 94.235107 C 242.276306 97.528412 238.339905 103.550232 239.602173 109.759644 C 239.81488 110.790405 240.151611 111.746643 240.594849 112.622559 C 242.844055 117.067657 247.807983 119.477264 252.910583 119.475159 C 259.823303 119.469055 265.429321 115.020416 267.674561 108.580597 C 269.095398 104.50528 269.258789 100.636719 268.51947 96.989655 L 268.51947 96.989655 C 276.3573 98.498077 284.110352 101.170197 292.052185 102.087677 C 302.265625 103.29715 312.688782 103.194458 322.891235 101.859131 C 343.749023 99.159271 363.511353 91.242279 380.628418 79.02179 C 381.668335 78.280823 381.753906 77.252136 381.31897 76.392609 Z"/>
    <path id="Path-copy-15" fill="#245716" fill-rule="evenodd" stroke="none" d="M 39.877014 46.250793 L 32.357117 42.266418 L 26.568115 53.120361 L 34.116333 57.15509 L 39.877014 46.250793 Z"/>
    <path id="Path-copy-14" fill="#e7a098" fill-rule="evenodd" stroke="none" d="M 34.116333 57.15509 L 26.568115 53.120361 C 26.568115 53.120361 -9.25946 69.098633 2.380676 105.241577 C 2.435425 105.40213 2.499573 105.557953 2.574219 105.705505 C 3.401367 107.34021 5.416809 108.067719 7.133484 107.199097 C 16.220398 102.601135 40.077515 87.911499 34.116333 57.15509 Z"/>
    <path id="Path-copy-13" fill="#d1574a" fill-rule="evenodd" stroke="none" d="M 35.355835 54.186401 C 34.276245 52.052856 30.357422 53.162079 30.707886 55.994049 C 33.219604 77.28241 22.117493 97.402191 2.979309 106.953674 C 1.5224 107.655579 1.362793 109.130676 1.926819 110.245453 C 2.492126 111.362579 3.781067 112.119415 5.223755 111.389404 C 26.474792 100.839447 38.398438 78.488953 35.606506 55.059723 C 35.568481 54.722992 35.480225 54.432312 35.355835 54.186401 Z"/>
    <path id="Path-copy-12" fill="#fdfbf6" fill-rule="evenodd" stroke="none" d="M 24.662109 58.82373 C 24.201111 57.91272 23.204285 57.372803 22.116211 58.123413 C 14.931702 62.900085 9.576172 69.169312 5.916931 76.930603 C 5.64032 77.51178 5.66156 78.024658 5.868958 78.434509 C 6.514771 79.710876 8.957703 79.986786 9.781372 78.196289 C 12.963196 71.485504 17.787903 65.887878 23.956543 61.760529 C 25.0448 61.039276 25.126587 59.741791 24.662109 58.82373 Z"/>
    <path id="Path-copy-11" fill="#fdfbf6" fill-rule="evenodd" stroke="none" d="M 8.05365 81.420837 C 6.863892 79.069489 3.229126 80.908661 4.418884 83.26001 C 5.609863 85.613739 9.244629 83.774536 8.05365 81.420837 Z"/>
    <path id="Path-copy-10" fill="#245716" fill-rule="evenodd" stroke="none" d="M 110.938538 47.490723 L 102.641663 49.406189 L 105.37915 61.449554 L 113.703308 59.587921 L 110.938538 47.490723 Z"/>
    <path id="Path-copy-9" fill="#ffb700" fill-rule="evenodd" stroke="none" d="M 126.332581 74.553741 C 123.705322 69.361542 119.674622 64.255859 113.703308 59.587921 L 105.37915 61.449554 C 105.37915 61.449554 95.926819 81.678833 105.232971 100.070526 C 108.259521 106.051971 113.271301 111.84082 121.236633 116.676453 C 123.037537 117.712555 125.336975 116.949097 126.103577 115.016846 C 129.015869 107.895355 134.555542 90.80484 126.332581 74.553741 Z"/>
    <path id="Path-copy-8" fill="#dfa30c" fill-rule="evenodd" stroke="none" d="M 124.907959 72.930084 C 121.868347 66.922882 117.565735 61.419403 112.080566 56.782013 C 109.940247 54.988098 107.593994 57.972626 108.681824 60.122589 C 108.837097 60.429382 109.062683 60.718231 109.36908 60.975006 C 114.103516 64.977417 117.832275 69.777008 120.491516 75.03244 C 126.986694 87.868896 127.104614 103.43219 119.924561 116.734375 C 119.470825 117.587585 119.52887 118.428955 119.874878 119.112793 C 120.683105 120.710052 123.05658 121.441711 124.116394 119.449341 C 132.23175 104.373718 132.142639 87.227966 124.907959 72.930084 Z"/>
    <path id="Path-copy-7" fill="#fdfbf6" fill-rule="evenodd" stroke="none" d="M 109.006409 68.094879 C 108.265747 66.631134 105.774414 66.282684 105.196899 68.257477 C 103.038147 76.333221 102.969543 84.557404 105.232483 92.610809 C 105.275391 92.753815 105.327698 92.88623 105.389282 93.007996 C 106.410828 95.026794 109.941101 94.161224 109.248901 91.787537 C 107.175659 84.376465 107.115479 76.95578 109.142517 69.549774 C 109.2854 68.995056 109.212585 68.50238 109.006409 68.094879 Z"/>
    <path id="Path-copy-6" fill="#fdfbf6" fill-rule="evenodd" stroke="none" d="M 111.010681 95.932129 C 109.79364 93.526886 106.156555 95.367249 107.373596 97.772461 C 108.563354 100.12384 112.2005 98.283478 111.010681 95.932129 Z"/>
    <path id="Path-copy-5" fill="#245716" fill-rule="evenodd" stroke="none" d="M 228.272156 60.166595 L 220.645203 56.371704 L 215.070496 67.381927 L 222.724731 71.230682 L 228.272156 60.166595 Z"/>
    <path id="Path-copy-4" fill="#73c065" fill-rule="evenodd" stroke="none" d="M 222.724731 71.230682 L 215.070496 67.381927 C 215.070496 67.381927 179.622192 84.109619 192.147339 120.007721 C 192.199768 120.163574 192.261536 120.314697 192.333801 120.457581 C 193.16333 122.096985 195.230286 122.804291 196.924438 121.885284 C 205.876282 117.020355 229.409363 101.823975 222.724731 71.230682 Z"/>
    <path id="Path-copy-3" fill="#52963e" fill-rule="evenodd" stroke="none" d="M 222.962341 67.898193 C 221.793884 65.588989 217.71875 66.656738 218.32428 69.562592 C 222.847351 90.977478 211.746765 111.902527 191.612854 120.410553 C 190.142639 121.022095 189.968567 122.433899 190.530334 123.544006 C 191.092041 124.654114 192.387085 125.457825 193.858521 124.848633 C 215.998169 115.525757 228.209778 92.023529 223.195618 68.574402 C 223.142761 68.324615 223.063049 68.09729 222.962341 67.898224 Z"/>
    <path id="Path-copy-2" fill="#fffdfe" fill-rule="evenodd" stroke="none" d="M 213.702332 73.625031 C 213.167908 72.568787 211.645386 71.827179 210.326843 72.738525 C 203.49231 77.538147 198.40387 83.939941 194.957703 91.593384 C 194.70459 92.168579 194.735168 92.676727 194.942566 93.086578 C 195.60498 94.395752 198.076111 94.686768 198.903259 92.885681 C 202.002686 85.878326 206.825562 80.149231 213.127991 75.751251 C 213.979675 75.161438 214.055481 74.322968 213.702332 73.625031 Z"/>
    <path id="Path-copy" fill="#fffdfe" fill-rule="evenodd" stroke="none" d="M 197.310547 96.109589 C 196.120789 93.75824 192.432129 95.624664 193.621887 97.976044 C 194.811707 100.327393 198.500305 98.460968 197.310547 96.109589 Z"/>
</svg>
