<?xml version="1.0" encoding="UTF-8"?>
<!-- Generated by Pixelmator Pro 2.4.5 -->
<svg width="186" height="100" viewBox="0 0 186 100" xmlns="http://www.w3.org/2000/svg" xmlns:xlink="http://www.w3.org/1999/xlink">
    <path id="Path-copy-11" fill="#245716" fill-rule="evenodd" stroke="none" d="M 75.671692 23.047241 L 75.671692 23.047241 C 79.61499 27.821777 82.766113 33.788879 81.935974 39.630371 C 81.381042 43.745605 77.855957 48.480835 73.182434 47.914276 C 71.92395 47.767548 70.86792 47.325073 69.997009 46.676758 C 66.841736 44.32782 66.091492 39.262207 66.974365 35.610779 C 68.207825 30.484131 71.524414 26.266907 75.671692 23.047241 Z M 182.39978 10.47699 C 181.763733 10.003479 180.911743 9.872375 179.973328 10.38562 C 159.526001 21.773987 136.3479 12.92749 114.889954 10.137878 C 102.402832 8.534424 87.531921 9.376465 76.353882 15.89093 L 76.353882 15.89093 C 74.595398 14.216858 72.734436 12.661438 70.846741 11.256104 C 67.235474 8.567749 63.53241 6.431091 60.273193 5.064209 C 39.419617 -3.749084 15.260925 3.824036 2.036987 21.801697 C 1.018921 23.22644 1.586487 24.743835 2.667114 25.54834 C 3.745483 26.351135 5.336914 26.440918 6.3573 25.017883 C 15.950134 12.022522 32.116577 4.647339 48.25415 7.196655 C 55.29425 8.277771 61.984009 11.22406 67.676758 15.461975 C 68.734619 16.249512 69.753906 17.079224 70.73877 17.9505 C 71.112244 18.281738 71.489807 18.626587 71.86969 18.987305 L 71.86969 18.987305 C 68.551086 21.693604 65.73114 25.072266 63.629639 29.237366 C 60.003906 36.363831 59.978638 45.855255 66.909302 51.014771 C 66.995972 51.079254 67.08429 51.141479 67.172607 51.203674 C 73.63739 55.775391 81.813782 52.398102 85.461365 45.975281 C 90.408508 37.19281 86.778931 27.779785 80.271057 20.04364 L 80.271057 20.04364 C 81.692261 19.262695 83.150757 18.583862 84.609558 18.004517 C 100.338379 11.759766 117.351807 15.850525 133.318726 18.843262 C 149.525024 21.847717 167.047852 23.731018 182.09375 15.362183 C 184.160034 14.228699 183.80188 11.520813 182.39978 10.47699 Z"/>
    <path id="Path-copy-10" fill="#245716" fill-rule="evenodd" stroke="none" d="M 155.170654 18.609497 L 145.972168 19.447205 L 147.22699 32.754578 L 156.423767 31.919128 L 155.170654 18.609497 Z"/>
    <path id="Path-copy-9" fill="#d1574a" fill-rule="evenodd" stroke="none" d="M 156.423767 31.919128 L 147.22699 32.754517 C 147.22699 32.754517 124.219055 68.439484 156.243713 94.303284 C 156.271057 94.323669 156.30072 94.345703 156.328064 94.366089 C 158.058472 95.654266 160.610718 95.162537 161.739563 93.217865 C 167.156311 83.661743 180.15033 56.211761 156.423767 31.919128 Z"/>
    <path id="Path-copy-8" fill="#c63b3d" fill-rule="evenodd" stroke="none" d="M 157.494751 29.219177 C 155.146545 27.471008 151.616516 30.508911 153.702942 32.965637 C 168.933411 50.855499 169.270691 76.257019 154.61084 94.540466 C 153.51123 95.908081 154.041748 97.394409 155.122375 98.198853 C 156.200745 99.001648 157.829224 99.12262 158.928833 97.755005 C 175.050232 77.731995 174.674622 49.226318 157.998962 29.693726 C 157.839661 29.507813 157.670288 29.349854 157.494751 29.219177 Z"/>
    <path id="Path-copy-7" fill="#fffdfe" fill-rule="evenodd" stroke="none" d="M 149.500366 39.329559 C 148.447083 38.545471 146.6828 38.592651 145.995483 40.16803 C 142.444092 48.522614 141.28125 57.362122 142.545593 66.311218 C 142.639404 66.951508 142.940613 67.413147 143.344116 67.713562 C 144.716614 68.735291 147.281738 67.874023 146.994202 65.66153 C 145.835938 57.436279 146.883362 49.403809 150.126465 41.786987 C 150.584351 40.738861 150.200317 39.850616 149.500366 39.329559 Z"/>
    <path id="Path-copy-6" fill="#fffdfe" fill-rule="evenodd" stroke="none" d="M 147.460938 69.484833 C 145.171997 67.780853 142.537903 71.319153 144.826843 73.023132 C 147.118103 74.728851 149.752136 71.190552 147.460938 69.484833 Z"/>
    <path id="Path-copy-5" fill="#245716" fill-rule="evenodd" stroke="none" d="M 44.157898 6.397278 L 35.555664 3.069031 L 30.799622 15.540588 L 39.400146 18.871155 L 44.157898 6.397278 Z"/>
    <path id="Path-copy-4" fill="#ffb700" fill-rule="evenodd" stroke="none" d="M 41.17572 16.486145 L 32.575195 13.155579 C 32.575195 13.155579 -3.922791 34.91449 13.286072 72.312592 C 13.549011 72.873291 13.944031 73.337433 14.413696 73.687042 C 15.617432 74.583191 17.318176 74.726044 18.648987 73.799866 C 27.813293 67.681976 51.56958 48.807312 41.17572 16.486145 Z"/>
    <path id="Path-copy-3" fill="#dfa30c" fill-rule="evenodd" stroke="none" d="M 42.473145 12.572876 C 40.640137 11.208313 37.398987 12.197021 38.160583 14.886475 C 44.443604 37.517761 33.87561 60.952118 12.371277 70.8237 C 10.178894 71.8172 10.513 74.500183 11.974426 75.588104 C 12.628723 76.075195 13.510376 76.242615 14.491699 75.800262 C 38.040894 65.023834 50.430603 39.147217 43.515991 14.103943 C 43.32373 13.429321 42.945068 12.924194 42.473145 12.572876 Z"/>
    <path id="Path-copy-2" fill="#fffdfe" fill-rule="evenodd" stroke="none" d="M 30.797668 19.060608 C 30.097778 18.539612 29.136658 18.426514 28.263916 19.16571 C 21.39502 25.132202 16.43927 32.441284 13.52533 41.029541 C 13.168213 42.113708 13.604065 43.022827 14.317627 43.554047 C 15.398254 44.358521 17.115295 44.293854 17.656311 42.648529 C 20.299866 34.751953 24.700806 28.078613 30.999756 22.658752 C 32.311768 21.548462 31.850952 19.844727 30.797668 19.060608 Z"/>
    <path id="Path-copy" fill="#fffdfe" fill-rule="evenodd" stroke="none" d="M 15.785706 45.380249 C 13.494446 43.67453 10.82135 47.265289 13.11261 48.970978 C 15.453979 50.71402 18.127075 47.12326 15.785706 45.380249 Z"/>
</svg>
