<?xml version="1.0" encoding="UTF-8"?>
<!-- Generated by Pixelmator Pro 2.4.5 -->
<svg width="187" height="100" viewBox="0 0 187 100" xmlns="http://www.w3.org/2000/svg" xmlns:xlink="http://www.w3.org/1999/xlink">
    <path id="Path-copy-11" fill="#245716" fill-rule="evenodd" stroke="none" d="M 108.926163 23.047241 L 108.926163 23.047241 C 104.98288 27.821777 101.831741 33.788879 102.66188 39.630371 C 103.216797 43.745605 106.741898 48.480835 111.415405 47.914276 C 112.673904 47.767548 113.72995 47.325073 114.600845 46.676758 C 117.756134 44.32782 118.506348 39.262207 117.623505 35.610779 C 116.39006 30.484131 113.073425 26.266907 108.926163 23.047241 Z M 2.198059 10.47699 C 2.834129 10.003479 3.686127 9.872375 4.624512 10.38562 C 25.071838 21.773987 48.249931 12.92749 69.707916 10.137878 C 82.194992 8.534424 97.065948 9.376465 108.243958 15.89093 L 108.243958 15.89093 C 110.002441 14.216858 111.863403 12.661438 113.751099 11.256104 C 117.362366 8.567749 121.065445 6.431091 124.324677 5.064209 C 145.178268 -3.749084 169.336945 3.824036 182.560837 21.801697 C 183.578964 23.22644 183.011368 24.743835 181.930725 25.54834 C 180.852356 26.351135 179.260956 26.440918 178.240555 25.017883 C 168.647751 12.022522 152.481293 4.647339 136.343674 7.196655 C 129.303604 8.277771 122.613861 11.22406 116.921112 15.461975 C 115.863266 16.249512 114.843933 17.079224 113.859116 17.9505 C 113.485596 18.281738 113.108063 18.626587 112.728195 18.987305 L 112.728195 18.987305 C 116.046799 21.693604 118.866745 25.072266 120.968216 29.237366 C 124.593948 36.363831 124.619232 45.855255 117.688522 51.014771 C 117.601898 51.079254 117.513565 51.141479 117.425232 51.203674 C 110.96048 55.775391 102.784058 52.398102 99.136505 45.975281 C 94.189362 37.19281 97.818909 27.779785 104.326767 20.04364 L 104.326767 20.04364 C 102.905594 19.262695 101.447113 18.583862 99.988266 18.004517 C 84.25946 11.759766 67.246078 15.850525 51.279121 18.843262 C 35.072815 21.847717 17.550011 23.731018 2.504089 15.362183 C 0.437851 14.228699 0.795959 11.520813 2.198059 10.47699 Z"/>
    <path id="Path-copy-10" fill="#245716" fill-rule="evenodd" stroke="none" d="M 29.427231 18.609497 L 38.625679 19.447205 L 37.370857 32.754578 L 28.17411 31.919128 L 29.427231 18.609497 Z"/>
    <path id="Path-copy-9" fill="#d1574a" fill-rule="evenodd" stroke="none" d="M 28.174088 31.919128 L 37.370842 32.754517 C 37.370842 32.754517 60.378807 68.439484 28.354149 94.303284 C 28.32679 94.323669 28.29715 94.345703 28.269791 94.366089 C 26.539398 95.654266 23.987122 95.162537 22.858299 93.217865 C 17.441544 83.661743 4.447525 56.211761 28.174088 31.919128 Z"/>
    <path id="Path-copy-8" fill="#c63b3d" fill-rule="evenodd" stroke="none" d="M 27.103111 29.219177 C 29.45134 27.471008 32.981361 30.508911 30.894928 32.965637 C 15.664444 50.855499 15.327179 76.257019 29.987022 94.540466 C 31.086639 95.908081 30.556099 97.394409 29.475456 98.198853 C 28.397095 99.001648 26.768631 99.12262 25.669014 97.755005 C 9.547646 77.731995 9.923264 49.226318 26.598915 29.693726 C 26.758171 29.507813 26.927559 29.349854 27.103111 29.219177 Z"/>
    <path id="Path-copy-7" fill="#fffdfe" fill-rule="evenodd" stroke="none" d="M 35.097473 39.329559 C 36.150757 38.545471 37.915039 38.592651 38.602364 40.16803 C 42.153786 48.522614 43.316574 57.362122 42.052284 66.311218 C 41.958481 66.951508 41.657265 67.413147 41.253731 67.713562 C 39.881271 68.735291 37.316101 67.874023 37.603668 65.66153 C 38.761925 57.436279 37.714493 49.403809 34.471375 41.786987 C 34.013535 40.738861 34.39756 39.850616 35.097473 39.329559 Z"/>
    <path id="Path-copy-6" fill="#fffdfe" fill-rule="evenodd" stroke="none" d="M 37.136932 69.484833 C 39.425888 67.780853 42.059959 71.319153 39.771004 73.023132 C 37.479767 74.728851 34.845703 71.190552 37.136932 69.484833 Z"/>
    <path id="Path-copy-5" fill="#245716" fill-rule="evenodd" stroke="none" d="M 140.439941 6.397278 L 149.042175 3.069031 L 153.798233 15.540588 L 145.197708 18.871155 L 140.439941 6.397278 Z"/>
    <path id="Path-copy-4" fill="#ffb700" fill-rule="evenodd" stroke="none" d="M 143.422165 16.486145 L 152.02269 13.155579 C 152.02269 13.155579 188.52063 34.91449 171.311768 72.312592 C 171.048843 72.873291 170.653824 73.337433 170.184174 73.687042 C 168.980423 74.583191 167.279694 74.726044 165.948853 73.799866 C 156.784576 67.681976 133.02829 48.807312 143.422165 16.486145 Z"/>
    <path id="Path-copy-3" fill="#dfa30c" fill-rule="evenodd" stroke="none" d="M 142.124741 12.572876 C 143.957718 11.208313 147.198883 12.197021 146.437241 14.886475 C 140.154251 37.517761 150.722244 60.952118 172.226608 70.8237 C 174.418976 71.8172 174.084824 74.500183 172.623459 75.588104 C 171.969147 76.075195 171.087448 76.242615 170.106186 75.800262 C 146.556946 65.023834 134.167252 39.147217 141.081863 14.103943 C 141.274124 13.429321 141.652817 12.924194 142.124741 12.572876 Z"/>
    <path id="Path-copy-2" fill="#fffdfe" fill-rule="evenodd" stroke="none" d="M 153.800186 19.060608 C 154.500107 18.539612 155.461182 18.426514 156.333954 19.16571 C 163.202805 25.132202 168.158615 32.441284 171.072556 41.029541 C 171.429642 42.113708 170.99382 43.022827 170.280228 43.554047 C 169.199585 44.358521 167.482544 44.293854 166.941559 42.648529 C 164.298019 34.751953 159.897034 28.078613 153.598068 22.658752 C 152.286072 21.548462 152.746902 19.844727 153.800186 19.060608 Z"/>
    <path id="Path-copy" fill="#fffdfe" fill-rule="evenodd" stroke="none" d="M 168.812164 45.380249 C 171.103409 43.67453 173.776505 47.265289 171.485275 48.970978 C 169.14389 50.71402 166.470779 47.12326 168.812164 45.380249 Z"/>
</svg>
