<?xml version="1.0" encoding="UTF-8"?>
<!-- Generated by Pixelmator Pro 2.4.5 -->
<svg width="120" height="156" viewBox="0 0 120 156" xmlns="http://www.w3.org/2000/svg" xmlns:xlink="http://www.w3.org/1999/xlink">
    <path id="Path-copy-8" fill="#ffb700" fill-rule="evenodd" stroke="none" d="M 28.48819 1.821533 C 13.133858 1.821533 -1.813652 13.595795 2.057739 41.792664 C 8.110237 85.86615 44.816269 129.280853 44.816269 129.280853 L 105.401581 124.677155 C 105.401581 124.677155 102.572174 116.782166 108.230972 83.233582 C 113.887146 49.685028 116.385834 37.18634 105.401581 29.293976 C 104.194229 28.419952 103.049866 28.039368 101.952759 28.039368 C 94.225723 28.039368 88.832016 46.994751 79.989502 46.994751 C 78.732285 46.994751 77.40683 46.611542 75.997375 45.737518 C 63.236221 37.845154 67.049866 30.608917 51.524933 12.188965 C 45.910767 5.553802 37.133865 1.821533 28.48819 1.821533 Z"/>
    <path id="Path-copy-7" fill="#dfa30c" fill-rule="evenodd" stroke="none" d="M 56.656174 18.834656 C 40.54068 24.490814 27.120728 35.67453 16.398956 49.685028 C 12.913383 54.157471 9.425194 58.370087 7.12336 62.842529 C 8.503937 67.05249 10.149605 71.196838 11.860893 75.275604 C 18.503937 52.18634 38.238846 34.225708 62.380585 28.110229 C 60.931763 25.412079 59.157486 22.385834 56.656174 18.834656 Z"/>
    <path id="Path-copy-6" fill="#dfa30c" fill-rule="evenodd" stroke="none" d="M 64.813644 32.910767 C 41.59317 43.435699 26.595795 66 18.963257 90.141724 C 22.451447 96.719147 26.133865 102.771667 29.48819 108.034119 C 35.015747 82.246704 48.698166 56.396332 69.417328 40.212585 C 67.51181 38.041992 66.194229 35.67453 64.813644 32.910767 Z"/>
    <path id="Path-copy-5" fill="#dfa30c" fill-rule="evenodd" stroke="none" d="M 73.167984 43.766418 C 54.816269 66.986877 45.409454 95.732269 41.855637 125.467194 C 43.698166 127.900269 44.816269 129.280853 44.816269 129.280853 L 64.879272 127.7034 C 63.036743 100.007874 68.564301 71.328094 80.86351 46.923889 L 80.86351 46.923889 C 80.590546 46.958008 80.312332 46.976379 80.034119 46.976379 C 78.771652 46.976379 77.451447 46.601044 75.997375 45.737518 C 74.944885 45.08136 74.023621 44.422577 73.167984 43.766418 Z"/>
    <path id="Path-copy-4" fill="#dfa30c" fill-rule="evenodd" stroke="none" d="M 95.401581 32.188965 C 92.968506 35.015747 90.601044 38.832031 88.099731 41.858276 C 82.181107 69.288727 79.745407 98.496063 84.548553 126.254608 L 104.545929 124.742767 C 97.968506 94.417328 96.257217 62.973755 95.401581 32.188965 Z"/>
    <path id="Path-copy-3" fill="#dfa30c" fill-rule="evenodd" stroke="none" d="M 45.934387 7.191589 C 30.937012 10.545929 12.385834 14.097107 2.12336 25.21521 C 1.267715 29.950134 1.202103 35.477692 2.057739 41.792664 C 2.057739 41.858276 2.12336 41.989502 2.12336 42.120728 C 14.031494 27.188965 34.619415 17.716522 53.039368 14.031494 C 52.51181 13.375336 52.05249 12.782166 51.524933 12.188965 C 49.881897 10.283478 47.973755 8.572174 45.934387 7.191589 Z"/>
    <path id="Path-copy-2" fill="#fdfbf6" fill-rule="evenodd" stroke="none" d="M 100.78215 114.889771 C 97.191605 114.889771 92.002625 115.209961 83.955383 115.795288 C 63.236221 117.24408 41.855637 125.467194 41.855637 125.467194 C 34.16011 128.624664 32.711288 137.503937 35.475067 145.398956 C 37.692917 151.587921 40.477692 156.078735 48.905518 156.078735 C 51.225723 156.078735 53.97113 155.740143 57.249344 155.002625 C 72.443573 151.514435 109.874008 145.858276 114.808395 138.490814 C 119.740158 131.057739 115.333328 120.467194 110.860886 117.506561 C 108.16011 115.692902 106.472443 114.889771 100.78215 114.889771 Z"/>
    <path id="Path-copy" fill="#f5eace" fill-rule="evenodd" stroke="none" d="M 109.464569 131.118103 C 106.212601 131.118103 101.102356 131.690277 93.296585 133.110229 C 79.482941 135.543304 45.54068 143.56955 44.288712 148.370087 C 43.448822 151.64566 46.627304 152.181091 48.797897 152.181091 C 49.853012 152.181091 50.671921 152.055115 50.671921 152.055115 C 69.023621 149.291351 108.362198 138.700775 111.254593 137.320221 C 114.149612 135.937012 115.530182 133.241455 114.018372 131.992126 C 113.335953 131.451447 111.939636 131.118103 109.464569 131.118103 Z"/>
</svg>
