<?xml version="1.0" encoding="UTF-8"?>
<!-- Generated by Pixelmator Pro 2.4.5 -->
<svg width="119" height="156" viewBox="0 0 119 156" xmlns="http://www.w3.org/2000/svg" xmlns:xlink="http://www.w3.org/1999/xlink">
    <path id="Path-copy-8" fill="#ffb700" fill-rule="evenodd" stroke="none" d="M 89.511841 1.820221 C 104.86615 1.820221 119.81366 13.594482 115.942261 41.791351 C 109.889771 85.864838 73.183716 129.279541 73.183716 129.279541 L 12.59845 124.675842 C 12.59845 124.675842 15.427795 116.780853 9.769043 83.232269 C 4.112854 49.683716 1.614197 37.185028 12.59845 29.292664 C 13.805786 28.41864 14.950134 28.038055 16.047241 28.038055 C 23.774292 28.038055 29.167969 46.993439 38.010498 46.993439 C 39.2677 46.993439 40.593201 46.610229 42.002625 45.736206 C 54.763794 37.843842 50.950134 30.607605 66.475037 12.187653 C 72.089233 5.55249 80.86615 1.820221 89.511841 1.820221 Z"/>
    <path id="Path-copy-7" fill="#dfa30c" fill-rule="evenodd" stroke="none" d="M 61.343811 18.833344 C 77.45929 24.489502 90.879272 35.673218 101.601074 49.683716 C 105.086609 54.156158 108.574829 58.368774 110.876648 62.841217 C 109.496033 67.051178 107.850403 71.195526 106.139099 75.274292 C 99.496033 52.185028 79.761169 34.224396 55.619446 28.108917 C 57.068237 25.410767 58.842529 22.384521 61.343811 18.833344 Z"/>
    <path id="Path-copy-6" fill="#dfa30c" fill-rule="evenodd" stroke="none" d="M 53.18634 32.909454 C 76.406799 43.434387 91.404175 65.998688 99.036743 90.140411 C 95.548584 96.717834 91.86615 102.770355 88.511841 108.032806 C 82.984253 82.245392 69.301819 56.39502 48.582703 40.211273 C 50.488159 38.04068 51.805786 35.673218 53.18634 32.909454 Z"/>
    <path id="Path-copy-5" fill="#dfa30c" fill-rule="evenodd" stroke="none" d="M 44.832031 43.765106 C 63.183716 66.985565 72.590576 95.730957 76.144348 125.465881 C 74.301819 127.898956 73.183716 129.279541 73.183716 129.279541 L 53.120728 127.702087 C 54.963257 100.006561 49.435669 71.326782 37.136475 46.922577 L 37.136475 46.922577 C 37.409424 46.956696 37.687683 46.975067 37.965881 46.975067 C 39.228333 46.975067 40.548584 46.599731 42.002625 45.736206 C 43.055115 45.080048 43.976379 44.421265 44.832031 43.765106 Z"/>
    <path id="Path-copy-4" fill="#dfa30c" fill-rule="evenodd" stroke="none" d="M 22.59845 32.187653 C 25.031494 35.014435 27.398926 38.830719 29.900269 41.856964 C 35.818909 69.287415 38.254578 98.494751 33.451416 126.253296 L 13.454041 124.741455 C 20.031494 94.416016 21.742798 62.972443 22.59845 32.187653 Z"/>
    <path id="Path-copy-3" fill="#dfa30c" fill-rule="evenodd" stroke="none" d="M 72.065613 7.190277 C 87.062988 10.544617 105.614197 14.095795 115.876648 25.213898 C 116.7323 29.948822 116.797913 35.476379 115.942261 41.791351 C 115.942261 41.856964 115.876648 41.98819 115.876648 42.119415 C 103.968506 27.187653 83.380554 17.71521 64.960632 14.030182 C 65.488159 13.374023 65.94751 12.780853 66.475037 12.187653 C 68.118103 10.282166 70.026245 8.570862 72.065613 7.190277 Z"/>
    <path id="Path-copy-2" fill="#fdfbf6" fill-rule="evenodd" stroke="none" d="M 17.217834 114.888458 C 20.808411 114.888458 25.997375 115.208649 34.044617 115.793976 C 54.763794 117.242767 76.144348 125.465881 76.144348 125.465881 C 83.839905 128.623352 85.288696 137.502625 82.524963 145.397644 C 80.307068 151.586609 77.522339 156.077423 69.094482 156.077423 C 66.774292 156.077423 64.02887 155.738831 60.750671 155.001312 C 45.556458 151.513123 8.125977 145.856964 3.191589 138.489502 C -1.740173 131.056427 2.666687 120.465881 7.139099 117.505249 C 9.839905 115.691589 11.527588 114.888458 17.217834 114.888458 Z"/>
    <path id="Path-copy" fill="#f5eace" fill-rule="evenodd" stroke="none" d="M 8.535461 131.116791 C 11.787415 131.116791 16.897644 131.688965 24.70343 133.108917 C 38.51709 135.541992 72.45929 143.568237 73.711304 148.368774 C 74.551208 151.644348 71.372681 152.179779 69.202087 152.179779 C 68.146973 152.179779 67.328064 152.053802 67.328064 152.053802 C 48.976379 149.290039 9.637817 138.699463 6.745422 137.318909 C 3.850403 135.935699 2.469788 133.240143 3.981628 131.990814 C 4.664063 131.450134 6.060364 131.116791 8.535461 131.116791 Z"/>
</svg>
