<?xml version="1.0" encoding="UTF-8"?>
<!-- Generated by Pixelmator Pro 2.4.5 -->
<svg width="256" height="201" viewBox="0 0 256 201" xmlns="http://www.w3.org/2000/svg" xmlns:xlink="http://www.w3.org/1999/xlink">
    <path id="Path-copy-44" fill="#fdfbf6" fill-opacity="0.567" fill-rule="evenodd" stroke="none" d="M 0.021118 182.593719 L 0.021118 182.593719 C 0.021118 177.718811 13.417114 173.04361 37.262268 169.596527 C 61.107361 166.149475 93.448242 164.212921 127.170288 164.212921 L 127.170288 164.212921 C 197.392883 164.212921 254.319519 172.442291 254.319519 182.593719 L 254.319519 182.593719 C 254.319519 192.745148 197.392883 200.974487 127.170288 200.974487 L 127.170288 200.974487 C 56.947754 200.974487 0.021118 192.745148 0.021118 182.593719 Z"/>
    <path id="Path-copy-43" fill="#52963e" fill-rule="evenodd" stroke="none" d="M 127.447571 42.628723 C 100.728638 42.628723 74.51355 44.562439 74.67395 48.629517 C 74.67395 87.497314 74.346741 123.907837 76.152893 164.994019 C 76.277222 168.15802 98.978149 169.146179 122.9552 169.146179 C 146.179626 169.146179 170.59845 168.220184 176.85437 167.454559 C 188.168884 166.060699 183.251099 161.38504 183.332886 112.429749 C 183.414673 89.221649 183.332886 71.834351 183.332886 48.629517 C 183.372192 44.706421 155.141541 42.628723 127.447571 42.628723 Z"/>
    <path id="Path-copy-42" fill="#73c065" fill-rule="evenodd" stroke="none" d="M 85.291565 51.891907 C 78.809753 51.891907 77.900146 62.159363 86.237122 62.159363 C 92.470276 62.159363 93.291504 52.071869 85.746338 51.908264 C 85.59259 51.898438 85.442078 51.891907 85.291565 51.891907 Z"/>
    <path id="Path-copy-41" fill="#73c065" fill-rule="evenodd" stroke="none" d="M 131.87262 98.14566 C 125.390808 98.14566 124.481201 108.409851 132.818237 108.409851 C 139.051331 108.409851 139.787537 98.40744 132.327393 98.162018 C 132.170349 98.148956 132.019836 98.14566 131.87262 98.14566 Z"/>
    <path id="Path-copy-40" fill="#73c065" fill-rule="evenodd" stroke="none" d="M 133.835815 145.135651 C 127.282104 145.135651 126.447754 155.399841 134.784729 155.399841 C 141.017822 155.399841 141.757324 145.315613 134.293945 145.152008 C 134.136841 145.138916 133.986328 145.135651 133.835815 145.135651 Z"/>
    <path id="Path-copy-39" fill="#73c065" fill-rule="evenodd" stroke="none" d="M 173.95459 50.164246 C 167.534973 50.164246 166.661377 60.438263 174.968933 60.438263 C 181.202026 60.438263 181.941467 50.350769 174.478088 50.187164 C 174.298157 50.170807 174.124756 50.164246 173.95459 50.164246 Z"/>
    <path id="Path-copy-38" fill="#73c065" fill-rule="evenodd" stroke="none" d="M 166.235779 125.365906 C 159.750732 125.365906 158.952393 135.558105 167.178101 135.636627 C 173.493042 135.636627 174.232483 125.552399 166.769104 125.385529 C 166.589172 125.372437 166.409241 125.365906 166.235779 125.365906 Z"/>
    <path id="Path-copy-37" fill="#73c065" fill-rule="evenodd" stroke="none" d="M 126.378845 69.194519 C 119.90033 69.194519 119.065979 79.461975 127.324402 79.461975 C 133.557556 79.461975 134.375549 69.377747 126.830322 69.210876 C 126.676575 69.20108 126.526062 69.194519 126.378845 69.194519 Z"/>
    <path id="Path-copy-36" fill="#73c065" fill-rule="evenodd" stroke="none" d="M 88.485046 77.970184 C 81.931335 77.970184 81.096985 88.23764 89.355408 88.23764 C 95.667053 88.23764 96.406555 78.231934 88.943176 77.986542 C 88.789368 77.976746 88.635559 77.970184 88.485046 77.970184 Z"/>
    <path id="Path-copy-35" fill="#73c065" fill-rule="evenodd" stroke="none" d="M 168.45752 88.709076 C 162.044434 88.709076 161.24939 98.89798 169.475098 98.89798 C 169.501282 98.89798 169.52417 98.89798 169.550354 98.89798 C 175.714783 98.89798 176.496765 88.892303 168.984314 88.728699 C 168.804382 88.715607 168.627686 88.709076 168.45752 88.709076 Z"/>
    <path id="Path-copy-34" fill="#73c065" fill-rule="evenodd" stroke="none" d="M 117.197388 45.406677 C 110.709106 45.406677 109.910706 55.602173 118.139771 55.680695 C 124.454651 55.680695 125.190857 45.593201 117.727478 45.429596 C 117.547546 45.416504 117.37085 45.406677 117.197388 45.406677 Z"/>
    <path id="Path-copy-33" fill="#73c065" fill-rule="evenodd" stroke="none" d="M 159.17804 68.049316 C 154.679077 68.049316 154.132629 75.198578 159.88147 75.198578 C 164.226685 75.198578 164.799255 68.147461 159.551025 68.065674 C 159.423401 68.052582 159.299072 68.049316 159.17804 68.049316 Z"/>
    <path id="Path-copy-32" fill="#73c065" fill-rule="evenodd" stroke="none" d="M 106.77594 62.637329 C 102.273743 62.637329 101.648743 69.786591 107.479431 69.786591 C 107.502319 69.786591 107.528503 69.786591 107.551392 69.786591 C 111.831177 69.786591 112.367737 62.814026 107.148987 62.650421 C 107.021362 62.640625 106.897034 62.637329 106.77594 62.637329 Z"/>
    <path id="Path-copy-31" fill="#73c065" fill-rule="evenodd" stroke="none" d="M 159.17804 104.869751 C 154.679077 104.869751 154.132629 112.019012 159.88147 112.019012 C 164.226685 112.019012 164.799255 104.967896 159.551025 104.886108 C 159.423401 104.873016 159.299072 104.869751 159.17804 104.869751 Z"/>
    <path id="Path-copy-30" fill="#73c065" fill-rule="evenodd" stroke="none" d="M 139.404968 126.196991 C 134.840576 126.196991 134.254883 133.424805 140.033142 133.424805 C 144.46344 133.424805 144.954224 126.370422 139.705994 126.206818 C 139.604553 126.200256 139.503113 126.196991 139.404968 126.196991 Z"/>
    <path id="Path-copy-29" fill="#73c065" fill-rule="evenodd" stroke="none" d="M 159.17804 156.123199 C 154.679077 156.123199 154.132629 163.272461 159.88147 163.272461 C 159.904419 163.275757 159.930603 163.275757 159.956726 163.275757 C 164.233215 163.275757 164.769836 156.303162 159.551025 156.139557 C 159.423401 156.129761 159.299072 156.123199 159.17804 156.123199 Z"/>
    <path id="Path-copy-28" fill="#73c065" fill-rule="evenodd" stroke="none" d="M 108.074951 90.19458 C 103.513855 90.19458 102.931396 97.343842 108.706482 97.422363 C 113.136719 97.422363 113.627502 90.371277 108.379272 90.207672 C 108.274536 90.197845 108.173096 90.19458 108.074951 90.19458 Z"/>
    <path id="Path-copy-27" fill="#245716" fill-rule="evenodd" stroke="none" d="M 150.860352 41.656921 L 142.657532 41.738708 C 142.824402 50.923157 142.906189 60.356262 142.906189 69.786072 C 142.906189 102.669434 142.166687 137.110229 142.166687 170.160461 L 150.366272 170.160461 C 150.366272 137.195313 151.105774 102.833038 151.105774 69.786072 C 151.105774 60.274475 151.023926 50.84137 150.860352 41.656921 Z"/>
    <path id="Path-copy-26" fill="#245716" fill-rule="evenodd" stroke="none" d="M 73.443604 83.153137 L 73.280029 91.352692 C 88.861145 91.764954 104.524109 91.846741 120.023438 91.846741 C 142.164917 91.846741 164.060913 91.601349 185.217529 91.601349 L 185.217529 83.398499 C 163.979126 83.398499 142.083069 83.647186 120.023438 83.647186 C 104.524109 83.647186 88.942932 83.562134 73.443604 83.153137 Z"/>
    <path id="Path-copy-25" fill="#245716" fill-rule="evenodd" stroke="none" d="M 142.987061 8.690765 C 143.150696 8.690765 143.396057 8.772583 143.641479 8.772583 C 143.886902 8.85437 144.053772 8.85437 144.217346 8.936157 C 144.871765 9.266632 145.365784 9.675629 145.856628 10.660492 C 146.347412 11.64209 146.677856 13.03595 146.841492 14.514893 C 147.005066 16.072327 147.005066 17.629791 146.923279 19.350861 C 146.759644 22.632629 146.265625 26.074768 145.692993 29.601959 L 145.447632 31.035095 L 145.447632 31.035095 C 145.336365 30.832214 145.225098 30.626099 145.117126 30.423218 C 143.396057 27.386841 141.838623 24.353699 140.608337 21.23877 C 140.032471 19.681335 139.4599 18.038788 139.13269 16.563141 C 138.720398 15.005676 138.475037 13.530029 138.475037 12.217957 C 138.39325 10.905884 138.720398 10.002808 139.050903 9.675629 C 139.214478 9.512024 139.378113 9.34845 139.705261 9.184814 C 140.032471 9.017944 140.444763 8.85437 141.017334 8.772583 C 141.344543 8.690765 141.675049 8.690765 142.002197 8.690765 Z M 119.471375 22.115662 C 120.030884 22.115662 120.626404 22.200745 121.254639 22.387268 C 122.648499 22.796265 124.042358 23.53244 125.436218 24.435486 C 126.911865 25.338562 128.223938 26.48703 129.536011 27.635498 C 132.160095 30.096008 134.702454 32.720154 137.162964 35.507874 L 140.85376 39.77124 L 142.754761 41.911133 L 142.754761 41.911133 C 140.313904 41.724609 137.918762 41.315613 135.523682 40.837921 C 131.832947 40.016663 128.305725 38.949982 124.863586 37.474304 C 121.5 36.080444 118.221497 34.277588 115.760986 31.980682 C 114.530701 30.914001 113.627625 29.601959 113.382263 28.371704 C 113.136841 27.305023 113.46405 26.241638 114.367126 25.09317 C 114.776123 24.517303 115.270203 23.944702 115.842773 23.450623 C 116.088196 23.287048 116.169983 23.205261 116.333557 23.123444 C 116.415344 23.041626 116.582214 22.959839 116.664063 22.878052 C 116.991211 22.714447 117.236633 22.632629 117.563843 22.469055 C 118.149536 22.243286 118.784302 22.115662 119.471375 22.115662 Z M 166.473328 21.634705 C 167.252075 21.634705 168.014404 21.860474 168.734253 22.220398 C 169.800903 22.714447 170.785767 23.617493 171.688843 24.762695 C 172.016052 25.338562 172.506836 25.992981 172.755493 26.568848 C 173.082703 27.141418 173.328125 27.717285 173.409912 28.289886 C 173.655273 29.438354 173.409912 30.505005 172.755493 31.653503 C 172.097839 32.720154 170.949402 33.701721 169.719116 34.604797 C 168.488831 35.507874 167.094971 36.24408 165.701111 36.983521 C 162.831604 38.37738 159.716675 39.525848 156.680298 40.507446 L 152.007935 42.068176 C 151.7854 42.133606 151.562927 42.199036 151.343689 42.267761 L 151.343689 42.267761 C 151.448425 41.76062 151.448425 41.233826 151.340454 40.723389 L 151.340454 40.723389 C 152.070068 38.187622 153.084412 35.720551 154.219788 33.374542 C 155.53186 30.66864 157.174377 28.044495 159.059021 25.911163 C 161.028748 23.781128 163.404175 22.056763 165.619324 21.729584 C 165.903992 21.664124 166.191956 21.634705 166.473328 21.634705 Z M 142.084045 0.491211 L 141.675049 0.572998 C 141.099121 0.572998 140.52655 0.572998 139.868896 0.654785 C 138.720398 0.81839 137.408386 1.145569 136.096313 1.803253 C 134.784241 2.375854 133.472168 3.360718 132.572388 4.672791 C 131.587524 5.903046 131.014954 7.296906 130.684448 8.608948 C 130.357239 9.921021 130.275452 11.151306 130.275452 12.299744 C 130.357239 14.59668 130.766235 16.644928 131.260315 18.614685 C 131.518799 19.501373 131.79364 20.355347 132.084839 21.189697 L 132.084839 21.189697 C 131.034546 20.430603 129.935181 19.694397 128.799805 19.023682 C 126.911865 17.957001 124.945435 17.05719 122.648499 16.563141 C 121.725769 16.379883 120.803101 16.288269 119.880371 16.288269 C 119.572815 16.288269 119.265259 16.298096 118.957703 16.317749 C 117.64563 16.399536 116.333557 16.808533 115.18512 17.302612 C 114.612488 17.629791 114.039917 17.957001 113.545837 18.28418 C 113.300476 18.532867 113.055054 18.696472 112.809631 18.941864 C 112.560974 19.105469 112.315613 19.350861 112.151978 19.514465 C 111.33075 20.335724 110.676331 21.156982 110.018677 22.220398 C 109.364258 23.205261 108.873474 24.435486 108.624817 25.747559 C 108.379395 27.059631 108.461182 28.453491 108.873474 29.683746 C 109.691467 32.226074 111.33075 33.865356 112.973267 35.259216 C 114.694336 36.571259 116.497192 37.556122 118.303284 38.37738 C 120.10614 39.195374 121.99408 39.853058 123.878723 40.425659 C 125.766663 40.919708 127.651306 41.410522 129.536011 41.737701 C 131.42395 42.068176 133.308594 42.313599 135.27832 42.477173 C 136.659058 42.598236 138.082397 42.673492 139.486084 42.673492 C 140.003052 42.673492 140.513489 42.663696 141.017334 42.640778 C 141.78302 42.608032 142.535522 42.565521 143.281555 42.500061 L 143.281555 42.500061 C 143.795288 43.069397 144.341675 43.651794 145.035339 44.280029 C 145.794434 44.94751 146.743286 45.304169 147.688904 45.304169 C 148.487244 45.304169 149.282349 45.052216 149.95636 44.528687 C 150.492981 44.100067 150.888916 43.556946 151.131042 42.964722 L 151.131042 42.964722 C 153.084412 42.634216 155.03125 42.297211 157.007507 41.904602 C 160.289307 41.246918 163.486023 40.507446 166.685974 39.362244 C 168.325256 38.786377 169.88269 38.131989 171.44342 37.228943 C 172.919128 36.325867 174.476563 35.259216 175.706848 33.701721 C 176.279419 32.883728 176.855286 31.980682 177.182495 30.995819 C 177.427917 29.929138 177.591492 28.783966 177.427917 27.717285 C 177.346069 26.650635 177.100708 25.747559 176.691711 24.762695 C 176.279419 23.862915 175.870422 23.041626 175.379639 22.30545 C 174.394775 20.662903 173.082703 19.105469 171.27655 17.957001 C 169.732178 16.926331 167.723206 16.291565 165.72406 16.291565 C 165.498291 16.291565 165.272522 16.301392 165.046753 16.317749 C 162.913391 16.481323 160.861877 17.220795 159.222595 18.202393 C 157.501587 19.187256 156.025879 20.335724 154.713867 21.647766 C 154.687683 21.67395 154.661499 21.696869 154.635315 21.723022 L 154.635315 21.723022 C 154.697449 21.075195 154.753113 20.420776 154.795654 19.763123 C 154.959229 17.793396 154.959229 15.826935 154.795654 13.775391 C 154.632019 11.723877 154.219788 9.512024 153.156372 7.215088 C 152.662292 6.06665 151.926086 4.918182 150.941223 3.851501 C 149.95636 2.869934 148.644348 1.966858 147.332275 1.476074 C 146.677856 1.145569 146.020203 0.981995 145.365784 0.81839 C 144.70813 0.654785 144.053772 0.572998 143.31427 0.572998 C 142.987061 0.491211 142.823486 0.491211 142.574829 0.491211 Z"/>
    <path id="Path-copy-24" fill="#245716" fill-rule="evenodd" stroke="none" d="M 142.41156 41.329712 C 141.675354 42.805359 140.363342 44.775085 138.720764 46.823364 C 136.345337 50.023346 133.227173 53.547272 130.194031 56.665466 C 128.718384 58.2229 127.242676 59.698578 125.848816 60.928833 C 124.454956 62.159119 123.224731 63.225769 122.158081 63.880157 L 126.830444 70.607361 C 128.718384 69.295288 130.766602 67.570953 132.899963 65.604492 C 136.09668 62.568115 139.460266 58.962402 142.41156 55.353394 C 143.887268 53.547272 145.281128 51.826202 146.511353 50.105164 C 147.741638 48.384094 148.808289 46.823364 149.629578 45.347717 L 142.41156 41.329712 Z"/>
    <path id="Path-copy-23" fill="#245716" fill-rule="evenodd" stroke="none" d="M 151.023987 40.181213 L 144.463684 45.102264 C 147.496826 49.202057 150.778625 53.795898 154.384338 58.141083 C 158.075134 62.40448 162.011292 66.58606 166.686951 69.622437 L 171.19574 62.816742 C 167.590027 60.438019 164.062805 56.829041 160.699219 52.811035 C 157.338928 48.79306 154.138916 44.362793 151.023987 40.181213 Z"/>
    <path id="Path-copy-22" fill="#33846a" fill-rule="evenodd" stroke="none" d="M 210.041199 116.276123 C 194.86908 116.276123 177.507935 117.234802 168.163208 118.170593 C 169.475281 140.312042 166.523926 178.443634 171.032715 183.364685 C 172.253174 184.729126 193.635498 186.469818 211.916016 186.469818 C 224.39209 186.469818 235.425171 185.658356 237.620667 183.364685 C 239.590393 181.394958 241.229675 120.876526 237.620667 118.910065 C 234.057495 116.956696 222.828064 116.276123 210.041199 116.276123 Z"/>
    <path id="Path-copy-21" fill="#f5eace" fill-rule="evenodd" stroke="none" d="M 193.556885 112.343109 C 193.177307 112.343109 192.787964 112.490356 192.437866 112.840454 C 182.677551 122.679291 173.9021 133.588043 163.242004 142.360199 C 161.887451 143.459595 163.120972 145.164307 164.508301 145.164307 C 164.884521 145.164307 165.27063 145.036682 165.620728 144.738953 C 176.36261 135.966766 185.138062 125.058014 194.813293 115.300995 C 196.023926 114.093628 194.865662 112.343109 193.556885 112.343109 Z"/>
    <path id="Path-copy-20" fill="#f5eace" fill-rule="evenodd" stroke="none" d="M 207.688477 115.386139 C 207.168213 115.386139 206.647949 115.624969 206.294617 116.200836 C 194.980103 136.294037 178.332275 154.990112 160.781433 169.91687 C 159.426819 171.01297 160.660339 172.717682 162.047668 172.717682 C 162.42395 172.717682 162.810059 172.590057 163.160156 172.292328 C 180.956421 157.287048 197.849609 138.260498 209.245911 117.925171 C 210.044312 116.616394 208.866394 115.386139 207.688477 115.386139 Z"/>
    <path id="Path-copy-19" fill="#f5eace" fill-rule="evenodd" stroke="none" d="M 236.406921 114.512482 C 236.014282 114.512482 235.605286 114.672821 235.242065 115.055634 C 213.431091 137.851471 193.419678 162.371674 172.757202 186.234192 C 171.68396 187.493896 172.838989 189.234589 174.098694 189.234589 C 174.481506 189.234589 174.874146 189.074249 175.214417 188.694702 C 195.798401 164.750397 215.80658 140.312012 237.702637 117.431091 C 238.834717 116.236816 237.699341 114.512482 236.406921 114.512482 Z"/>
    <path id="Path-copy-18" fill="#f5eace" fill-rule="evenodd" stroke="none" d="M 243.471558 130.823669 C 243.09198 130.823669 242.709167 130.984009 242.378723 131.373383 C 225.403687 151.793762 208.674072 172.374481 189.978027 191.15564 C 188.770691 192.362976 189.925659 194.113495 191.234497 194.113495 C 191.614014 194.113495 192.003418 193.966248 192.35675 193.61615 C 211.052856 174.753204 227.78241 154.172485 244.757446 133.833893 C 245.820862 132.518555 244.685486 130.823669 243.471558 130.823669 Z"/>
    <path id="Path-copy-17" fill="#f5eace" fill-rule="evenodd" stroke="none" d="M 243.462341 154.719513 C 242.942078 154.719513 242.418579 154.941986 242.052124 155.485138 C 233.603882 168.357086 222.04071 178.689972 212.038269 190.33493 C 210.968323 191.594666 212.120056 193.335358 213.379761 193.335358 C 213.762634 193.335358 214.155273 193.178284 214.495544 192.795471 C 224.583008 180.905121 236.391602 170.326813 245.003418 157.206207 C 245.863953 155.943207 244.676208 154.719513 243.462341 154.719513 Z"/>
    <path id="Path-copy-16" fill="#ffb700" fill-rule="evenodd" stroke="none" d="M 203.508057 115.873657 C 203.508057 141.46051 204.329285 164.832214 204.329285 188.449341 L 212.52887 188.449341 C 212.52887 164.66864 211.707642 141.296906 211.707642 115.873657 Z"/>
    <path id="Path-copy-15" fill="#ffb700" fill-rule="evenodd" stroke="none" d="M 166.687561 146.215424 L 166.687561 154.418274 C 194.486206 154.418274 217.118469 154.663666 241.720459 154.663666 L 241.720459 146.464111 C 217.203552 146.464111 194.568054 146.215424 166.687561 146.215424 Z"/>
    <path id="Path-copy-14" fill="#dfa30c" fill-rule="evenodd" stroke="none" d="M 193.361084 97.438721 C 193.753723 97.438721 194.107117 97.527069 194.486633 97.667755 C 195.144287 97.913177 195.880493 98.489044 196.701782 99.22522 C 197.437988 99.964691 198.177429 100.949554 198.831848 102.016235 C 200.228943 104.064484 201.292358 106.524994 202.113647 108.903717 C 202.604431 110.21579 202.934875 111.446045 203.180298 112.676331 C 203.425659 113.824768 203.589294 115.136841 203.507507 115.709442 L 203.523865 115.709442 L 203.523865 115.709442 C 203.517273 115.817413 203.514038 115.92865 203.507507 116.036621 L 203.425659 116.118439 C 203.422424 116.213318 203.422424 116.304932 203.425659 116.399811 L 203.425659 116.399811 C 202.326294 115.820679 201.276001 115.192474 200.228943 114.560974 C 197.768433 113.00351 195.471497 111.364258 193.50177 109.476318 C 192.438416 108.49472 191.535339 107.509857 190.71405 106.524994 C 189.896057 105.540131 189.238403 104.47348 188.829407 103.410095 C 188.42041 102.425232 188.42041 101.522156 188.583984 100.867767 C 188.829407 100.291901 189.238403 99.637482 189.977844 98.979828 C 190.305054 98.652618 190.795837 98.325439 191.289917 98.080048 C 191.453552 97.99823 191.535339 97.913177 191.617126 97.913177 L 191.862549 97.749573 C 192.10791 97.667755 192.271545 97.585968 192.438416 97.585968 C 192.781921 97.484528 193.079712 97.438721 193.361084 97.438721 Z M 221.75531 97.275116 C 222.026855 97.275116 222.304993 97.320953 222.615845 97.422363 C 223.433838 97.585968 224.336853 98.243622 225.158142 98.979828 C 225.403564 99.22522 225.567139 99.39209 225.812561 99.637482 L 225.976135 99.801086 L 226.057922 99.882904 L 226.388428 100.291901 C 226.552002 100.537292 226.552002 100.455475 226.633789 100.704163 C 226.715576 100.867767 226.797424 101.113159 226.879211 101.276764 C 227.124573 102.016235 227.124573 103.07962 226.797424 104.146271 C 226.552002 105.212952 225.976135 106.279602 225.239929 107.346283 C 224.500488 108.409668 223.682495 109.476318 222.697632 110.379395 C 221.712769 111.28244 220.646057 112.182251 219.49762 113.00351 C 218.349182 113.742981 217.203979 114.560974 215.973694 115.218628 C 214.498047 115.977753 212.996216 116.684479 211.448547 117.302887 L 211.448547 117.302887 C 211.49762 117.106567 211.5271 116.903717 211.543457 116.694305 C 211.559814 116.553619 211.569641 116.416168 211.582703 116.282043 L 211.582703 116.282043 L 211.625244 116.285309 C 211.625244 115.300446 211.870667 114.07019 212.119324 112.839905 C 212.364746 111.60965 212.691895 110.297577 213.100891 109.067322 C 214.003967 106.606812 215.070618 104.146271 216.38269 102.016235 C 217.037109 100.949554 217.694763 99.964691 218.430969 99.22522 C 219.17041 98.407227 219.991699 97.83136 220.646057 97.504181 C 221.028931 97.360199 221.382263 97.275116 221.75531 97.275116 Z M 193.897705 90.171661 C 192.552917 90.171661 191.20813 90.417084 190.059692 90.943848 C 189.565613 91.107452 189.074829 91.352844 188.665833 91.601532 C 188.42041 91.683319 188.171753 91.846924 187.926331 92.010529 C 187.680969 92.174133 187.435547 92.337708 187.35376 92.419525 C 186.614258 92.995392 185.9599 93.567993 185.302185 94.307434 C 183.990173 95.701324 182.759888 97.667755 182.514465 99.964691 C 182.269104 102.261627 182.923462 104.309875 183.826538 105.952393 C 184.729614 107.509857 185.878052 108.82193 187.108337 109.88858 C 188.335327 111.033783 189.6474 111.936859 190.959473 112.839905 C 192.271545 113.661194 193.583557 114.315582 194.980713 114.973236 C 196.374573 115.627625 197.768433 116.285309 199.24408 116.694305 C 200.745911 117.208008 202.270691 117.65625 203.805237 117.976929 L 203.805237 117.976929 C 204.400757 119.249725 205.640808 120.188782 207.116455 120.303284 C 207.263733 120.319641 207.41095 120.326202 207.558167 120.326202 C 209.037109 120.326202 210.388428 119.501648 211.075562 118.258301 L 211.075562 118.258301 C 212.960205 118.01944 214.85144 117.607178 216.7099 117.021484 C 219.579407 116.118439 222.370422 114.888184 224.909485 113.085327 C 226.139709 112.182251 227.369995 111.200653 228.518433 109.970398 C 229.585144 108.82193 230.570007 107.42807 231.306152 105.785522 C 232.045654 104.228088 232.454651 102.17981 232.127441 100.128296 C 231.963867 99.637482 231.882019 99.143433 231.718445 98.652618 C 231.554871 98.161835 231.224365 97.504181 230.979004 97.095184 L 230.651794 96.686188 L 230.242798 96.028503 C 229.994141 95.701324 229.748718 95.374115 229.503296 95.04364 C 228.354858 93.731567 226.960999 92.419525 225.076355 91.519714 C 223.94751 90.979858 222.583069 90.675568 221.215393 90.675568 C 220.295959 90.675568 219.369995 90.812988 218.516052 91.107452 C 216.464478 91.683319 214.825256 92.831787 213.513184 94.062042 C 212.201111 95.207245 211.052673 96.519318 210.149597 97.913177 C 209.30542 99.12381 208.546326 100.3508 207.865723 101.610504 L 207.865723 101.610504 C 207.155762 100.210083 206.341003 98.848938 205.395386 97.504181 C 204.410522 96.110321 203.262085 94.798248 201.868225 93.567993 C 200.474365 92.337708 198.831848 91.18927 196.701782 90.534851 C 195.815063 90.296021 194.856384 90.171661 193.897705 90.171661 Z"/>
    <path id="Path-copy-13" fill="#dfa30c" fill-rule="evenodd" stroke="none" d="M 203.016785 116.531342 C 200.062195 119.646271 197.519897 123.091644 194.813965 126.206573 C 192.189819 129.406555 189.483887 132.194305 186.532593 134.078949 L 190.305176 139.821259 C 194.159546 137.278931 197.274475 133.997162 200.062195 130.636841 C 202.85321 127.273254 205.395508 123.909637 207.93457 121.203735 L 203.016785 116.531342 Z"/>
    <path id="Path-copy-12" fill="#dfa30c" fill-rule="evenodd" stroke="none" d="M 211.544128 116.28595 L 206.953552 121.449127 C 209.577637 123.664246 211.95636 126.697357 214.413635 129.897369 C 216.874146 133.094086 219.416504 136.457672 222.616455 139.490784 L 227.288818 134.487946 C 224.664734 132.030701 222.286011 128.912506 219.828735 125.715759 C 217.286438 122.515778 214.74408 119.155457 211.544128 116.28595 Z"/>
    <path id="Path-copy-11" fill="#c63b3d" fill-rule="evenodd" stroke="none" d="M 75.827209 99.490479 C 44.039978 99.490479 10.302612 102.625031 10.957031 110.216034 C 10.957031 125.469971 12.020447 167.374146 13.826538 183.364288 C 14.163574 186.237091 29.538574 186.934021 46.153687 186.934021 C 61.78717 186.934021 78.52002 186.315613 84.841492 186.315613 C 88.453735 186.315613 92.278687 186.345062 96.126526 186.345062 C 110.788269 186.345062 125.760803 185.9328 130.436462 181.970428 C 134.454468 178.525024 130.436462 123.254852 130.436462 105.87085 C 130.243408 101.915009 103.792786 99.490479 75.827209 99.490479 Z"/>
    <path id="Path-copy-10" fill="#d1574a" fill-rule="evenodd" stroke="none" d="M 24.390015 105.830688 C 22.202515 105.830688 20.262756 108.604401 22.290405 110.528137 C 36.113647 123.615997 51.674133 134.500305 67.367798 145.118195 C 84.862671 156.871155 101.358398 169.625946 118.184448 182.314117 C 118.688049 182.689819 119.186279 182.84967 119.652588 182.84967 C 121.845459 182.84967 123.302917 179.271301 120.990173 177.507416 C 105.163208 165.621246 89.805237 153.399353 73.30957 142.381805 C 56.949768 131.430847 40.58728 120.210785 26.23114 106.587402 C 25.652954 106.054504 25.010864 105.830688 24.390015 105.830688 Z"/>
    <path id="Path-copy-9" fill="#d1574a" fill-rule="evenodd" stroke="none" d="M 50.420471 99.329071 C 48.107727 99.329071 46.058716 102.169403 48.336853 103.917297 C 72.442261 122.74704 95.814941 142.647919 120.858215 160.278687 C 121.367126 160.649048 121.870728 160.808929 122.339661 160.808929 C 124.57782 160.808929 126.035278 157.179901 123.66394 155.46933 C 99.020264 138.107697 76.049927 118.473267 52.208313 99.976532 C 51.643433 99.520935 51.022644 99.329071 50.420471 99.329071 Z"/>
    <path id="Path-copy-8" fill="#d1574a" fill-rule="evenodd" stroke="none" d="M 82.864624 101.005096 C 80.602539 101.005096 79.091797 104.604797 81.5271 106.320709 C 94.481689 115.40387 104.96637 127.756317 118.856201 135.637817 C 119.338501 135.912262 119.812744 136.034821 120.257751 136.034821 C 122.717041 136.034821 124.318359 132.355194 121.661926 130.828461 C 107.838684 122.949646 97.287415 110.594513 84.332764 101.511353 C 83.829163 101.159637 83.330933 101.005096 82.864624 101.005096 Z"/>
    <path id="Path-copy-7" fill="#d1574a" fill-rule="evenodd" stroke="none" d="M 17.336792 126.641144 C 15.005432 126.641144 12.988403 129.481476 15.213257 131.22937 C 36.981934 148.324554 58.819824 165.422424 81.723572 180.980225 C 82.224487 181.313293 82.720093 181.459839 83.183716 181.459839 C 85.50177 181.459839 87.033875 177.841492 84.529236 176.173523 C 62.025208 160.879517 40.520325 144.120026 19.151306 127.29129 C 18.57312 126.835663 17.944336 126.641144 17.336792 126.641144 Z"/>
    <path id="Path-copy-6" fill="#d1574a" fill-rule="evenodd" stroke="none" d="M 14.304504 149.13031 C 11.885193 149.13031 10.273193 152.809937 12.873718 154.3367 C 28.367554 163.286621 41.322205 175.972137 56.882629 184.988678 C 57.354248 185.265778 57.817871 185.385681 58.257507 185.385681 C 60.676819 185.385681 62.286194 181.706055 59.685669 180.179321 C 44.127869 171.165436 31.239868 158.477264 15.679382 149.529999 C 15.207764 149.252899 14.741516 149.13031 14.304504 149.13031 Z"/>
    <path id="Path-copy-5" fill="#e7a098" fill-rule="evenodd" stroke="none" d="M 52.368042 98.080231 L 44.168457 98.243835 C 44.413879 108.576721 44.495667 118.824554 44.495667 128.993835 C 44.495667 149.332458 44.168457 169.340576 44.168457 188.448914 L 52.368042 188.448914 C 52.368042 169.422363 52.698486 149.414246 52.698486 128.993835 C 52.698486 118.742737 52.616699 108.409851 52.368042 98.080231 Z"/>
    <path id="Path-copy-4" fill="#e7a098" fill-rule="evenodd" stroke="none" d="M 9.563171 133.34317 L 9.563171 141.542725 L 134.209045 141.542725 L 134.209045 133.34317 Z"/>
    <path id="Path-copy-3" fill="#e7a098" fill-rule="evenodd" stroke="none" d="M 30.484375 75.28363 C 31.060242 75.28363 31.711365 75.411255 32.44104 75.689362 C 33.425903 76.183441 34.574341 77.001434 35.640991 77.986298 C 36.62262 78.971161 37.607483 80.201416 38.428772 81.431702 C 40.14978 84.055786 41.54364 87.007141 42.528503 90.040253 C 43.493774 93.096283 44.06311 96.22757 44.318298 99.362122 L 44.318298 99.362122 C 42.345276 98.665161 40.424622 97.879913 38.592346 97.012817 C 35.392334 95.53717 32.359253 93.731049 29.816895 91.68277 C 28.58667 90.616119 27.356384 89.467651 26.456604 88.237396 C 25.553528 87.088928 24.977661 85.776855 24.732239 84.628418 C 24.486877 83.398132 24.650452 82.249695 25.141235 81.104492 L 25.635315 79.956024 C 25.798889 79.625549 25.880737 79.380157 26.126099 79.052979 C 26.456604 78.39856 26.865601 77.740906 27.274597 77.250122 C 28.014038 76.265259 28.913818 75.607574 29.735107 75.362183 C 29.967407 75.309814 30.21936 75.28363 30.484375 75.28363 Z M 64.424561 75.362183 C 64.997192 75.362183 65.81842 75.856232 66.718262 76.674255 C 66.881836 76.919617 67.130493 77.086487 67.375916 77.495483 L 67.784912 77.90448 C 67.948486 78.068115 67.948486 78.149902 68.030273 78.231689 L 68.193909 78.480347 L 68.442566 78.889343 C 68.524353 79.134766 68.60614 79.380157 68.769775 79.625549 C 69.096985 80.610413 69.178772 81.758881 69.015137 83.070923 C 68.60614 85.531464 67.048706 88.237396 65.078979 90.534332 C 63.194336 92.913055 60.733765 94.961304 58.191467 96.849243 C 56.395142 98.082764 54.48761 99.162506 52.462219 100.062317 L 52.462219 100.062317 C 52.494934 99.895447 52.521118 99.728577 52.530945 99.555145 C 52.697815 96.767426 53.352234 93.812836 54.173462 90.943329 C 54.991455 88.073792 56.139954 85.204285 57.452026 82.580139 C 58.191467 81.349884 58.927673 80.119629 59.748901 78.971161 C 60.57019 77.822693 61.469971 76.919617 62.29126 76.265259 C 63.194336 75.607574 63.930542 75.362183 64.424561 75.362183 Z M 30.971924 67.921692 C 29.764526 67.921692 28.527771 68.118011 27.356384 68.556458 C 24.732239 69.541321 22.847595 71.425964 21.61731 73.313904 C 21.041443 74.295502 20.550659 75.198578 20.141663 76.183441 C 19.893005 76.674255 19.729431 77.250122 19.484009 77.659119 L 19.320435 78.313477 L 19.075012 79.052979 C 18.335571 81.268066 18.335571 83.892212 19.075012 86.104065 C 19.811218 88.401001 21.123291 90.207123 22.602173 91.68277 C 24.077881 93.158447 25.635315 94.306915 27.356384 95.288483 C 30.638184 97.25824 34.162109 98.488495 37.771057 99.391541 C 39.999268 99.908539 42.260254 100.294617 44.534241 100.510559 L 44.534241 100.510559 C 45.064331 102.068024 46.448364 103.255768 48.185791 103.327728 C 48.283936 103.33429 48.38208 103.337555 48.47699 103.337555 C 50.099854 103.337555 51.552612 102.333069 52.19397 100.896667 L 52.19397 100.896667 C 54.58905 100.477844 56.94812 99.676208 59.176331 98.6521 C 62.29126 97.340027 65.160767 95.455383 67.784912 93.240234 C 69.096985 92.091766 70.327209 90.779724 71.39386 89.304047 C 72.542358 87.8284 73.442139 86.185852 74.018005 84.301208 C 74.590637 82.416565 74.754211 80.201416 74.263428 78.068115 C 74.099792 77.495483 73.936218 77.001434 73.772644 76.51062 L 73.442139 75.771179 L 73.033142 74.953186 C 72.869568 74.789581 72.705933 74.459106 72.542358 74.295502 L 72.215149 73.804718 C 72.048279 73.477509 71.721069 72.983459 71.39386 72.65625 C 70.736206 71.834961 70 71.016968 69.015137 70.359314 C 68.030273 69.704926 66.881836 69.047241 65.569763 68.80188 C 65.052795 68.70697 64.522766 68.657898 63.995972 68.657898 C 63.184509 68.657898 62.379578 68.769135 61.633606 68.965454 C 60.40332 69.295929 59.339905 69.786743 58.43689 70.359314 C 56.634033 71.5896 55.240173 72.983459 54.009888 74.377319 C 52.779602 75.856232 51.794739 77.331909 50.891724 78.889343 C 50.018066 80.296326 49.249146 81.752319 48.571838 83.241089 L 48.571838 83.241089 C 47.577209 81.048859 46.389465 78.925354 44.989075 76.919617 C 43.758789 75.280365 42.446716 73.7229 40.889282 72.329041 C 39.246765 70.853394 37.443848 69.541321 35.146973 68.720062 C 33.923218 68.222717 32.470459 67.921692 30.971924 67.921692 Z"/>
    <path id="Path-copy-2" fill="#e7a098" fill-rule="evenodd" stroke="none" d="M 44.577026 98.652832 C 38.180359 106.852417 33.67157 115.87323 28.668701 123.500214 L 34.411011 127.19101 C 39.659302 119.155029 44.086243 110.379608 49.992188 102.834412 L 44.577026 98.652832 Z"/>
    <path id="Path-copy" fill="#e7a098" fill-rule="evenodd" stroke="none" d="M 51.795532 98.40744 L 46.874451 103.079803 C 54.910461 111.446259 63.931274 119.073242 72.8703 126.042542 L 77.05188 120.548889 C 68.279724 113.824982 59.504272 106.44342 51.795532 98.40744 Z"/>
</svg>
