<?xml version="1.0" encoding="UTF-8"?>
<!-- Generated by Pixelmator Pro 2.4.5 -->
<svg width="131" height="213" viewBox="0 0 131 213" xmlns="http://www.w3.org/2000/svg" xmlns:xlink="http://www.w3.org/1999/xlink">
    <path id="Path-copy-11" fill="#ffb700" fill-rule="evenodd" stroke="none" d="M 19.758545 5.212585 C 34.330688 5.212585 18.863525 37.333344 13.073486 51.425201 L 13.073486 51.425201 C 11.965881 44.023621 10.530212 36.677155 10.031494 29.191589 C 9.572205 21.955383 8.585327 6.102356 18.910767 5.246704 C 19.204712 5.223083 19.488159 5.212585 19.758545 5.212585 Z M 18.661438 1.112854 C -2.601074 1.112854 8.039368 44.141724 9.572205 55.56955 C 9.695557 56.535431 10.351685 57.149597 11.10498 57.393707 L 11.10498 57.393707 C 11.175842 58.606293 12.312317 59.375336 13.370056 59.375336 C 14.183716 59.375336 14.952759 58.923889 15.16272 57.871399 C 17.398926 46.818909 44.763794 3.931763 20.687683 1.233582 C 19.981628 1.152222 19.307068 1.112854 18.661438 1.112854 Z"/>
    <path id="Path-copy-10" fill="#c63b3d" fill-rule="evenodd" stroke="none" d="M 32.641663 43.156677 C 21.62616 43.156677 11.804016 46.692291 6.870728 57.162933 C -0.626892 103.028259 6.870728 168.040405 6.870728 168.040405 C 10.329407 199.991272 45.342102 212.262299 77.005676 212.262299 C 106.460327 212.262299 133.01593 201.643616 128.583069 186.369965 C 119.453857 154.682648 90.212463 163.882935 84.423401 144.662109 C 78.560303 125.515259 92.735352 63.026001 81.083191 57.162933 C 73.736572 53.464447 51.450928 43.156677 32.641663 43.156677 Z"/>
    <path id="Path-copy-9" fill="#e7a098" fill-rule="evenodd" stroke="none" d="M 4.815063 145.530457 C 5.70636 159.110291 6.745728 168.165527 6.745728 168.165527 C 8.451355 183.453979 17.358521 194.214783 29.602905 201.339325 C 33.609314 178.704285 27.450134 153.099152 4.815063 145.530457 Z"/>
    <path id="Path-copy-8" fill="#d1574a" fill-rule="evenodd" stroke="none" d="M 116.409424 167.297302 C 109.284912 168.484711 103.643921 174.643921 100.232666 179.692688 C 93.922424 188.15271 89.394836 200.174988 92.66095 211.231934 C 115.073975 208.190857 132.219055 198.839508 128.582764 186.370087 C 125.908813 177.018738 121.458191 171.306702 116.409424 167.297302 Z"/>
    <path id="Path-copy-7" fill="#fdfbf6" fill-rule="evenodd" stroke="none" d="M 32.150146 42.173553 C 28.448669 42.173553 24.856812 42.469666 21.48999 43.135925 C 21.48999 43.135925 6.49762 45.883881 3.530579 60.503113 C 0.634583 75.122345 -0.997009 80.094116 7.759094 85.957214 C 14.851074 90.644714 40.764099 98.639832 61.441895 98.639832 C 66.304077 98.639832 70.879089 98.195648 74.849976 97.165161 C 95.631348 91.746277 90.656616 83.434296 90.656616 72.599426 C 90.656616 61.764557 87.09436 57.758118 73.958679 51.744019 C 63.508728 46.93512 46.973694 42.173553 32.150146 42.173553 Z"/>
    <path id="Path-copy-6" fill="#f5eace" fill-rule="evenodd" stroke="none" d="M 31.993164 43.965057 C 19.846497 43.965057 16.296082 48.406799 16.296082 48.406799 C 9.615723 52.931458 13.696167 61.246368 30.989319 67.627655 C 39.703979 70.831635 48.309082 72.090118 56.413818 72.090118 C 64.459229 72.090118 72.019104 70.849396 78.708313 69.03717 C 92.143066 65.474884 83.683044 59.685852 78.708313 56.570709 C 73.662537 53.452606 55.703125 46.254028 38.335938 44.323364 C 35.999573 44.074646 33.891235 43.965057 31.993164 43.965057 Z"/>
    <path id="Path-copy-5" fill="#d1574a" fill-rule="evenodd" stroke="none" d="M 108.766724 162.473572 C 103.569885 164.700348 95.557007 169.598083 90.434204 179.766724 C 84.49707 191.64093 84.348999 205.445862 85.314392 211.975189 C 86.131653 211.901154 87.019958 211.827148 87.83728 211.753113 C 86.945984 206.482239 86.50177 193.050446 92.661011 180.880096 C 98.079895 170.193298 107.132141 165.66568 111.659729 164.031128 C 110.694397 163.512939 109.732056 162.99472 108.766724 162.473572 Z"/>
    <path id="Path-copy-4" fill="#e7a098" fill-rule="evenodd" stroke="none" d="M 4.444885 139.146179 C 4.444885 140.037476 4.518921 141.002838 4.592957 141.820129 C 10.826172 143.821838 22.404297 148.79364 27.894287 159.63147 C 34.722717 172.989227 34.944824 191.617859 32.869019 203.044952 C 33.609314 203.41806 34.426575 203.862244 35.169861 204.158325 C 37.470642 192.358154 37.319641 172.61908 30.121094 158.444031 C 23.813843 146.122681 10.826172 141.002838 4.444885 139.146179 Z"/>
    <path id="Path-copy-3" fill="#f5eace" fill-rule="evenodd" stroke="none" d="M 5.872803 92.770874 C 5.176941 92.770874 4.460327 92.84491 3.752625 92.933716 C 3.752625 93.825043 3.752625 94.642334 3.678589 95.53363 C 4.341919 95.406311 5.171021 95.305603 5.860962 95.305603 C 6.405823 95.305603 6.864807 95.367798 7.092834 95.53363 C 7.31488 95.829742 7.388916 97.165222 7.462952 97.908478 C 7.536987 99.910217 7.685059 102.136993 9.31958 103.102356 C 9.686768 103.306641 10.080627 103.392517 10.489258 103.392517 C 11.561218 103.392517 12.757507 102.803253 13.995239 102.211029 C 14.806641 101.805359 16.233887 101.1539 16.760986 101.1539 C 16.81427 101.1539 16.855774 101.159821 16.888306 101.171661 C 17.258484 101.393738 17.705566 102.732178 17.927673 103.546509 C 18.593933 105.477173 19.189148 107.407837 20.894775 107.926056 C 21.125732 107.994171 21.356689 108.026733 21.584717 108.026733 C 22.84021 108.026733 24.095764 107.085083 25.348328 106.143433 C 26.091614 105.551208 27.501099 104.511841 27.945251 104.511841 C 28.318359 104.733948 28.984619 105.995392 29.357727 106.812683 C 30.246094 108.52124 31.211426 110.374939 32.919983 110.597015 C 33.041443 110.614807 33.159851 110.623657 33.27832 110.623657 C 34.673035 110.623657 35.848572 109.44809 37.14856 108.148132 C 37.743713 107.555908 39.005188 106.294464 39.375305 106.294464 L 39.449341 106.294464 C 39.819519 106.442505 40.63678 107.703979 41.157959 108.370239 C 42.194336 110.004791 43.307739 111.710419 45.016357 111.784424 C 45.081482 111.790344 45.149597 111.793335 45.214722 111.793335 C 46.680481 111.793335 47.882751 110.238708 48.94873 108.817383 C 49.46991 108.148132 50.284241 107.034729 50.583313 106.960724 C 50.95343 107.034729 51.844727 108.296204 52.362976 109.039459 C 53.476318 110.52301 54.441711 112.006531 55.925232 112.006531 L 55.999268 112.006531 C 57.633789 112.006531 58.744263 110.300903 59.78363 108.669312 C 60.230713 108.000092 60.896973 106.886688 61.196106 106.738647 C 61.640259 106.812683 62.679626 108.000092 63.197815 108.669312 C 64.367493 110.043274 65.40686 111.289917 66.733459 111.289917 C 66.840027 111.289917 66.946655 111.281067 67.056213 111.266235 C 68.764771 111.118164 69.656067 109.261536 70.544434 107.481873 C 70.843506 106.812683 71.43573 105.625244 71.657837 105.477173 C 71.675598 105.474243 71.69043 105.474243 71.708191 105.474243 C 72.253052 105.474243 73.458191 106.605377 74.032654 107.108765 C 75.255615 108.204407 76.422363 109.18457 77.630493 109.18457 C 77.817017 109.18457 78.003601 109.163818 78.190125 109.113464 C 79.969788 108.595276 80.490967 106.442505 81.009155 104.511841 C 81.157227 103.845581 81.456299 102.658173 81.60437 102.433105 C 81.678406 102.397583 81.776123 102.379822 81.891602 102.379822 C 82.480835 102.379822 83.555786 102.803253 84.423401 103.176361 C 84.423401 102.285065 84.497375 101.393738 84.571411 100.505402 C 83.689026 100.161926 82.744385 99.883545 81.859009 99.883545 C 81.405945 99.883545 80.967712 99.957581 80.565002 100.132294 C 79.377563 100.727478 79.007446 102.211029 78.560303 103.919617 C 78.338196 104.733948 77.894043 106.442505 77.594971 106.664612 C 77.298828 106.590576 76.25946 105.773315 75.741272 105.255096 C 74.399841 104.112091 73.055481 102.912842 71.657837 102.912842 C 71.512756 102.912842 71.361694 102.924683 71.213684 102.954285 C 69.804138 103.250397 69.060913 104.807983 68.243652 106.368469 C 67.873474 107.1828 67.133179 108.595276 66.908142 108.817383 C 66.538025 108.669312 65.646667 107.629944 65.128479 107.034729 C 63.970703 105.660767 62.667786 104.212769 61.157593 104.212769 C 61.12207 104.212769 61.083557 104.212769 61.045044 104.215729 C 59.561523 104.289764 58.670227 105.773315 57.633789 107.333832 C 57.186646 108.000092 56.295349 109.335571 56.073303 109.483643 C 55.703125 109.335571 54.885864 108.222168 54.441711 107.555908 C 53.328308 105.995392 52.214905 104.437805 50.657349 104.437805 L 50.583313 104.437805 C 49.170837 104.437805 48.057434 105.773315 46.944031 107.256836 C 46.425842 107.926056 45.534546 109.1875 45.164368 109.261536 C 44.720215 109.261536 43.680847 107.703979 43.233704 107.034729 C 42.194336 105.403137 41.231995 103.919617 39.671448 103.768616 C 39.591492 103.762695 39.514526 103.759705 39.43457 103.759705 C 37.909546 103.759705 36.63623 105.098145 35.294861 106.368469 C 34.699646 107.034729 33.660278 108.074097 33.290161 108.074097 C 32.846008 108.000092 32.028687 106.442505 31.658569 105.625244 C 30.767273 103.993652 29.949951 102.433105 28.540466 102.062988 C 28.368713 102.030396 28.19696 102.015594 28.025208 102.015594 C 26.577209 102.015594 25.185486 103.078644 23.790771 104.141724 C 23.121521 104.659912 22.008179 105.551208 21.638 105.551208 C 21.193848 105.403137 20.598633 103.620544 20.376587 102.732178 C 19.781372 101.023621 19.263184 99.392029 17.927673 98.87085 C 17.542725 98.707977 17.145935 98.636902 16.740234 98.636902 C 15.496582 98.636902 14.166992 99.294281 12.881897 99.910217 C 12.177124 100.262573 11.007446 100.88147 10.634338 100.88147 C 10.613647 100.88147 10.595886 100.87851 10.581055 100.875549 C 10.133911 100.653473 9.98584 98.722778 9.98584 97.757446 C 9.83783 96.051819 9.763794 94.420227 8.724426 93.528931 C 7.919006 92.945587 6.924011 92.770874 5.872803 92.770874 Z"/>
    <path id="Path-copy-2" fill="#f5eace" fill-rule="evenodd" stroke="none" d="M 3.604553 104.067688 C 3.604553 105.03302 3.530579 106.069427 3.604553 107.03476 C 9.763794 110.671082 24.97821 118.316772 44.125 118.612885 C 45.016357 118.68689 45.833618 118.68689 46.721924 118.68689 C 67.503357 118.68689 77.446899 114.233337 83.831116 110.52301 C 83.905151 109.483643 83.979187 108.52124 84.053223 107.481903 L 84.053223 107.481903 C 77.609741 111.417267 68.542725 116.184723 46.66571 116.184723 C 45.860229 116.184723 45.040039 116.175842 44.199036 116.164001 C 24.30896 115.793854 8.502319 107.108795 3.604553 104.067688 Z"/>
    <path id="Path-copy" fill="#f5eace" fill-rule="evenodd" stroke="none" d="M 5.42865 113.312439 C 4.981506 113.312439 4.546204 113.561157 4.344849 114.01123 C 3.974731 114.606445 4.196777 115.346741 4.866028 115.645813 L 4.791992 115.645813 C 5.014099 115.793884 5.236145 115.793884 5.458252 115.793884 C 5.83136 115.793884 6.275513 115.568817 6.49762 115.198669 C 6.870728 114.606445 6.645691 113.86319 6.053467 113.493042 C 5.860962 113.371643 5.641846 113.312439 5.42865 113.312439 Z M 9.84668 115.601379 C 9.369934 115.601379 8.887268 115.87677 8.724426 116.312073 C 8.428284 116.981293 8.650391 117.721558 9.245605 117.943665 C 9.467651 118.094666 9.615723 118.094666 9.83783 118.094666 C 10.281982 118.094666 10.729126 117.869629 10.951172 117.425476 C 11.247314 116.756226 10.951172 116.015961 10.358948 115.719849 C 10.199097 115.639893 10.024353 115.601379 9.84668 115.601379 Z M 81.61322 116.999054 C 81.414856 116.999054 81.21051 117.040527 81.009155 117.129333 C 80.416931 117.499512 80.194824 118.242737 80.490967 118.834961 C 80.713074 119.282104 81.157227 119.504211 81.60437 119.504211 C 81.826416 119.504211 82.048523 119.504211 82.196594 119.35614 C 82.791809 119.057068 83.013855 118.316772 82.717773 117.647552 C 82.507507 117.232971 82.081116 116.999054 81.61322 116.999054 Z M 14.39502 117.647552 C 13.906433 117.647552 13.408936 117.928864 13.177979 118.390808 C 12.881897 119.057068 13.177979 119.800293 13.844238 120.0224 C 13.995239 120.096436 14.217346 120.170471 14.365417 120.170471 C 14.80957 120.170471 15.256714 119.874329 15.478821 119.35614 C 15.774902 118.760925 15.478821 118.02066 14.80957 117.721558 C 14.676331 117.671234 14.53418 117.647552 14.39502 117.647552 Z M 77.19519 119.166626 C 77.029358 119.166626 76.860596 119.202148 76.706604 119.282104 C 76.037415 119.504211 75.741272 120.244476 76.037415 120.913696 C 76.185425 121.35788 76.706604 121.656952 77.150757 121.656952 C 77.298828 121.656952 77.520935 121.656952 77.669006 121.582947 C 78.26416 121.283844 78.560303 120.543579 78.338196 119.948364 C 78.11908 119.456818 77.660095 119.166626 77.19519 119.166626 Z M 18.928528 119.430176 C 18.439941 119.430176 17.951355 119.726288 17.779602 120.244476 C 17.557556 120.913696 17.853638 121.582947 18.519897 121.879028 C 18.670959 121.879028 18.81897 121.953064 18.967041 121.953064 C 19.485229 121.953064 19.932373 121.582947 20.15448 121.061768 C 20.376587 120.395508 20.006409 119.726288 19.337219 119.504211 C 19.206909 119.453857 19.067749 119.430176 18.928528 119.430176 Z M 72.569885 120.848572 C 72.442566 120.848572 72.309265 120.869293 72.179016 120.913696 C 71.509766 121.135803 71.139648 121.804993 71.28772 122.471252 C 71.509766 122.992432 72.030945 123.362579 72.549133 123.362579 C 72.623169 123.362579 72.77124 123.362579 72.919312 123.288544 C 73.514465 123.066467 73.884644 122.397247 73.736572 121.730988 C 73.558899 121.195007 73.093994 120.848572 72.569885 120.848572 Z M 23.622009 120.922607 C 23.097839 120.922607 22.632935 121.269043 22.455261 121.804993 C 22.307251 122.471252 22.677368 123.214539 23.346619 123.362579 C 23.420654 123.436615 23.568665 123.436615 23.6427 123.436615 C 24.234924 123.436615 24.682068 123.066467 24.830139 122.545288 C 25.052246 121.879028 24.682068 121.209839 24.012878 120.987732 C 23.882568 120.943298 23.749329 120.922607 23.622009 120.922607 Z M 28.499023 122.145538 C 27.91272 122.145538 27.332336 122.56012 27.204956 123.140503 C 27.056946 123.806763 27.501099 124.475952 28.170288 124.624023 L 28.466431 124.624023 C 29.058655 124.624023 29.505798 124.253906 29.65387 123.658691 C 29.801941 122.992432 29.431763 122.323212 28.762573 122.175171 C 28.676697 122.15741 28.58783 122.145538 28.499023 122.145538 Z M 67.793518 122.142578 C 67.698792 122.142578 67.601074 122.154419 67.503357 122.175171 C 66.760071 122.323212 66.389954 122.992432 66.538025 123.658691 C 66.612 124.253906 67.133179 124.624023 67.725403 124.624023 L 68.021545 124.624023 C 68.690735 124.401947 69.134949 123.806763 68.986877 123.140503 C 68.859558 122.506805 68.35614 122.142578 67.793518 122.142578 Z M 62.931335 123.039795 C 62.848389 123.039795 62.765503 123.048706 62.679626 123.066467 C 62.010376 123.140503 61.566223 123.806763 61.640259 124.475952 C 61.714294 125.071167 62.232483 125.51532 62.901672 125.51532 L 63.049744 125.51532 C 63.79303 125.441315 64.237183 124.772095 64.089111 124.105835 C 64.023987 123.513611 63.553162 123.039795 62.931335 123.039795 Z M 33.28125 123.113831 C 32.697937 123.113831 32.167847 123.587646 32.102722 124.179871 C 31.954651 124.84613 32.398865 125.51532 33.14209 125.589355 L 33.290161 125.589355 C 33.882385 125.589355 34.4776 125.219238 34.551636 124.549988 C 34.62561 123.883728 34.181458 123.214539 33.512268 123.140503 C 33.435242 123.122742 33.358276 123.113831 33.28125 123.113831 Z M 58.000977 123.652771 C 57.950623 123.652771 57.903259 123.652771 57.855896 123.658691 C 57.186646 123.658691 56.668457 124.327911 56.742493 124.994171 C 56.816528 125.663391 57.334717 126.107574 58.003967 126.107574 L 58.078003 126.107574 C 58.821228 126.033539 59.265381 125.441315 59.191345 124.772095 C 59.191345 124.085083 58.616882 123.652771 58.000977 123.652771 Z M 38.208618 123.726807 C 37.586792 123.726807 37.000488 124.221313 37.000488 124.84613 C 36.926453 125.589355 37.444641 126.18158 38.113892 126.258606 L 38.187927 126.258606 C 38.857117 126.258606 39.449341 125.737427 39.449341 125.145203 C 39.523376 124.401947 39.005188 123.806763 38.335938 123.732727 C 38.294495 123.729767 38.250061 123.726807 38.208618 123.726807 Z M 52.95813 123.957764 C 52.28894 124.031799 51.770691 124.549988 51.770691 125.293274 C 51.844727 125.959534 52.436951 126.480682 53.106201 126.480682 C 53.772461 126.406647 54.29364 125.885498 54.29364 125.145203 C 54.29364 124.475952 53.698425 123.957764 52.95813 123.957764 Z M 43.159668 124.031799 C 42.493408 124.031799 41.898254 124.549988 41.898254 125.293274 C 41.898254 125.959534 42.419373 126.554688 43.085632 126.554688 L 43.159668 126.554688 C 43.828918 126.554688 44.421143 126.033539 44.421143 125.367279 C 44.421143 124.624023 43.902954 124.105835 43.159668 124.031799 Z M 48.057434 124.105835 C 47.391174 124.105835 46.869995 124.698059 46.869995 125.367279 C 46.869995 126.033539 47.391174 126.628723 48.057434 126.628723 L 48.13147 126.628723 C 48.800659 126.628723 49.395874 126.033539 49.318909 125.367279 C 49.318909 124.624023 48.800659 124.105835 48.057434 124.105835 Z"/>
</svg>
