<?xml version="1.0" encoding="UTF-8"?>
<!-- Generated by Pixelmator Pro 2.4.5 -->
<svg width="126" height="200" viewBox="0 0 126 200" xmlns="http://www.w3.org/2000/svg" xmlns:xlink="http://www.w3.org/1999/xlink">
    <path id="Path-copy-19" fill="#245716" fill-rule="evenodd" stroke="none" d="M 111.784775 77.524933 L 29.425194 95.020996 C 31.267715 109.690277 39.031487 154.094482 36.992126 155.343842 C 19.165344 166.330719 1.272964 161.461945 0.614166 183.10498 C 0.811012 197.97113 19.230965 199.023621 29.16272 199.417328 C 30.317581 199.503937 31.62204 199.543304 33.057732 199.543304 C 52.490814 199.543304 95.737534 192.118103 109.154861 189.485565 C 133.097107 184.748016 126.125992 166.790039 111.784775 77.524933 Z"/>
    <path id="Path-copy-18" fill="#52963e" fill-rule="evenodd" stroke="none" d="M 24.821526 160.934387 C 11.797897 165.475067 1.139107 166.461945 0.614174 183.10498 C 0.81102 197.97113 19.230972 199.023621 29.162727 199.417328 C 30.325462 199.503937 31.645668 199.545929 33.097115 199.545929 C 37.141731 199.545929 42.209976 199.225708 47.779526 198.692902 C 44.687668 183.036743 38.63517 168.698151 24.821526 160.934387 Z"/>
    <path id="Path-copy-17" fill="#52963e" fill-rule="evenodd" stroke="none" d="M 123.755905 152.713898 L 123.755905 152.713898 C 106.850388 157.317596 102.181107 174.288727 101.194229 190.931763 C 104.417328 190.40683 107.115479 189.879272 109.154861 189.485565 C 123.755905 186.590546 126.847763 178.761169 123.755905 152.713898 Z"/>
    <path id="Path-copy-16" fill="#73c065" fill-rule="evenodd" stroke="none" d="M 116.11673 112.874023 C 115.846802 112.874023 115.565231 112.94751 115.281326 113.112854 C 113.822281 113.968506 113.005493 115.217834 112.191025 116.729645 C 111.606949 117.782166 111.139206 118.900269 110.615631 119.952759 C 110.092041 121.002625 109.507965 121.380585 108.886642 121.380585 C 107.988403 121.380585 107.008728 120.587921 106.008102 119.887146 C 104.237228 118.59317 102.540817 117.590546 100.897934 117.590546 C 99.618057 117.590546 98.368439 118.199463 97.142105 119.75592 C 96.171722 120.910767 94.661484 125.299225 92.653244 125.299225 C 92.371674 125.299225 92.078476 125.212585 91.77829 125.018372 C 89.61879 123.7034 88.103897 121.729645 85.769882 120.808411 C 85.364975 120.640411 84.97403 120.561676 84.594727 120.561676 C 81.588196 120.561676 79.384506 125.40683 77.781174 127.451447 C 77.597336 127.695526 77.357651 127.803162 77.071426 127.803162 C 75.109741 127.803162 70.960632 122.787415 67.900589 122.787415 C 67.432846 122.787415 66.988388 122.905518 66.581161 123.175842 C 65.008087 124.228333 63.842239 125.742767 62.674072 127.320221 C 61.726959 128.611542 60.914825 129.112854 60.153885 129.112854 C 58.66925 129.112854 57.394028 127.199463 55.734848 125.545929 C 54.503845 124.328094 53.307755 123.792664 52.144241 123.792664 C 50.60141 123.792664 49.114441 124.732269 47.685638 126.267731 C 46.927032 127.123352 46.22892 128.110229 45.470306 128.965881 C 44.867607 129.690277 44.323074 129.973755 43.813454 129.973755 C 42.79422 129.973755 41.91227 128.834656 40.979126 127.782166 C 39.520081 126.070862 38.121529 124.427826 36.022545 123.965881 C 35.875946 123.934387 35.73632 123.91864 35.603683 123.91864 C 33.583817 123.91864 32.897339 127.419952 35.031227 127.913391 C 38.863853 128.766418 39.997124 134.409454 44.029869 134.409454 C 44.353333 134.409454 44.697731 134.372711 45.060745 134.293976 C 46.810677 133.900269 48.386078 131.464569 49.551926 130.083984 C 50.489716 128.897644 51.301849 128.43045 52.060471 128.43045 C 53.607941 128.43045 54.925049 130.37796 56.609818 132.057739 C 57.815216 133.27298 58.97641 133.787415 60.081757 133.787415 C 61.966644 133.787415 63.695633 132.288727 65.240784 130.21521 C 65.941223 129.359589 66.641663 128.438324 67.339767 127.519684 C 67.70047 127.099731 68.084427 126.926514 68.477692 126.926514 C 69.871582 126.926514 71.374847 129.08136 72.240509 129.952759 C 73.639053 131.333344 75.039932 132.254608 76.964386 132.451447 C 77.087723 132.464569 77.20639 132.469818 77.325073 132.469818 C 81.357819 132.469818 81.820908 125.572174 85.041519 125.572174 C 85.839691 125.572174 86.810074 125.997375 88.045715 127.057739 C 89.732819 128.522308 91.510681 129.640411 93.209412 129.640411 C 94.561417 129.640411 95.862228 128.931763 97.025742 127.123352 C 98.410339 125.041992 99.285294 122.010498 101.321457 122.010498 C 101.858994 122.010498 102.477982 122.223083 103.208679 122.716522 C 104.737534 123.740143 106.764389 125.879272 108.749344 125.879272 C 108.807526 125.879272 108.865692 125.876648 108.923874 125.874023 C 114.057312 125.545929 113.298691 118.834656 117.089432 116.664032 C 118.895218 115.64566 117.766602 112.874023 116.11673 112.874023 Z"/>
    <path id="Path-copy-15" fill="#73c065" fill-rule="evenodd" stroke="none" d="M 115.557556 104.915955 C 115.457474 104.915955 115.352524 104.928772 115.240234 104.954407 C 88.507004 111.379913 61.161102 114.464447 33.754181 116.456696 C 32.199303 116.520813 32.162689 119.097656 33.644341 119.097656 C 33.680954 119.097656 33.717567 119.095093 33.754181 119.092529 C 61.344177 117.164368 88.934174 114.015747 115.913956 107.52359 C 117.393173 107.167175 116.914734 104.915955 115.557571 104.915955 Z"/>
    <path id="Path-copy-14" fill="#73c065" fill-rule="evenodd" stroke="none" d="M 113.58316 96.98172 C 113.386795 96.98172 113.183334 97.008728 112.968033 97.062714 C 87.116074 103.831635 60.729416 107.079712 34.283623 109.110107 C 31.212708 109.30722 31.141731 114.734222 34.068321 114.734222 C 34.139305 114.734222 34.210281 114.731506 34.283623 114.726105 C 61.143448 112.628235 88.005646 109.380127 114.271637 102.476227 C 117.141449 101.722931 116.211655 96.98172 113.58316 96.98172 Z"/>
    <path id="Path-copy-13" fill="#73c065" fill-rule="evenodd" stroke="none" d="M 119.421265 129.170593 C 119.300278 129.170593 119.172318 129.193481 119.035049 129.239227 C 105.683228 134.079193 91.68927 136.883026 77.695313 138.858154 C 68.507935 140.134216 59.125122 141.046814 49.779526 141.046814 C 45.601112 141.046814 41.42968 140.86377 37.286171 140.451965 C 37.234985 140.444336 37.1838 140.441803 37.134949 140.441803 C 35.771614 140.441803 35.822792 142.940582 37.286171 143.062592 C 41.480865 143.499817 45.684868 143.687927 49.891205 143.687927 C 59.192581 143.687927 68.498627 142.762665 77.695313 141.534851 C 91.863754 139.623291 106.090363 136.75592 119.67717 131.786316 C 121.003281 131.323669 120.64035 129.170593 119.421265 129.170593 Z"/>
    <path id="Path-copy-12" fill="#73c065" fill-rule="evenodd" stroke="none" d="M 119.637894 133.876648 C 119.39537 133.876648 119.134537 133.926514 118.859985 134.031494 C 105.7845 139.02887 92.137009 141.923889 78.549011 143.897644 C 69.484253 145.21521 60.2845 146.18634 51.119064 146.18634 C 47.00309 146.18634 42.896263 145.992126 38.810028 145.543304 C 38.720795 145.532806 38.636147 145.527557 38.551491 145.527557 C 35.773949 145.527557 35.860893 150.682404 38.810028 151.002625 C 42.82534 151.443573 46.863525 151.632538 50.906281 151.632538 C 60.142639 151.632538 69.415619 150.637787 78.549011 149.356964 C 92.596878 147.451447 106.70195 144.425201 120.120636 139.293976 C 122.770065 138.338593 121.985306 133.876648 119.637894 133.876648 Z"/>
    <path id="Path-copy-11" fill="#f5eace" fill-rule="evenodd" stroke="none" d="M 43.553802 121.702087 C 40 121.702087 40 127.161407 43.553802 127.161407 C 47.104988 127.161407 47.104988 121.702087 43.553802 121.702087 Z"/>
    <path id="Path-copy-10" fill="#f5eace" fill-rule="evenodd" stroke="none" d="M 58.963257 120.349091 C 55.475067 120.349091 55.475067 125.808411 58.963257 125.808411 C 62.514435 125.808411 62.514435 120.349091 58.963257 120.349091 Z"/>
    <path id="Path-copy-9" fill="#f5eace" fill-rule="evenodd" stroke="none" d="M 76.131241 119.097107 C 72.645676 119.097107 72.645676 124.559052 76.131241 124.559052 C 79.682419 124.559052 79.682419 119.097107 76.131241 119.097107 Z"/>
    <path id="Path-copy-8" fill="#f5eace" fill-rule="evenodd" stroke="none" d="M 92.191605 116.303162 C 88.637802 116.303162 88.637802 121.830719 92.191605 121.830719 C 95.67717 121.830719 95.67717 116.303162 92.191605 116.303162 Z"/>
    <path id="Path-copy-7" fill="#f5eace" fill-rule="evenodd" stroke="none" d="M 108.055115 112.874023 C 104.503937 112.874023 104.503937 118.398956 108.055115 118.398956 C 111.543304 118.398956 111.543304 112.874023 108.055115 112.874023 Z"/>
    <path id="Path-copy-6" fill="#f5eace" fill-rule="evenodd" stroke="none" d="M 104.031494 125.44751 C 100.480316 125.44751 100.480316 130.972443 104.031494 130.972443 C 107.585297 130.972443 107.585297 125.44751 104.031494 125.44751 Z"/>
    <path id="Path-copy-5" fill="#f5eace" fill-rule="evenodd" stroke="none" d="M 87.83989 129.097107 C 84.288712 129.097107 84.288712 134.62204 87.83989 134.62204 C 91.393707 134.62204 91.393707 129.097107 87.83989 129.097107 Z"/>
    <path id="Path-copy-4" fill="#f5eace" fill-rule="evenodd" stroke="none" d="M 68.501312 130.939636 C 64.94751 130.939636 64.94751 136.464569 68.501312 136.464569 C 71.986877 136.464569 71.986877 130.939636 68.501312 130.939636 Z"/>
    <path id="Path-copy-3" fill="#f5eace" fill-rule="evenodd" stroke="none" d="M 52.498688 133.213898 C 48.94751 133.213898 48.94751 138.673218 52.498688 138.673218 C 56.05249 138.673218 56.05249 133.213898 52.498688 133.213898 Z"/>
    <path id="Path-copy-2" fill="#ffb700" fill-rule="evenodd" stroke="none" d="M 107.829391 5.196838 C 122.401581 5.196838 106.934387 37.317596 101.144363 51.409454 L 101.144363 51.409454 C 100.036743 44.007874 98.601044 36.661407 98.102356 29.175842 C 97.643051 21.939636 96.656174 6.086609 106.981628 5.230957 C 107.275589 5.207336 107.559052 5.196838 107.829391 5.196838 Z M 106.732285 1.097107 C 85.469818 1.097107 96.110229 44.125977 97.643051 55.553802 C 97.766403 56.519684 98.422577 57.13385 99.175858 57.37796 L 99.175858 57.37796 C 99.246719 58.590546 100.383209 59.359589 101.440948 59.359589 C 102.254593 59.359589 103.023621 58.908142 103.233597 57.855652 C 105.469818 46.803162 132.834641 3.916016 108.75853 1.217834 C 108.05249 1.136475 107.37796 1.097107 106.732285 1.097107 Z"/>
    <path id="Path-copy" fill="#fdfbf6" fill-rule="evenodd" stroke="none" d="M 105.007874 50.729645 C 103.997375 50.729645 102.944885 50.863525 101.853012 51.146973 C 83.892395 53.383209 38.897629 58.64566 23.17585 62.658783 C 13.902885 64.960632 10.942261 75.944885 14.165352 87.522308 C 16.790024 97.152222 20.404198 99.440948 26.354332 99.440948 C 30.244095 99.440948 35.133858 98.461945 41.398949 97.916016 C 61.133865 96.207336 73.89502 93.771667 113.034119 87.91864 C 126.727036 85.811035 121.396332 50.729645 105.007874 50.729645 Z"/>
</svg>
