<?xml version="1.0" encoding="UTF-8"?>
<!-- Generated by Pixelmator Pro 2.4.5 -->
<svg width="155" height="135" viewBox="0 0 155 135" xmlns="http://www.w3.org/2000/svg" xmlns:xlink="http://www.w3.org/1999/xlink">
    <path id="Path-copy-3" fill="#245716" fill-rule="evenodd" stroke="none" d="M 65.29921 79.599426 L 65.29921 79.599426 C 70.85302 80.961609 76.477692 83.644043 79.083992 88.428833 C 80.942261 91.783142 80.942261 97.234589 77.167976 99.39209 C 76.154854 99.977356 75.128609 100.231964 74.125984 100.231964 C 70.493439 100.231964 67.144356 96.893372 65.784775 93.701782 C 63.871391 89.224091 64.002625 84.271332 65.29921 79.599426 Z M 137.425201 11.434082 C 136.692917 11.434082 135.989502 11.806763 135.577423 12.704407 C 126.711288 32.41571 104.664047 38.644043 87.230972 48.410461 C 77.097115 54.108612 66.545929 62.932739 61.858269 73.922241 L 61.858269 73.922241 C 59.632545 73.651917 57.396324 73.52594 55.223099 73.52594 C 51.06562 73.52594 47.144356 73.985229 43.976379 74.77002 C 23.669292 79.74115 9.95013 98.672913 10.068237 119.28183 C 10.099735 120.898621 11.356953 121.709656 12.601048 121.709656 C 13.842514 121.709656 15.070862 120.898621 15.041992 119.28183 C 14.981625 104.365845 22.889759 89.987885 36.249344 82.977356 C 42.060364 79.895996 48.640419 78.389465 55.194229 78.389465 C 56.412071 78.389465 57.624672 78.441956 58.834648 78.544312 C 59.293961 78.583679 59.763779 78.63092 60.244095 78.68866 L 60.244095 78.68866 C 59.278214 82.523315 59.05249 86.581055 59.792648 90.825134 C 61.036743 98.103363 66.251968 105.14798 74.230972 105.14798 C 74.330711 105.14798 74.430443 105.145355 74.530182 105.142731 C 81.839897 104.964233 86.034119 97.953735 85.194229 91.184723 C 84.015747 81.951111 76.136482 76.97998 67.049866 74.838257 L 67.049866 74.838257 C 67.671913 73.476074 68.377953 72.168976 69.139107 70.935364 C 77.346458 57.636169 92.204727 51.284454 105.682419 44.696533 C 119.343826 37.985229 133.362198 29.717529 139.892395 15.221466 C 140.797897 13.242462 139.039368 11.434082 137.425201 11.434082 Z"/>
    <path id="Path-copy-2" fill="#73c065" fill-rule="evenodd" stroke="none" d="M 143.208801 0.951385 C 137.410934 0.951385 132.725388 5.636932 132.725388 11.434784 C 132.725388 17.232635 137.410934 21.918182 143.208801 21.918182 C 149.006653 21.918182 153.569153 17.232635 153.569153 11.434784 C 153.569153 5.636902 149.006653 0.951385 143.208801 0.951385 Z"/>
    <path id="Path-copy" fill="#73c065" fill-rule="evenodd" stroke="none" d="M 10.010632 113.744019 C 4.212772 113.744019 -0.472771 118.429565 -0.472771 124.227417 C -0.472771 130.025299 4.212772 134.710815 10.010632 134.710815 C 15.808495 134.710815 20.370991 130.025299 20.370991 124.227417 C 20.370991 118.429565 15.808495 113.744019 10.010632 113.744019 Z"/>
</svg>
