<?xml version="1.0" encoding="UTF-8"?>
<!-- Generated by Pixelmator Pro 2.4.5 -->
<svg width="170" height="118" viewBox="0 0 170 118" xmlns="http://www.w3.org/2000/svg" xmlns:xlink="http://www.w3.org/1999/xlink">
    <path id="Path-copy-3" fill="#245716" fill-rule="evenodd" stroke="none" d="M 69.685852 52.798431 L 69.685852 52.798431 C 69.987968 58.509033 69.046753 64.669281 65.220024 68.548035 C 62.546333 71.297028 57.327667 72.873596 54.170792 69.88443 C 53.31749 69.083832 52.776978 68.175018 52.487015 67.21521 C 51.436485 63.737793 53.663956 59.566193 56.32608 57.341644 C 60.059227 54.215027 64.838455 52.908325 69.685852 52.798431 Z M 155.799377 102.131195 C 155.587601 101.430176 155.02739 100.864594 154.048904 100.729706 C 132.615204 97.942657 120.276749 78.638062 105.885727 64.773834 C 97.500153 56.720612 86.001404 49.171906 74.125481 47.862579 L 74.125481 47.862579 C 73.740601 45.653687 73.214485 43.476532 72.585991 41.396088 C 71.383644 37.416138 69.809914 33.795166 68.142464 30.98941 C 57.510796 12.987091 35.419846 5.328796 15.725079 11.401978 C 14.186424 11.899689 13.773621 13.337769 14.133411 14.528748 C 14.492447 15.717194 15.624077 16.658569 17.163486 16.16333 C 31.425125 11.79184 47.476173 15.204193 58.050911 25.965881 C 62.681252 30.637634 66.026436 36.501038 67.921799 42.774994 C 68.273994 43.940826 68.574432 45.116852 68.826363 46.304749 C 68.921509 46.755829 69.012154 47.219269 69.095779 47.69577 L 69.095779 47.69577 C 65.145546 47.880096 61.195786 48.837524 57.34697 50.773468 C 50.739326 54.069305 45.503754 61.099121 47.811279 68.737427 C 47.840126 68.832916 47.871483 68.927643 47.90284 69.022339 C 50.187668 75.968323 58.111786 77.956024 64.348877 75.194397 C 72.847382 71.395874 75.32756 62.415405 74.749992 53.097412 L 74.749992 53.097412 C 76.233925 53.29892 77.689384 53.596802 79.090431 53.968719 C 94.195335 57.979462 104.57283 70.366394 114.777206 81.363342 C 125.152802 92.500519 137.121597 103.529266 152.887207 105.588348 C 155.043579 105.882874 156.26619 103.676453 155.799377 102.131195 Z"/>
    <path id="Path-copy-2" fill="#ffb700" fill-rule="evenodd" stroke="none" d="M 167.507065 104.636261 C 165.830322 99.085968 159.989807 95.955536 154.439514 97.632294 C 148.889221 99.309021 145.758804 105.149567 147.435547 110.69986 C 149.112289 116.250122 154.917236 119.262756 160.467529 117.585999 C 166.017822 115.909302 169.183807 110.186554 167.507065 104.636261 Z"/>
    <path id="Path-copy" fill="#ffb700" fill-rule="evenodd" stroke="none" d="M 21.009754 9.74527 C 19.333015 4.194977 13.492489 1.064575 7.942196 2.741333 C 2.391903 4.41806 -0.738506 10.258575 0.938236 15.808899 C 2.614975 21.359192 8.419918 24.371796 13.970211 22.695068 C 19.520504 21.018311 22.686497 15.295593 21.009754 9.74527 Z"/>
</svg>
