<?xml version="1.0" encoding="UTF-8"?>
<!-- Generated by Pixelmator Pro 2.4.5 -->
<svg width="234" height="70" viewBox="0 0 234 70" xmlns="http://www.w3.org/2000/svg" xmlns:xlink="http://www.w3.org/1999/xlink">
    <path id="Path-copy-3" fill="#245716" fill-rule="evenodd" stroke="none" d="M 73.781189 15.360535 C 75.016541 17.334167 75.631775 19.435791 75.877869 21.281464 C 76.74408 27.945557 72.919861 35.470947 67.122009 38.798096 C 65.935852 39.496979 64.085266 40.309082 61.919678 40.309082 C 60.246277 40.309082 58.390747 39.826721 56.51062 38.428955 C 50.343628 33.620361 53.798737 27.576416 55.526276 25.228729 C 58.97644 20.420135 66.009674 16.103729 73.781189 15.360535 Z M 111.895477 41.391876 C 114.612305 46.077393 116.339844 50.639893 116.462891 54.587158 C 116.585938 58.288361 115.473602 61.374329 112.884766 63.471008 C 111.16214 64.927856 109.537933 65.449554 108.090942 65.449554 C 105.492218 65.449554 103.474304 63.761383 102.524384 62.732727 C 98.823212 58.657471 97.464813 51.383087 102.027283 46.692627 C 104.621063 43.980713 107.948212 42.253174 111.895477 41.391876 Z M 51.588837 1.313782 C 23.62326 1.313782 9.005554 36.125549 8.897278 36.455322 L 12.721497 38.059814 C 12.829803 37.725128 26.325317 5.438232 51.672516 5.438232 C 54.49762 5.438232 57.465454 5.836884 60.580933 6.727722 C 65.02533 8.086151 68.229401 9.81369 70.572174 11.664276 C 62.677612 13.263855 55.895416 17.831299 52.194214 22.762909 C 47.134644 29.673096 47.877808 36.94751 54.04483 41.637939 C 56.436798 43.498383 59.148712 44.428619 61.954132 44.428619 C 64.355957 44.428619 66.826691 43.744476 69.218689 42.376221 C 76.370026 38.305908 80.937439 28.929901 79.948181 20.789276 C 79.825134 19.184784 79.332947 17.334167 78.343658 15.237488 L 78.343658 15.237488 C 82.537018 15.611572 86.735321 16.965057 90.805634 19.804932 C 98.454071 25.228729 104.990204 31.523682 109.429657 37.813721 C 105.359344 38.921143 101.904266 40.894775 99.069305 43.857666 C 92.902313 50.270752 94.506805 60.138947 99.561493 65.444641 C 102.027283 68.156525 104.990204 69.514954 108.071259 69.514954 C 110.665039 69.514954 113.253876 68.525665 115.596649 66.552032 C 119.051758 63.594055 120.779297 59.400696 120.533203 54.464111 C 120.410156 50.270752 118.928711 45.585236 116.339844 40.894775 C 116.777893 40.880005 117.215912 40.870148 117.663818 40.870148 C 126.158813 40.870148 136.233704 44.21698 146.313507 51.013947 C 155.482788 57.038208 169.352417 60.468689 182.582153 60.468689 C 188.035461 60.468689 193.385437 59.882996 198.243286 58.657471 C 209.346802 55.945587 217.610474 50.147705 221.92688 42.00708 L 218.353699 40.033447 C 213.540161 49.040314 204.164185 52.98761 197.258911 54.710205 C 192.661987 55.871765 187.602356 56.423004 182.454163 56.423004 C 170.056213 56.423004 157.111908 53.223846 148.656281 47.558868 C 137.892334 40.382904 126.936462 36.75061 117.565369 36.75061 C 116.305389 36.75061 115.070038 36.819519 113.86911 36.94751 C 109.060516 29.796143 101.904266 22.639862 93.148407 16.349823 C 87.690125 12.550201 81.88736 11.039215 76.40448 11.039215 C 76.187927 11.039215 75.971375 11.039215 75.754822 11.044128 C 73.042908 7.840057 68.598541 4.754089 61.693268 2.780457 C 58.149597 1.766571 54.783081 1.313782 51.588837 1.313782 Z"/>
    <path id="Path-copy-2" fill="#c63b3d" fill-rule="evenodd" stroke="none" d="M 10.624817 29.673492 C 4.826935 29.673492 0.141418 34.359009 0.141418 40.156891 C 0.141418 45.954742 4.826935 50.640289 10.624817 50.640289 C 16.422668 50.640289 20.985168 45.954742 20.985168 40.156891 C 20.985168 34.359009 16.422668 29.673492 10.624817 29.673492 Z"/>
    <path id="Path-copy" fill="#c63b3d" fill-rule="evenodd" stroke="none" d="M 223.408936 29.673492 C 217.611084 29.673492 212.925537 34.359009 212.925537 40.156891 C 212.925537 45.954742 217.611084 50.640289 223.408936 50.640289 C 229.08374 50.640289 233.769287 45.954742 233.769287 40.156891 C 233.769287 34.359009 229.08374 29.673492 223.408936 29.673492 Z"/>
</svg>
