<?xml version="1.0" encoding="UTF-8"?>
<!-- Generated by Pixelmator Pro 2.4.5 -->
<svg width="157" height="133" viewBox="0 0 157 133" xmlns="http://www.w3.org/2000/svg" xmlns:xlink="http://www.w3.org/1999/xlink">
    <path id="Path-copy-3" fill="#245716" fill-rule="evenodd" stroke="none" d="M 67.092834 55.186401 L 67.092834 55.186401 C 72.631104 53.761902 78.225464 51.016418 80.777893 46.202576 C 82.59845 42.827515 82.537231 37.376312 78.738892 35.261292 C 77.719238 34.687378 76.690186 34.444336 75.687561 34.455597 C 72.055176 34.496368 68.743713 37.872437 67.420044 41.079163 C 65.557007 45.578156 65.743835 50.529236 67.092834 55.186401 Z M 139.981262 122.539124 C 139.248962 122.547333 138.541382 122.182556 138.119263 121.289551 C 129.032166 101.67865 106.915894 95.69812 89.373901 86.127838 C 79.176453 80.543701 68.526611 71.838379 63.715759 60.901978 L 63.715759 60.901978 C 61.493164 61.197296 59.258484 61.348389 57.085327 61.372772 C 52.92804 61.419464 49.00177 61.004181 45.825073 60.255005 C 25.463013 55.512085 11.53186 36.735168 11.418579 16.125763 C 11.431885 14.508667 12.679932 13.683563 13.924011 13.669586 C 15.165405 13.65564 16.402832 14.45285 16.39209 16.069916 C 16.499207 30.985992 24.568481 45.274536 38.006226 52.134766 C 43.851624 55.150757 50.448303 56.583374 57.001831 56.509766 C 58.219666 56.496094 59.43158 56.429993 60.640381 56.314056 C 61.099243 56.269531 61.568481 56.21701 62.048157 56.15387 L 62.048157 56.15387 C 61.039246 52.330231 60.768005 48.275208 61.460449 44.022949 C 62.622742 36.731079 67.758667 29.628174 75.737366 29.538605 C 75.837097 29.537476 75.936829 29.539001 76.036621 29.540497 C 83.348022 29.636902 87.620789 36.600006 86.856934 43.378174 C 85.782166 52.624634 77.959045 57.684021 68.896851 59.927704 L 68.896851 59.927704 C 69.53418 61.282867 70.254883 62.58197 71.029846 63.806976 C 79.386169 77.013489 94.315186 83.19809 107.866272 89.63443 C 121.602478 96.192017 135.713135 104.302002 142.405823 118.724152 C 143.333496 120.692932 141.595337 122.520996 139.981262 122.539124 Z"/>
    <path id="Path-copy-2" fill="#73c065" fill-rule="evenodd" stroke="none" d="M 145.87616 132.958099 C 140.078613 133.023254 135.340637 128.390625 135.275452 122.593048 C 135.210266 116.795471 139.842896 112.057495 145.640503 111.99231 C 151.438049 111.927124 156.05304 116.561157 156.118164 122.358765 C 156.18335 128.156311 151.673767 132.892944 145.87616 132.958099 Z"/>
    <path id="Path-copy" fill="#73c065" fill-rule="evenodd" stroke="none" d="M 11.425476 21.668518 C 5.627869 21.733704 0.889893 17.101044 0.824768 11.303467 C 0.759583 5.50589 5.392212 0.767914 11.189819 0.702728 C 16.987366 0.637573 21.602295 5.271606 21.66748 11.069183 C 21.732666 16.86676 17.223083 21.603363 11.425476 21.668518 Z"/>
</svg>
