<?xml version="1.0" encoding="UTF-8"?>
<!-- Generated by Pixelmator Pro 2.4.5 -->
<svg width="235" height="70" viewBox="0 0 235 70" xmlns="http://www.w3.org/2000/svg" xmlns:xlink="http://www.w3.org/1999/xlink">
    <path id="Path-copy-3" fill="#245716" fill-rule="evenodd" stroke="none" d="M 159.930054 15.742065 C 158.694702 17.715698 158.079468 19.817291 157.833374 21.662964 C 156.967163 28.327057 160.791382 35.852478 166.589233 39.179596 C 167.775391 39.878479 169.625977 40.690582 171.791565 40.690582 C 173.464966 40.690582 175.320496 40.208252 177.200623 38.810455 C 183.367615 34.001892 179.912476 27.957916 178.184937 25.610229 C 174.734802 20.801666 167.701538 16.48526 159.930054 15.742065 Z M 121.815765 41.773376 C 119.098938 46.458923 117.371368 51.021423 117.248322 54.968689 C 117.125305 58.669861 118.23761 61.755829 120.826477 63.852509 C 122.549103 65.309357 124.173279 65.831055 125.6203 65.831055 C 128.218994 65.831055 130.236938 64.142883 131.186829 63.114227 C 134.888 59.039001 136.246429 51.764618 131.683929 47.074158 C 129.090149 44.362244 125.763031 42.634705 121.815765 41.773376 Z M 182.122375 1.695282 C 210.087952 1.695282 224.705688 36.50708 224.813965 36.836823 L 220.989685 38.441345 C 220.881409 38.106659 207.385925 5.819733 182.038696 5.819733 C 179.213623 5.819733 176.245789 6.218414 173.130249 7.109253 C 168.685913 8.467651 165.481812 10.195221 163.139038 12.045807 C 171.033569 13.645386 177.815796 18.212799 181.517029 23.14444 C 186.576599 30.054626 185.833435 37.32901 179.666382 42.01947 C 177.274414 43.879913 174.5625 44.81012 171.75708 44.81012 C 169.355286 44.81012 166.884521 44.126007 164.492554 42.757751 C 157.341187 38.687408 152.773804 29.311432 153.763062 21.170776 C 153.886108 19.566284 154.378296 17.715698 155.367554 15.619019 L 155.367554 15.619019 C 151.174194 15.993073 146.975891 17.346558 142.905579 20.186432 C 135.257141 25.610229 128.721008 31.905212 124.281555 38.195251 C 128.351868 39.302643 131.806976 41.276276 134.641937 44.239197 C 140.808899 50.652283 139.204407 60.520447 134.14975 65.826141 C 131.683929 68.538055 128.721008 69.896454 125.639984 69.896454 C 123.046204 69.896454 120.457336 68.907166 118.114563 66.933533 C 114.659485 63.975555 112.931915 59.782196 113.178009 54.845642 C 113.301056 50.652283 114.782532 45.966736 117.371368 41.276276 C 116.93335 41.261505 116.4953 41.251678 116.047424 41.251678 C 107.552429 41.251678 97.477539 44.59848 87.397705 51.395477 C 78.228424 57.419739 64.358826 60.85022 51.129089 60.85022 C 45.675751 60.85022 40.325775 60.264526 35.467957 59.039001 C 24.36441 56.327087 16.100739 50.529236 11.784332 42.388611 L 15.357544 40.414978 C 20.171051 49.421844 29.547058 53.36911 36.452301 55.091736 C 41.049255 56.253265 46.108856 56.804504 51.25705 56.804504 C 63.655029 56.804504 76.599304 53.605347 85.054932 47.940369 C 95.818878 40.764404 106.77478 37.132141 116.145844 37.132141 C 117.405823 37.132141 118.641205 37.20105 119.842102 37.32901 C 124.650696 30.177643 131.806976 23.021393 140.562805 16.731354 C 146.021118 12.931732 151.823853 11.420746 157.306763 11.420746 C 157.523315 11.420746 157.739868 11.420746 157.956421 11.425659 C 160.668335 8.221588 165.112671 5.13562 172.017944 3.161987 C 175.561646 2.148102 178.928162 1.695282 182.122375 1.695282 Z"/>
    <path id="Path-copy-2" fill="#c63b3d" fill-rule="evenodd" stroke="none" d="M 223.086426 30.054993 C 228.884277 30.054993 233.569824 34.74054 233.569824 40.538391 C 233.569824 46.336273 228.884277 51.02179 223.086426 51.02179 C 217.288574 51.02179 212.726074 46.336273 212.726074 40.538391 C 212.726074 34.74054 217.288574 30.054993 223.086426 30.054993 Z"/>
    <path id="Path-copy" fill="#c63b3d" fill-rule="evenodd" stroke="none" d="M 10.302277 30.054993 C 16.100159 30.054993 20.785675 34.74054 20.785675 40.538391 C 20.785675 46.336273 16.100159 51.02179 10.302277 51.02179 C 4.627472 51.02179 -0.058075 46.336273 -0.058075 40.538391 C -0.058075 34.74054 4.627472 30.054993 10.302277 30.054993 Z"/>
</svg>
