<?xml version="1.0" encoding="UTF-8"?>
<!-- Generated by Pixelmator Pro 2.4.5 -->
<svg width="174" height="113" viewBox="0 0 174 113" xmlns="http://www.w3.org/2000/svg" xmlns:xlink="http://www.w3.org/1999/xlink">
    <path id="Path-copy-3" fill="#245716" fill-rule="evenodd" stroke="none" d="M 101.163696 63.92334 L 101.163696 63.92334 C 100.616821 58.231018 101.292908 52.036133 104.949646 47.996826 C 107.50293 45.135681 112.649048 43.336731 115.931213 46.187683 C 116.818115 46.950897 117.397095 47.835663 117.727966 48.782135 C 118.926697 52.211273 116.880249 56.474548 114.31604 58.811218 C 110.72052 62.095093 106.001831 63.605591 101.163696 63.92334 Z M 13.013977 18.330994 C 13.255676 19.022278 13.8396 19.563293 14.822937 19.656067 C 36.356262 21.520996 49.511414 40.278229 64.483765 53.512146 C 73.207031 61.19812 85.018921 68.24646 96.939941 69.045074 L 96.939941 69.045074 C 97.41925 71.235352 98.038269 73.387939 98.755432 75.439453 C 100.12738 79.364136 101.85498 82.914215 103.641235 85.645813 C 115.035339 103.175232 137.434265 109.878632 156.850098 102.966187 C 158.365967 102.402924 158.716675 100.948486 158.306152 99.774048 C 157.896423 98.602112 156.725464 97.710175 155.20874 98.270966 C 141.147949 103.250244 124.965515 100.529694 113.938904 90.231689 C 109.112488 85.762939 105.51886 80.048553 103.356079 73.861755 C 102.954224 72.712097 102.603577 71.550079 102.300964 70.374084 C 102.186523 69.92749 102.076111 69.468414 101.972107 68.995941 L 101.972107 68.995941 C 105.910767 68.642303 109.815735 67.516327 113.577942 65.417053 C 120.038025 61.84082 124.967102 54.592926 122.334045 47.06076 C 122.301086 46.966614 122.265747 46.873322 122.230347 46.780029 C 119.649658 39.938568 111.647644 38.292664 105.534851 41.319305 C 97.207214 45.478882 95.114624 54.557373 96.091431 63.841919 L 96.091431 63.841919 C 94.60022 63.704224 93.133362 63.469055 91.717651 63.157623 C 76.454773 59.798645 65.555542 47.8685 54.888916 37.31958 C 44.045166 26.637909 31.61438 16.132904 15.775146 14.752136 C 13.608154 14.550385 12.481323 16.80722 13.013977 18.330994 Z"/>
    <path id="Path-copy-2" fill="#ffb700" fill-rule="evenodd" stroke="none" d="M 1.209778 16.330566 C 3.123047 21.803741 9.092407 24.680664 14.565613 22.767365 C 20.038818 20.854065 22.91571 14.884705 21.002441 9.41153 C 19.089111 3.938324 13.160339 1.177551 7.687195 3.090851 C 2.213989 5.00415 -0.703552 10.857391 1.209778 16.330566 Z"/>
    <path id="Path-copy" fill="#ffb700" fill-rule="evenodd" stroke="none" d="M 151.641418 104.848053 C 153.554688 110.321228 159.524109 113.198151 164.997253 111.284851 C 170.470459 109.371582 173.347351 103.402191 171.434082 97.929016 C 169.520752 92.455811 163.59198 89.695068 158.118835 91.608337 C 152.64563 93.521667 149.728149 99.374878 151.641418 104.848053 Z"/>
</svg>
