<?xml version="1.0" encoding="UTF-8"?>
<!-- Generated by Pixelmator Pro 2.4.5 -->
<svg width="159" height="179" viewBox="0 0 159 179" xmlns="http://www.w3.org/2000/svg" xmlns:xlink="http://www.w3.org/1999/xlink">
    <path id="Path-copy" fill="#fdfbf6" fill-rule="evenodd" stroke="none" d="M 148.525574 0.532654 C 150.892517 0.532654 153.46698 2.927856 152.325928 5.794556 C 148.450134 15.262177 144.140503 24.305481 139.623474 33.348785 C 140.915405 34.857574 140.915405 37.007599 139.840332 38.516357 C 146.724365 50.134033 151.675232 62.619263 153.834778 75.962585 C 155.117249 83.280212 158.993042 100.716125 149.958923 104.808716 C 148.563293 105.449951 147.318481 105.732849 146.196289 105.732849 C 138.70874 105.732849 137.115051 92.776154 136.181458 87.155914 C 134.031372 73.812561 132.522522 60.686127 131.654968 47.333344 C 127.354797 54.65097 122.837708 61.761139 117.886902 68.644958 L 118.09436 69.078735 C 123.045227 82.855865 126.279724 97.2742 126.921021 111.909454 C 127.354797 118.793304 129.721741 134.720428 120.470764 137.30423 C 119.414551 137.634277 118.471558 137.775726 117.622864 137.775726 C 109.3526 137.775726 109.701477 123.828857 109.701477 118.368958 C 109.701477 105.449951 109.701477 92.323517 109.701477 79.40451 C 106.042603 84.355225 101.95929 89.09848 97.866638 93.832275 C 99.158569 106.317505 99.375427 118.793304 98.507874 131.495392 C 98.083496 137.738007 98.724731 151.081329 90.11499 152.37323 C 89.756653 152.42038 89.417175 152.43924 89.087097 152.43924 C 77.073059 152.43924 82.467102 122.452087 86.031738 106.524963 L 86.031738 106.524963 C 83.447876 109.108765 81.080872 111.475677 78.497009 113.84259 C 78.497009 114.493256 78.28009 115.134491 77.846313 115.785156 C 77.205078 116.426392 76.771301 117.077057 76.337524 117.935181 C 72.678589 133.221069 69.236572 148.931335 65.360779 164.217224 C 63.823669 170.2052 59.004822 178.5224 52.441406 178.5224 C 50.762817 178.5224 48.96167 177.975464 47.066223 176.692993 C 37.815186 170.24292 46.849304 154.957031 50.300781 147.639435 C 52.875183 141.830597 56.109741 136.229218 59.3349 130.637268 L 59.3349 130.637268 C 50.50824 137.738007 41.257202 144.414398 31.572388 150.440094 C 30.874573 150.873871 30.176758 151.071899 29.516663 151.071899 C 26.319824 151.071899 24.047119 146.554993 27.262817 144.414398 C 36.306396 138.59613 45.132996 132.570404 53.525879 125.903442 L 53.525879 125.903442 C 43.841064 128.053467 34.156311 129.128479 24.254578 129.128479 C 23.255005 129.128479 22.095093 129.147339 20.831421 129.147339 C 13.098694 129.147339 1.622131 128.506104 1.433533 119.44397 C 1.009216 106.741852 21.670715 107.599976 29.629822 107.392517 C 42.766052 107.392517 55.892883 109.108765 68.595337 112.984467 C 72.678589 109.325653 76.554382 105.66684 80.213318 101.791138 C 71.603577 100.933014 62.569458 100.282349 54.384033 98.349213 C 48.141235 96.840424 41.898438 91.465393 44.482361 84.355225 C 46.01947 79.913727 50.38562 78.197479 54.714111 78.197479 C 56.468079 78.197479 58.212708 78.480377 59.768677 78.980164 C 70.094727 82.2052 79.996399 87.155914 89.898132 91.465393 C 95.065857 86.080902 99.799805 80.272064 104.326294 74.453796 L 104.326294 74.453796 C 103.081482 74.510376 101.84613 74.538666 100.610779 74.538666 C 91.953857 74.538666 83.334717 73.218475 75.045593 70.587524 C 69.670349 68.644958 53.525879 64.34494 58.042969 55.301636 C 59.636658 52.114319 63.229553 51.077026 67.331665 51.077026 C 73.197266 51.077026 80.109558 53.208191 83.655334 54.226624 C 92.915771 57.027313 101.525513 61.327362 109.277161 66.711823 L 110.135254 66.711823 C 115.30304 59.601685 120.036987 52.284058 124.554016 44.758972 C 115.944275 44.758972 107.334534 43.67453 98.94165 41.524506 C 92.057617 39.59137 81.505249 36.356934 83.014038 27.323059 C 83.872192 21.580231 88.370422 19.854553 93.189209 19.854553 C 95.593933 19.854553 98.083496 20.28833 100.233582 20.863556 C 110.993408 23.664246 121.762695 27.323059 132.522522 30.548096 C 137.473389 21.504791 141.77356 12.254028 145.649353 2.569519 C 146.224609 1.136169 147.346802 0.532654 148.525574 0.532654 Z"/>
</svg>
